<svg width="60" height="60" viewBox="0 0 60 60" fill="none" xmlns="http://www.w3.org/2000/svg">
<circle opacity="0.2" cx="30" cy="30" r="30" fill="#3CA0FF"/>
<path d="M37 25.3334C38.933 25.3334 40.5 23.7664 40.5 21.8334C40.5 19.9004 38.933 18.3334 37 18.3334C35.067 18.3334 33.5 19.9004 33.5 21.8334C33.5 23.7664 35.067 25.3334 37 25.3334Z" stroke="#383838" stroke-width="2" stroke-linecap="round" stroke-linejoin="round"/>
<path d="M23 33.5C24.933 33.5 26.5 31.933 26.5 30C26.5 28.067 24.933 26.5 23 26.5C21.067 26.5 19.5 28.067 19.5 30C19.5 31.933 21.067 33.5 23 33.5Z" stroke="#383838" stroke-width="2" stroke-linecap="round" stroke-linejoin="round"/>
<path d="M37 41.6666C38.933 41.6666 40.5 40.0996 40.5 38.1666C40.5 36.2336 38.933 34.6666 37 34.6666C35.067 34.6666 33.5 36.2336 33.5 38.1666C33.5 40.0996 35.067 41.6666 37 41.6666Z" stroke="#383838" stroke-width="2" stroke-linecap="round" stroke-linejoin="round"/>
<path d="M26.0234 31.7617L33.9918 36.4051" stroke="#383838" stroke-width="2" stroke-linecap="round" stroke-linejoin="round"/>
<path d="M33.9801 23.595L26.0234 28.2383" stroke="#383838" stroke-width="2" stroke-linecap="round" stroke-linejoin="round"/>
</svg>
