<svg width="60" height="60" viewBox="0 0 60 60" fill="none" xmlns="http://www.w3.org/2000/svg">
<g clip-path="url(#clip0_2658_42692)">
<circle opacity="0.2" cx="30" cy="30" r="30" fill="#E8B600"/>
<g clip-path="url(#clip1_2658_42692)">
<path d="M16.3052 32.8569C16.4425 33.0037 17.9177 32.4516 18.2272 32.3351C18.6181 32.1884 20.1096 31.1518 20.2585 31.811C20.4307 32.5774 19.0323 33.0503 18.4599 33.2669C15.4745 34.3967 14.7369 33.8493 15.4838 30.7534C15.6607 30.0173 16.7729 28.0047 16.7729 27.8463C16.7729 27.4456 16.1028 26.8283 15.7095 26.7887C14.9347 26.7141 13.5782 28.5148 13.2361 29.2043C12.1402 31.4243 12.4752 34.2895 13.157 36.5887C14.1761 37.001 14.9417 36.6795 16.0469 37.1897C18.5436 38.3404 18.6018 41.6879 16.7938 43.4885C18.4017 46.3258 21.408 48.3501 24.7958 47.996C25.9081 47.8795 27.1506 47.0409 25.9802 46.1115C25.2077 45.4988 19.7489 45.2379 20.8425 42.8759C21.152 42.205 24.4375 40.0735 24.9099 40.5441C25.0285 41.6296 23.3579 41.9581 22.5993 42.5381C22.2503 42.806 21.9664 43.1461 21.6569 43.4536C22.7668 44.8652 26.3106 44.5112 27.0157 45.7714C27.8603 47.2809 26.8109 48.6832 25.2379 48.9068C21.2311 49.4775 18.2923 47.2902 15.9562 44.3108C8.74763 48.9371 4.30337 40.1434 12.1285 36.8938C11.4817 33.7048 11.0745 30.2642 13.1803 27.5178C14.2134 26.1714 16.1377 24.8483 17.329 26.8166C18.3714 28.5381 15.6211 30.7557 16.3029 32.8546L16.3052 32.8569ZM12.7521 37.8047C8.87328 38.4639 7.063 44.2829 11.7958 44.7278C17.4058 45.2542 19.6861 36.6283 12.7521 37.8047Z" fill="#2A2A2A"/>
<path d="M33.9872 13.5224C36.8748 13.8113 40.1254 15.2928 41.5564 17.9414C42.3382 19.3857 43.127 21.8595 40.9747 22.5141C38.6664 23.2153 37.9591 18.9594 35.6183 18.8825L35.346 22.4559C35.2739 22.8356 34.655 22.973 34.4548 22.8402C34.2012 22.6725 34.0802 17.0655 36.2372 17.8902C36.5653 18.0159 37.9986 19.0689 38.2872 19.3507C38.9084 19.9564 40.0905 22.4792 41.1399 21.3867C42.1893 20.2942 40.1882 17.3707 39.2132 16.5577C38.3686 15.8519 34.4223 13.9371 33.5544 14.4915C32.1327 18.3328 27.458 18.3444 26.0387 14.4915L25.7269 14.4309C23.1231 14.7058 20.0657 16.0918 18.8162 18.4888C18.4276 19.2366 17.7668 20.6739 18.4508 21.3867C19.4747 22.4512 20.5822 20.0426 21.1756 19.4556C24.9381 15.7354 25.457 19.2762 25.1382 22.8402L24.5379 22.4932L23.9748 18.8825C21.6107 18.9594 21.0267 23.1431 18.6719 22.4629C16.3171 21.7827 17.2432 19.2971 18.1158 17.79C19.5538 15.3021 22.8183 13.7717 25.6059 13.5248C24.7705 4.82427 34.7969 4.83126 33.9848 13.5248L33.9872 13.5224ZM29.038 7.98766C25.4709 8.71678 25.7827 16.6159 29.8803 16.4715C34.3664 16.3108 34.0011 6.97435 29.038 7.98766Z" fill="#2A2A2A"/>
<path d="M42.8886 43.1461C41.3204 45.5897 38.5258 47.8166 35.5172 47.8889C33.8768 47.9285 31.3173 47.5115 31.7128 45.2915C32.1363 42.9131 36.2455 44.2153 37.3787 42.1654L34.3212 40.2995C34.0164 40.0619 34.1746 39.4469 34.384 39.3281C34.6493 39.1767 39.6939 41.618 37.979 43.1671C37.7184 43.4023 36.1292 44.2037 35.7476 44.3341C34.9262 44.6136 32.1456 44.5228 32.6389 45.9531C33.1322 47.3834 36.6457 46.9291 37.8115 46.4283C38.8237 45.995 42.3186 43.3464 42.2208 42.3191C39.4496 39.3072 41.5623 35.1305 45.6343 35.6173L45.8298 35.3681C46.7675 32.9221 46.9234 29.5654 45.3574 27.3617C44.8688 26.6745 43.8892 25.4329 42.9445 25.7195C41.5321 26.1481 43.1725 28.2306 43.4261 29.0273C45.027 34.0729 41.6415 32.9268 38.6142 31.0236L39.1959 30.6463L42.6653 31.783C43.6705 29.6399 40.2128 27.2173 41.8881 25.4283C43.5634 23.6393 45.3551 25.5937 46.2998 27.0542C47.8611 29.4676 47.7401 33.0735 46.693 35.6709C54.8137 38.8785 50.2531 47.8166 42.8863 43.1438L42.8886 43.1461ZM50.0623 41.2453C51.0326 37.7324 43.8613 34.4223 42.1324 38.1424C40.236 42.2166 48.7127 46.1324 50.0623 41.2453Z" fill="#2A2A2A"/>
<path d="M33.9821 26.1295L34.9571 27.1055C35.1781 27.4689 35.4248 27.8137 35.6226 28.1934C36.5649 30.0057 36.537 32.3118 35.5295 34.0962C35.3526 34.4107 35.1293 34.6925 34.9524 35.007C34.615 35.3005 34.3172 35.7035 33.9775 35.983C29.8869 39.3514 23.4927 36.1391 23.758 30.7744C24.0093 25.7288 30.0568 22.8659 33.9821 26.1318V26.1295ZM26.1034 27.1241C23.9302 29.2998 23.9279 32.8243 26.0988 34.9977C28.2697 37.1711 31.7902 37.1687 33.9635 34.993C36.1368 32.8173 36.1391 29.2929 33.9682 27.1195C31.7972 24.9461 28.2767 24.9484 26.1034 27.1241Z" fill="#2A2A2A"/>
</g>
</g>
<defs>
<clipPath id="clip0_2658_42692">
<rect width="60" height="60" fill="white"/>
</clipPath>
<clipPath id="clip1_2658_42692">
<rect width="43" height="42" fill="white" transform="translate(8 7)"/>
</clipPath>
</defs>
</svg>
