<svg width="60" height="60" viewBox="0 0 60 60" fill="none" xmlns="http://www.w3.org/2000/svg">
<g clip-path="url(#clip0_2658_42725)">
<circle opacity="0.2" cx="30" cy="30" r="30" fill="#BADDFF"/>
<path d="M35.4971 15C36.4185 15 37.1858 14.9986 37.792 15.0801C38.4196 15.1645 38.987 15.3503 39.4424 15.8057C39.8974 16.261 40.0836 16.8277 40.168 17.4551C40.2495 18.0613 40.2471 18.8284 40.2471 19.75V21.334C41.4488 21.3348 42.4335 21.3441 43.2227 21.4502C44.1224 21.5712 44.8807 21.83 45.4824 22.4316C46.0841 23.0335 46.3429 23.7924 46.4639 24.6924C46.5819 25.5708 46.5811 26.6914 46.5811 28.084V38.25C46.5811 39.6426 46.5819 40.7632 46.4639 41.6416C46.3428 42.5416 46.0843 43.3005 45.4824 43.9023C44.8806 44.504 44.1225 44.7628 43.2227 44.8838C42.3443 45.0019 41.2238 45 39.8311 45H20.1641C18.7713 45 17.6509 45.0018 16.7725 44.8838C15.8727 44.7628 15.1145 44.5038 14.5127 43.9023C13.9109 43.3005 13.6513 42.5416 13.5303 41.6416C13.4122 40.7632 13.4141 39.6426 13.4141 38.25V18.917C13.4141 18.7704 13.4142 18.6727 13.418 18.5869C13.5028 16.6444 15.0584 15.0887 17.001 15.0039C17.0867 15.0002 17.1847 15 17.3311 15H35.4971ZM14.9141 38.25C14.9141 39.6852 14.916 40.6871 15.0176 41.4424C15.1163 42.1758 15.2966 42.5651 15.5732 42.8418C15.85 43.1182 16.2395 43.2989 16.9727 43.3975C17.7279 43.4989 18.7292 43.5 20.1641 43.5H39.8311C41.266 43.5 42.2672 43.499 43.0225 43.3975C43.7559 43.2988 44.1452 43.1184 44.4219 42.8418C44.6986 42.5651 44.8789 42.1759 44.9775 41.4424C45.0791 40.6871 45.0811 39.6852 45.0811 38.25V37.083H42.6641C40.5011 37.083 38.7472 35.33 38.7471 33.167C38.7471 31.0039 40.5009 29.25 42.6641 29.25H45.0811V28.084C45.0811 26.6488 45.079 25.6469 44.9775 24.8916C44.8789 24.1582 44.6984 23.7689 44.4219 23.4922C44.1452 23.2156 43.7559 23.0352 43.0225 22.9365C42.2672 22.835 41.266 22.834 39.8311 22.834H29.9971C29.9906 22.834 29.9839 22.8332 29.9775 22.833H17.3311C17.1847 22.833 17.0866 22.8338 17.001 22.8301C16.2191 22.7959 15.4999 22.5231 14.9141 22.083V38.25ZM42.6641 30.75C41.3294 30.75 40.2471 31.8323 40.2471 33.167C40.2472 34.5015 41.3295 35.583 42.6641 35.583H45.0801V30.75H42.6641ZM17.0664 16.502C15.9009 16.5528 14.9669 17.4868 14.916 18.6523C14.9141 18.6972 14.9141 18.7549 14.9141 18.917C14.9141 19.0794 14.9141 19.1367 14.916 19.1816C14.967 20.3471 15.9009 21.2802 17.0664 21.3311C17.1112 21.333 17.1694 21.333 17.3311 21.333H38.7471V19.75C38.7471 18.786 38.7456 18.1383 38.6807 17.6553C38.6186 17.1941 38.5111 16.9965 38.3809 16.8662C38.2506 16.736 38.0528 16.6284 37.5918 16.5664C37.1088 16.5015 36.4608 16.5 35.4971 16.5H17.3311C17.1694 16.5 17.1112 16.5 17.0664 16.502Z" fill="#388DE0"/>
</g>
<defs>
<clipPath id="clip0_2658_42725">
<rect width="60" height="60" fill="white"/>
</clipPath>
</defs>
</svg>
