<svg width="60" height="60" viewBox="0 0 60 60" fill="none" xmlns="http://www.w3.org/2000/svg">
<circle opacity="0.2" cx="30" cy="30" r="30" fill="#BADDFF"/>
<g clip-path="url(#clip0_2658_42739)">
<path d="M42.974 30.0429H42.054V26.8785C40.861 26.612 39.4013 26.4875 38.8288 25.2503C38.0785 23.6263 39.1907 22.7453 39.803 21.3693L39.4953 21.2193L37.6021 19.3216C36.3908 19.7463 35.7273 20.7038 34.2788 20.4016C32.6504 20.0627 32.4296 18.3325 32.128 16.9861L28.9151 17.0759C28.5481 18.2774 28.5093 19.682 27.1824 20.2454C25.648 20.8967 24.7351 19.88 23.4491 19.2665L21.3157 21.4387C21.7471 22.6136 22.615 23.2608 22.4177 24.6746C22.1713 26.4365 20.2107 26.4783 18.9513 27.0316V30.0429H18.0312V26.8274C18.0312 25.9189 20.1197 25.8271 20.7177 25.529C21.1031 25.3361 21.5263 24.7644 21.5641 24.3316C21.6735 23.0893 19.72 21.9859 20.637 20.7517C20.9211 20.3689 22.3482 18.945 22.7315 18.6581C24.1392 17.6088 25.1594 20.0739 26.7796 19.4339C28.3099 18.8296 27.2642 16.2266 29.1195 16.0541C29.8187 15.9888 31.4073 15.9745 32.0902 16.0561C33.4886 16.2215 32.9386 18.5326 33.9864 19.2665C35.575 20.3792 36.8569 17.6945 38.1664 18.5642C38.4669 18.7643 40.2548 20.5445 40.4746 20.8518C41.2035 21.8726 39.756 22.828 39.5454 23.81C39.3747 24.6042 39.7059 25.2554 40.4501 25.5719C40.9612 25.7893 42.975 25.9975 42.975 26.7253V30.0429H42.974Z" fill="#388DE0"/>
<path d="M35.4124 43.1089L35.1487 42.2882C35.2458 42.1279 35.8919 41.985 36.0258 41.8339C36.2568 41.5746 36.126 39.6362 35.9961 39.2074C35.6864 38.1846 33.8781 36.8106 32.817 36.8852C32.0932 36.9362 31.3521 37.4282 30.3493 37.3976C29.6255 37.3751 28.5133 36.8494 28.0124 36.8852C27.3541 36.9321 26.0282 37.7528 25.6009 38.2622C24.7464 39.283 24.8486 40.4538 24.8987 41.7135L25.8964 42.3525L25.5498 43.0936C25.1399 42.9139 24.1432 42.524 24.0083 42.0922C23.8059 41.446 23.993 39.5024 24.2209 38.8236C24.636 37.5854 27.0617 35.6827 28.3375 35.9307C29.7175 36.1982 29.9179 36.7412 31.6301 36.3217C32.9059 36.0093 32.6739 35.7123 34.1091 36.2931C36.8446 37.4017 37.3424 39.4014 36.9939 42.1881C36.8681 42.4372 35.5157 43.1844 35.4124 43.1078V43.1089Z" fill="#388DE0"/>
<path d="M34.1526 31.9068C34.1526 33.9096 32.5273 35.5326 30.5216 35.5326C28.516 35.5326 26.8906 33.9096 26.8906 31.9068C26.8906 29.904 28.516 28.281 30.5216 28.281C32.5273 28.281 34.1526 29.904 34.1526 31.9068ZM33.249 31.9048C33.249 30.4022 32.0294 29.1844 30.5247 29.1844C29.02 29.1844 27.8004 30.4022 27.8004 31.9048C27.8004 33.4074 29.02 34.6252 30.5247 34.6252C32.0294 34.6252 33.249 33.4074 33.249 31.9048Z" fill="#388DE0"/>
<path d="M36.6416 27.593L35.8176 27.6522C34.6277 21.7725 26.32 21.7256 25.2926 27.6951L24.3828 27.4317C25.7352 20.5578 35.5733 20.6537 36.6416 27.592V27.593Z" fill="#388DE0"/>
<path d="M25.9959 35.0365C25.8824 35.1161 24.9297 34.4639 24.6169 34.4332C24.2673 34.3985 23.5977 34.7119 23.0978 34.7425C21.775 34.8222 21.3498 34.1178 20.1118 34.8232C18.9424 35.4898 18.8586 36.4125 18.9751 37.6773C20.12 38.3408 21.4418 38.5041 22.7421 38.5592L22.8382 39.434C21.4847 39.4208 19.5373 39.2095 18.4067 38.3969C17.7535 37.9274 18.0111 36.0604 18.3219 35.3836C18.7124 34.5323 20.2069 33.4992 21.1515 33.5033C21.544 33.5054 21.8108 33.7585 22.1819 33.8095C23.2062 33.9535 23.979 33.4513 24.6997 33.536C24.9961 33.5707 26.2474 34.0964 26.371 34.3261C26.507 34.5782 25.9928 34.764 25.9959 35.0355V35.0365Z" fill="#388DE0"/>
<path d="M38.2712 39.4341V38.5143C39.5388 38.548 40.8881 38.3326 42.0034 37.6987C42.1506 36.6136 42.1659 35.7041 41.2285 34.9998C41.019 34.8426 40.2891 34.4557 40.0499 34.4322C39.685 34.3965 39.1841 34.6997 38.7353 34.7415C37.8173 34.8273 37.0537 34.4139 36.4915 34.4363C36.0652 34.4537 35.5561 34.8752 35.1687 35.0335C35.0481 35.0131 34.7537 34.6109 34.6903 34.4843C34.6167 34.3383 34.5492 34.4435 34.6985 34.2832C34.9295 34.0341 36.0458 33.5564 36.3923 33.5197C36.9658 33.4584 37.5883 33.88 38.3244 33.8637C39.4222 33.8381 39.4795 33.2828 40.7532 33.7422C41.8542 34.1393 42.8192 35.0171 42.9643 36.2298C43.0083 36.6004 43.0379 37.9029 42.8805 38.1652C42.3837 38.99 39.2301 39.528 38.2722 39.4351L38.2712 39.4341Z" fill="#388DE0"/>
<path d="M25.499 30.7809C25.499 32.2692 24.2907 33.4758 22.8003 33.4758C21.3099 33.4758 20.1016 32.2692 20.1016 30.7809C20.1016 29.2926 21.3099 28.086 22.8003 28.086C24.2907 28.086 25.499 29.2926 25.499 30.7809ZM24.5923 30.784C24.5923 29.7958 23.7898 28.9945 22.8003 28.9945C21.8108 28.9945 21.0083 29.7958 21.0083 30.784C21.0083 31.7721 21.8108 32.5734 22.8003 32.5734C23.7898 32.5734 24.5923 31.7721 24.5923 30.784Z" fill="#388DE0"/>
<path d="M40.9443 30.7809C40.9443 32.2692 39.736 33.4758 38.2456 33.4758C36.7552 33.4758 35.5469 32.2692 35.5469 30.7809C35.5469 29.2926 36.7552 28.086 38.2456 28.086C39.736 28.086 40.9443 29.2926 40.9443 30.7809ZM40.0376 30.786C40.0376 29.7969 39.2341 28.9945 38.2436 28.9945C37.253 28.9945 36.4495 29.7969 36.4495 30.786C36.4495 31.7751 37.253 32.5775 38.2436 32.5775C39.2341 32.5775 40.0376 31.7751 40.0376 30.786Z" fill="#388DE0"/>
<path d="M27.3395 40.5569V42.6495C27.6932 42.8639 28.2953 42.9374 28.7318 42.9945C29.476 43.0905 30.4236 43.1425 31.1719 43.1089C31.6626 43.0864 33.0886 42.9394 33.5047 42.7843C33.6488 42.7302 33.6519 42.6883 33.6785 42.5495C33.7367 42.2432 33.6386 40.708 33.7807 40.559C33.978 40.5743 34.6312 40.4661 34.6731 40.7059C34.4544 41.6155 34.7866 42.5934 34.394 43.4682C31.9131 44.1235 29.0354 44.2654 26.6137 43.3732C26.4185 42.4474 26.4032 41.4981 26.4185 40.5559H27.3395V40.5569Z" fill="#388DE0"/>
</g>
<defs>
<clipPath id="clip0_2658_42739">
<rect width="25" height="28" fill="white" transform="translate(18 16)"/>
</clipPath>
</defs>
</svg>
