<svg width="60" height="60" viewBox="0 0 60 60" fill="none" xmlns="http://www.w3.org/2000/svg">
<circle opacity="0.2" cx="30" cy="30" r="30" fill="#BADDFF"/>
<g clip-path="url(#clip0_2658_42728)">
<path d="M42.9961 21.0964H40.4595C39.9332 25.4623 37.7422 29.5272 34.0071 31.8461C30.1293 34.2535 25.4984 34.6221 21.0404 34.4515L17.1562 33.811C21.3147 33.7225 25.7759 33.2204 29.2542 30.7213C32.2791 28.5472 34.4161 24.9023 34.4367 21.0964H31.4245L37.2111 16L42.9961 21.0964Z" fill="#388DE0"/>
<path d="M40.624 44.028C40.5654 44.3756 40.2768 44.8359 39.9074 44.9099C39.1956 45.0515 36.2785 45 35.47 44.9131C34.6615 44.8262 34.6567 44.6363 34.5949 43.8735C34.3127 40.4716 34.8279 36.6867 34.5885 33.2413L34.6329 33.037C36.5655 31.9459 38.1699 30.3013 39.3605 28.4233C39.806 27.7217 40.0771 26.8205 40.624 26.246V44.028Z" fill="#388DE0"/>
<path d="M31.8994 34.4531V44.1889C31.8994 44.3981 31.4476 44.8568 31.1828 44.9099C30.5043 45.0451 27.3446 45.0129 26.5789 44.9228C25.9241 44.8455 25.9194 44.4657 25.8671 43.8751C25.6404 41.2875 26.051 38.3635 25.8734 35.7405C27.9407 35.6343 29.9542 35.1129 31.8994 34.4531Z" fill="#388DE0"/>
<path d="M23.0244 35.9014V44.028C23.0244 44.0988 22.7263 44.7007 22.6423 44.7667L17.3171 44.831C17.2457 44.7876 17 44.3933 17 44.3483V35.2561C18.9754 35.6777 21.0062 35.8322 23.0244 35.8998V35.9014Z" fill="#388DE0"/>
<path d="M30.9482 27.0506C29.8067 28.8932 27.8757 30.1757 25.875 30.9128V27.6138C25.875 27.5479 26.506 27.0506 26.5884 27.0506H30.9482Z" fill="#388DE0"/>
</g>
<defs>
<clipPath id="clip0_2658_42728">
<rect width="26" height="29" fill="white" transform="translate(17 16)"/>
</clipPath>
</defs>
</svg>
