<svg width="78" height="78" viewBox="0 0 78 78" fill="none" xmlns="http://www.w3.org/2000/svg">
<circle cx="39" cy="39" r="39" fill="#E6F3FF"/>
<path d="M38.6667 55.3333C47.8714 55.3333 55.3333 47.8714 55.3333 38.6667C55.3333 29.4619 47.8714 22 38.6667 22C29.4619 22 22 29.4619 22 38.6667C22 47.8714 29.4619 55.3333 38.6667 55.3333Z" stroke="#2A8FEA" stroke-linecap="round" stroke-linejoin="round"/>
<path d="M33.8203 33.6667C34.2122 32.5528 34.9856 31.6136 36.0036 31.0153C37.0216 30.417 38.2185 30.1983 39.3823 30.3979C40.5461 30.5975 41.6017 31.2026 42.3621 32.1059C43.1225 33.0093 43.5387 34.1526 43.537 35.3334C43.537 38.6667 38.537 40.3334 38.537 40.3334" stroke="#2A8FEA" stroke-linecap="round" stroke-linejoin="round"/>
<path d="M38.6641 47H38.6816" stroke="#2A8FEA" stroke-width="2" stroke-linecap="round" stroke-linejoin="round"/>
</svg>
