<svg width="25" height="25" viewBox="0 0 25 25" fill="none" xmlns="http://www.w3.org/2000/svg">
<path d="M8.29906 16.7824C8.37788 16.8417 8.46761 16.8848 8.56312 16.9093C8.65862 16.9338 8.75802 16.9393 8.85564 16.9254C8.95325 16.9114 9.04716 16.8784 9.13198 16.8281C9.21681 16.7779 9.2909 16.7114 9.35 16.6324C9.80409 16.027 10.3929 15.5356 11.0698 15.1971C11.7468 14.8586 12.4932 14.6824 13.25 14.6824C14.0068 14.6824 14.7532 14.8586 15.4302 15.1971C16.1071 15.5356 16.6959 16.027 17.15 16.6324C17.2091 16.7112 17.2831 16.7776 17.3679 16.8278C17.4526 16.878 17.5464 16.911 17.6439 16.9249C17.7414 16.9388 17.8407 16.9334 17.9361 16.909C18.0315 16.8845 18.1212 16.8415 18.2 16.7824C18.2788 16.7233 18.3452 16.6493 18.3954 16.5646C18.4455 16.4798 18.4785 16.386 18.4925 16.2885C18.5064 16.191 18.501 16.0917 18.4765 15.9963C18.4521 15.9009 18.4091 15.8112 18.35 15.7324C17.6859 14.8421 16.8003 14.141 15.7812 13.699C16.3397 13.1891 16.731 12.5223 16.9037 11.7861C17.0764 11.0499 17.0225 10.2787 16.7491 9.57364C16.4756 8.86861 15.9954 8.26271 15.3715 7.83547C14.7476 7.40823 14.009 7.17961 13.2528 7.17961C12.4966 7.17961 11.7581 7.40823 11.1341 7.83547C10.5102 8.26271 10.03 8.86861 9.75655 9.57364C9.48311 10.2787 9.42922 11.0499 9.60194 11.7861C9.77466 12.5223 10.1659 13.1891 10.7244 13.699C9.70328 14.1402 8.81566 14.8413 8.15 15.7324C8.03055 15.8914 7.97915 16.0914 8.00711 16.2883C8.03506 16.4852 8.14008 16.6629 8.29906 16.7824ZM11 10.9324C11 10.4874 11.132 10.0524 11.3792 9.6824C11.6264 9.31239 11.9778 9.024 12.389 8.8537C12.8001 8.68341 13.2525 8.63885 13.689 8.72567C14.1254 8.81248 14.5263 9.02678 14.841 9.34144C15.1557 9.65611 15.37 10.057 15.4568 10.4935C15.5436 10.9299 15.499 11.3823 15.3287 11.7935C15.1584 12.2046 14.87 12.556 14.5 12.8032C14.13 13.0505 13.695 13.1824 13.25 13.1824C12.6533 13.1824 12.081 12.9454 11.659 12.5234C11.2371 12.1015 11 11.5292 11 10.9324ZM20 2.68243H6.5C6.10218 2.68243 5.72064 2.84047 5.43934 3.12177C5.15804 3.40308 5 3.78461 5 4.18243V6.43243H3.5C3.30109 6.43243 3.11032 6.51145 2.96967 6.6521C2.82902 6.79276 2.75 6.98352 2.75 7.18243C2.75 7.38135 2.82902 7.57211 2.96967 7.71276C3.11032 7.85342 3.30109 7.93243 3.5 7.93243H5V11.6824H3.5C3.30109 11.6824 3.11032 11.7615 2.96967 11.9021C2.82902 12.0428 2.75 12.2335 2.75 12.4324C2.75 12.6313 2.82902 12.8221 2.96967 12.9628C3.11032 13.1034 3.30109 13.1824 3.5 13.1824H5V16.9324H3.5C3.30109 16.9324 3.11032 17.0115 2.96967 17.1521C2.82902 17.2928 2.75 17.4835 2.75 17.6824C2.75 17.8813 2.82902 18.0721 2.96967 18.2128C3.11032 18.3534 3.30109 18.4324 3.5 18.4324H5V20.6824C5 21.0803 5.15804 21.4618 5.43934 21.7431C5.72064 22.0244 6.10218 22.1824 6.5 22.1824H20C20.3978 22.1824 20.7794 22.0244 21.0607 21.7431C21.342 21.4618 21.5 21.0803 21.5 20.6824V4.18243C21.5 3.78461 21.342 3.40308 21.0607 3.12177C20.7794 2.84047 20.3978 2.68243 20 2.68243ZM20 20.6824H6.5V4.18243H20V20.6824Z" fill="#3A3A3A"/>
</svg>
