<svg width="20" height="23" viewBox="0 0 20 23" fill="none" xmlns="http://www.w3.org/2000/svg">
<path d="M0.5 21.9523V1.04791L11.2459 11.4209L0.5 21.9523Z" fill="black"/>
<path d="M1.54001 22.9643L12.1982 12.4155C12.3085 12.3298 12.3528 12.4053 12.4358 12.4615C13.2159 12.9846 14.0044 14.3272 14.8344 14.9129L14.6825 15.1238L1.96727 22.8769L1.53906 22.9643H1.54001Z" fill="black"/>
<path d="M1.53906 0.0358276L2.08895 0.0966069C6.35881 2.65854 10.5834 5.30613 14.7976 7.95279L14.7957 8.13881L12.3387 10.6234L1.53906 0.0358276Z" fill="black"/>
<path d="M19.1453 10.6574C20.6365 12.2229 17.0099 13.4717 16.0969 14.2047L13.1484 11.4881L16.112 8.72168L19.1453 10.6574Z" fill="black"/>
</svg>
