<svg width="20" height="23" viewBox="0 0 20 23" fill="none" xmlns="http://www.w3.org/2000/svg">
<path d="M0.5 21.9522V1.04785L11.2459 11.4208L0.5 21.9522Z" fill="black"/>
<path d="M1.54001 22.9642L12.1982 12.4153C12.3085 12.3297 12.3528 12.4052 12.4358 12.4614C13.2159 12.9845 14.0044 14.3271 14.8344 14.9128L14.6825 15.1237L1.96727 22.8767L1.53906 22.9642H1.54001Z" fill="black"/>
<path d="M1.53906 0.0356445L2.08895 0.0964238C6.35881 2.65836 10.5834 5.30594 14.7976 7.9526L14.7957 8.13863L12.3387 10.6232L1.53906 0.0356445Z" fill="black"/>
<path d="M19.1453 10.6574C20.6365 12.2229 17.0099 13.4717 16.0969 14.2047L13.1484 11.4881L16.112 8.72168L19.1453 10.6574Z" fill="black"/>
</svg>
