<svg width="21" height="25" viewBox="0 0 21 25" fill="none" xmlns="http://www.w3.org/2000/svg">
<g clip-path="url(#clip0_2408_39264)">
<path d="M19.8442 8.55544C18.7192 9.20865 17.7547 10.4561 17.3966 11.7276C17.0385 12.9991 17.1642 14.3801 17.6659 15.5457C18.2231 16.8401 19.2845 17.7568 20.4999 18.3891C19.9566 20.0503 19.0716 21.6233 18.0184 23.0028C16.8487 24.5352 15.7051 25.3788 13.7125 24.7318C12.4161 24.3113 11.9964 23.8903 10.4799 23.9972C8.40416 24.1433 7.2837 26.0007 5.09665 24.2592C2.69618 22.3475 0.850294 17.8752 0.555301 14.8429C0.215675 11.3525 1.40847 7.44675 5.02021 6.34119C7.39554 5.6139 8.09583 6.61041 10.1085 7.11023C11.2289 7.38832 12.513 6.51806 13.6263 6.22328C15.7939 5.64885 18.2554 6.40589 19.6385 8.2184C19.6821 8.27527 19.8771 8.50848 19.8448 8.55544H19.8442Z" fill="black"/>
<path d="M15.3821 0V1.12173C15.3821 1.30016 15.2062 1.92416 15.1405 2.12816C14.5808 3.86606 13.133 5.37022 11.3317 5.71561C11.0809 5.76361 10.6571 5.86639 10.457 5.713V4.72171C10.457 4.5031 10.6771 3.86136 10.7633 3.6245C11.4851 1.64764 13.3018 0.181564 15.3821 0Z" fill="black"/>
</g>
<defs>
<clipPath id="clip0_2408_39264">
<rect width="20" height="25" fill="white" transform="translate(0.5)"/>
</clipPath>
</defs>
</svg>
