<svg width="21" height="25" viewBox="0 0 21 25" fill="none" xmlns="http://www.w3.org/2000/svg">
<g clip-path="url(#clip0_2658_42907)">
<path d="M19.8442 8.55532C18.7192 9.20853 17.7547 10.456 17.3966 11.7275C17.0385 12.9989 17.1642 14.38 17.6659 15.5455C18.2231 16.84 19.2845 17.7566 20.4999 18.389C19.9566 20.0502 19.0716 21.6232 18.0184 23.0027C16.8487 24.535 15.7051 25.3787 13.7125 24.7317C12.4161 24.3112 11.9964 23.8902 10.4799 23.9971C8.40416 24.1432 7.2837 26.0006 5.09665 24.259C2.69618 22.3474 0.850294 17.8751 0.555301 14.8428C0.215675 11.3523 1.40847 7.44663 5.02021 6.34107C7.39554 5.61377 8.09583 6.61029 10.1085 7.11011C11.2289 7.3882 12.513 6.51794 13.6263 6.22316C15.7939 5.64873 18.2554 6.40577 19.6385 8.21828C19.6821 8.27515 19.8766 8.50836 19.8442 8.55532Z" fill="black"/>
<path d="M15.3782 0V1.12173C15.3782 1.30016 15.2023 1.92416 15.1366 2.12816C14.5769 3.86606 13.1291 5.37022 11.3278 5.71561C11.077 5.76361 10.6532 5.86639 10.4531 5.713V4.72171C10.4531 4.5031 10.6732 3.86136 10.7594 3.6245C11.4812 1.64764 13.2979 0.181564 15.3782 0Z" fill="black"/>
</g>
<defs>
<clipPath id="clip0_2658_42907">
<rect width="20" height="25" fill="white" transform="translate(0.5)"/>
</clipPath>
</defs>
</svg>
