<svg width="20" height="20" viewBox="0 0 20 20" fill="none" xmlns="http://www.w3.org/2000/svg">
<path fill-rule="evenodd" clip-rule="evenodd" d="M12.3494 17.5312H2.375C1.95231 17.5312 1.54693 17.3633 1.24805 17.0645C0.949162 16.7656 0.78125 16.3602 0.78125 15.9375V4.66875C0.78125 4.135 0.993281 3.62311 1.3707 3.2457C1.74811 2.86828 2.26 2.65625 2.79375 2.65625H14.375C14.4993 2.65625 14.6185 2.70564 14.7065 2.79354C14.7944 2.88145 14.8438 3.00068 14.8438 3.125C14.8438 3.24932 14.7944 3.36855 14.7065 3.45646C14.6185 3.54436 14.4993 3.59375 14.375 3.59375H2.79375C2.2 3.59375 1.71875 4.075 1.71875 4.66875V5.06562C1.7185 5.20687 1.74614 5.34677 1.80008 5.4773C1.85401 5.60784 1.93319 5.72644 2.03306 5.82632C2.13293 5.92619 2.25154 6.00536 2.38207 6.0593C2.51261 6.11323 2.65251 6.14087 2.79375 6.14062H16.375C16.7977 6.14062 17.2031 6.30854 17.502 6.60742C17.8008 6.90631 17.9688 7.31169 17.9688 7.73438V11.615C17.3263 11.2629 16.6032 11.084 15.8706 11.0961C15.1381 11.1081 14.4212 11.3106 13.7907 11.6837C13.1601 12.0567 12.6375 12.5875 12.2742 13.2237C11.9109 13.86 11.7195 14.5798 11.7188 15.3125C11.7188 16.1263 11.9494 16.8862 12.3494 17.5312ZM17.9688 12.7362C18.73 13.3375 19.2188 14.2681 19.2188 15.3125C19.2184 16.1826 18.8726 17.017 18.2573 17.6323C17.642 18.2476 16.8076 18.5934 15.9375 18.5938C15.483 18.5942 15.0335 18.5 14.6175 18.317C14.2014 18.1341 13.8281 17.8665 13.5213 17.5312C12.9643 16.9267 12.6555 16.1345 12.6562 15.3125C12.6569 14.6967 12.8307 14.0935 13.1579 13.5718C13.485 13.0501 13.9524 12.6309 14.5065 12.3622C15.0605 12.0935 15.679 11.9861 16.2913 12.0523C16.9035 12.1184 17.4848 12.3554 17.9688 12.7362ZM15.9375 12.9688C14.6438 12.9688 13.5938 14.0188 13.5938 15.3125C13.5938 16.6062 14.6438 17.6562 15.9375 17.6562C17.2313 17.6562 18.2812 16.6062 18.2812 15.3125C18.2812 14.0188 17.2313 12.9688 15.9375 12.9688ZM3.75 5.46875C3.62568 5.46875 3.50645 5.41936 3.41854 5.33146C3.33064 5.24355 3.28125 5.12432 3.28125 5C3.28125 4.87568 3.33064 4.75645 3.41854 4.66854C3.50645 4.58064 3.62568 4.53125 3.75 4.53125H13.125C13.2493 4.53125 13.3685 4.58064 13.4565 4.66854C13.5444 4.75645 13.5938 4.87568 13.5938 5C13.5938 5.12432 13.5444 5.24355 13.4565 5.33146C13.3685 5.41936 13.2493 5.46875 13.125 5.46875H3.75Z" fill="#2A8FEA"/>
<path fill-rule="evenodd" clip-rule="evenodd" d="M15.4688 14.1074C15.4688 13.9831 15.5181 13.8639 15.606 13.776C15.694 13.6881 15.8132 13.6387 15.9375 13.6387C16.0618 13.6387 16.181 13.6881 16.269 13.776C16.3569 13.8639 16.4062 13.9831 16.4062 14.1074V16.5187C16.4062 16.643 16.3569 16.7622 16.269 16.8501C16.181 16.938 16.0618 16.9874 15.9375 16.9874C15.8132 16.9874 15.694 16.938 15.606 16.8501C15.5181 16.7622 15.4688 16.643 15.4688 16.5187V14.1074Z" fill="#2A8FEA"/>
<path fill-rule="evenodd" clip-rule="evenodd" d="M15.0641 15.6439C14.9757 15.7293 14.8573 15.7766 14.7344 15.7756C14.6115 15.7746 14.4939 15.7254 14.407 15.6385C14.32 15.5516 14.2707 15.4341 14.2696 15.3112C14.2684 15.1883 14.3156 15.0699 14.401 14.9814L15.6066 13.7758C15.6945 13.6879 15.8138 13.6386 15.9381 13.6387C16.0624 13.6387 16.1815 13.6882 16.2694 13.7761C16.3573 13.864 16.4066 13.9833 16.4065 14.1076C16.4065 14.2319 16.357 14.3511 16.2691 14.4389L15.0641 15.6439Z" fill="#2A8FEA"/>
<path fill-rule="evenodd" clip-rule="evenodd" d="M17.4745 14.9816C17.518 15.0251 17.5525 15.0768 17.576 15.1337C17.5995 15.1906 17.6116 15.2515 17.6116 15.3131C17.6116 15.3746 17.5994 15.4355 17.5758 15.4924C17.5522 15.5493 17.5177 15.6009 17.4742 15.6444C17.4306 15.6879 17.3789 15.7224 17.3221 15.7459C17.2652 15.7695 17.2042 15.7815 17.1427 15.7815C17.0811 15.7815 17.0202 15.7693 16.9634 15.7458C16.9065 15.7222 16.8548 15.6876 16.8113 15.6441L15.6063 14.4391C15.5209 14.3507 15.4736 14.2323 15.4746 14.1094C15.4756 13.9865 15.5249 13.8689 15.6117 13.782C15.6986 13.695 15.8162 13.6457 15.9391 13.6446C16.062 13.6434 16.1804 13.6906 16.2688 13.776L17.4745 14.9816Z" fill="#2A8FEA"/>
</svg>
