<svg width="78" height="78" viewBox="0 0 78 78" fill="none" xmlns="http://www.w3.org/2000/svg">
<circle cx="39" cy="39" r="39" fill="#E6F3FF"/>
<g clip-path="url(#clip0_4019_18353)">
<path d="M33.9955 22.0049C41.6578 21.7816 47.671 28.5184 46.6334 36.1047C46.3685 38.0367 45.586 39.871 44.5204 41.4845L56.5553 53.5413C58.0287 55.6038 55.5421 58.046 53.5108 56.5241L41.5174 44.5319C39.8353 45.5669 38.0872 46.3602 36.106 46.6311C27.6356 47.7893 20.5445 40.264 22.2572 31.871C23.3875 26.3265 28.3253 22.1709 33.9955 22.0049ZM45.901 34.3778C45.901 28.0144 40.7411 22.8568 34.3775 22.8568C28.014 22.8568 22.8529 28.0156 22.8529 34.3778C22.8529 40.74 28.0128 45.8988 34.3763 45.8988C40.7398 45.8988 45.8997 40.74 45.8997 34.3778H45.901ZM44.0174 42.1521L42.1522 44.0169L42.7967 44.6613L44.662 42.7965L44.0174 42.1521ZM46.1939 44.3428C45.8949 44.0486 45.5335 43.7875 45.3016 43.4348L45.1527 43.4103C44.6681 43.984 44.1309 44.5063 43.5914 45.0274C43.5413 45.075 43.4217 45.1129 43.4156 45.1239C43.3106 45.3033 43.6439 45.4375 43.7464 45.54C46.5919 48.3995 49.419 51.2566 52.2889 54.0844C52.7247 54.514 53.9698 55.9297 54.441 56.0823C55.6251 56.4679 56.6444 55.1279 55.9193 54.1161C55.5091 53.5437 54.5826 52.7883 54.0565 52.2562C51.4454 49.6163 48.8441 46.9545 46.1939 44.3428Z" fill="#2A8FEA"/>
<path d="M29.0936 34.5584C29.0289 34.5449 28.9093 34.4253 28.8483 34.3765C28.5529 34.1446 27.4652 33.0767 27.2601 32.7911C26.9623 32.3762 27.2467 31.9295 27.724 32.0833C28.0951 32.2029 29.0277 33.4661 29.4306 33.7333L30.528 33.7651C30.4401 33.0157 30.7221 32.4445 31.3727 32.0772C31.3483 31.1802 31.5656 30.371 32.1747 29.7059C32.4518 29.4032 32.768 29.2348 33.0719 28.9772C32.9535 28.5086 32.6239 28.1486 32.1539 28.0204C31.8646 27.9423 31.4118 28.0119 31.3825 27.5676C31.3397 26.9061 32.3139 27.1563 32.6801 27.3113C33.2684 27.5603 33.7213 28.1095 33.8776 28.7258L34.8505 28.7515C35.0641 28.0229 35.5963 27.4309 36.3373 27.2174C36.6742 27.1209 37.3993 26.994 37.3627 27.5676C37.3309 28.0497 36.7621 27.9411 36.4484 28.0607C36.0858 28.1998 35.766 28.605 35.6732 28.9772C35.6818 29.0505 36.1823 29.3422 36.2921 29.4349C37.0856 30.1037 37.4066 31.0483 37.3712 32.0784C38.0402 32.4567 38.3051 32.9925 38.216 33.7663H39.2841C39.4 33.7663 40.6818 32.2688 40.9393 32.1272C41.3922 31.8844 41.8195 32.3213 41.5119 32.7606C41.3092 33.0487 40.1935 34.1458 39.8956 34.379C39.8432 34.4204 39.6918 34.5608 39.6503 34.5608H38.216V35.4761H39.6503C39.776 35.4761 41.3178 37.0298 41.4508 37.2153C41.8134 37.7218 41.5729 38.0842 40.9638 37.9463C40.7135 37.7913 39.4025 36.2694 39.2841 36.2694H38.216V37.3983C38.216 37.4972 39.3634 38.3576 39.433 38.8055C39.4977 39.2241 39.4916 40.7472 39.4318 41.1756C39.3439 41.8054 38.6615 41.7151 38.5846 41.3013C38.4625 40.6521 38.6823 39.683 38.5712 38.9959L38.0658 38.5248C36.9916 42.0617 32.4799 42.5108 30.882 39.0557C30.8161 38.9117 30.7904 38.7347 30.7233 38.6029C30.7013 38.5602 30.7172 38.4845 30.6195 38.526C30.5939 38.537 30.2362 38.8885 30.2191 38.919C30.0092 39.2852 30.2667 40.8388 30.1483 41.3501C29.8248 41.8286 29.3695 41.6809 29.306 41.1183C29.2584 40.6996 29.2426 39.1302 29.3195 38.7518C29.3964 38.3735 30.5267 37.4862 30.5267 37.3959V36.267H29.4586C29.3402 36.267 28.0292 37.7889 27.7789 37.9439C27.3663 38.133 26.9464 37.7523 27.204 37.369L29.0924 35.4737H30.5267V34.5584H29.0924H29.0936ZM36.5094 32.0564C36.7218 28.7734 32.0307 28.7856 32.237 32.0564H36.5094ZM34.8004 40.5385C36.2506 40.3323 37.2589 39.0667 37.3663 37.6424C37.4738 36.2035 37.3029 34.6047 37.337 33.1512C37.2785 32.9889 37.1356 32.9144 36.9684 32.9095C35.3143 33.0243 33.4674 32.7619 31.8378 32.9083C31.5424 32.9352 31.4179 32.9901 31.3812 33.3062C31.4667 34.7158 31.2714 36.2487 31.3812 37.6424C31.4911 39.0459 32.5153 40.3469 33.9472 40.5385V37.4569C33.9472 37.4435 34.0973 37.2482 34.112 37.2397C34.3231 37.1128 34.8016 37.2141 34.8016 37.4569V40.5385H34.8004Z" fill="#2A8FEA"/>
<path d="M30.2085 24.5641C30.6406 24.4774 30.9605 24.9046 30.6528 25.2536C27.4009 26.6669 25.0522 29.6399 24.6165 33.1926C24.5774 33.5124 24.5994 34.5559 24.4236 34.7084C24.0696 35.0148 23.6863 34.6499 23.6875 34.2227C23.696 30.5894 25.875 26.9818 28.9841 25.1731C29.2173 25.0376 29.9924 24.6068 30.2073 24.5641H30.2085Z" fill="#2A8FEA"/>
<path d="M31.6442 24.7156C31.3256 24.3214 31.6991 24.0663 32.0519 23.9699C32.5988 23.821 33.6583 23.6807 34.2186 23.6904C34.8986 23.7026 34.9791 24.43 34.5116 24.5362C34.1967 24.6082 33.6156 24.5716 33.2506 24.618C32.9186 24.6607 32.2118 24.8645 31.9591 24.8572C31.8712 24.8547 31.6955 24.7778 31.6442 24.7144V24.7156Z" fill="#2A8FEA"/>
<path d="M36.3735 33.8445C36.531 33.9714 36.5652 34.2777 36.4187 34.4339L34.6548 36.2097C34.4375 36.3354 34.2348 36.2793 34.0407 36.1462C33.7832 35.968 32.5942 34.7671 32.3916 34.4998C32.0571 34.058 32.3965 33.5967 32.8957 33.8127C33.1826 33.936 34.2348 35.2553 34.3984 35.226C34.8305 34.9465 35.4128 34.0458 35.8181 33.8347C35.9841 33.748 36.2173 33.7188 36.3723 33.8457L36.3735 33.8445Z" fill="#2A8FEA"/>
</g>
<defs>
<clipPath id="clip0_4019_18353">
<rect width="35" height="35" fill="white" transform="translate(22 22)"/>
</clipPath>
</defs>
</svg>
