<svg width="25" height="25" viewBox="0 0 25 25" fill="none" xmlns="http://www.w3.org/2000/svg">
<path d="M14.0253 4.73837C14.0508 4.64318 14.0947 4.55395 14.1547 4.47576C14.2147 4.39758 14.2894 4.33197 14.3747 4.28269C14.4601 4.23342 14.5543 4.20143 14.6519 4.18857C14.7496 4.17571 14.8489 4.18223 14.9441 4.20774C16.3344 4.5705 17.603 5.29734 18.619 6.3134C19.6351 7.32945 20.3619 8.59799 20.7247 9.98837C20.7502 10.0835 20.7567 10.1828 20.7439 10.2805C20.731 10.3782 20.699 10.4724 20.6497 10.5577C20.6005 10.643 20.5349 10.7178 20.4567 10.7777C20.3785 10.8377 20.2892 10.8817 20.1941 10.9071C20.1307 10.9238 20.0655 10.9323 20 10.9324C19.8349 10.9325 19.6743 10.878 19.5433 10.7775C19.4122 10.677 19.318 10.536 19.2753 10.3765C18.9796 9.24131 18.3865 8.20554 17.5571 7.37597C16.7277 6.5464 15.692 5.95306 14.5569 5.65711C14.4616 5.63176 14.3723 5.58787 14.294 5.52795C14.2157 5.46804 14.15 5.39328 14.1006 5.30795C14.0512 5.22261 14.0192 5.12839 14.0063 5.03065C13.9933 4.93292 13.9998 4.83359 14.0253 4.73837ZM13.8069 8.65712C15.0997 9.00212 15.9303 9.83368 16.2753 11.1265C16.318 11.286 16.4122 11.427 16.5433 11.5275C16.6743 11.628 16.8349 11.6825 17 11.6824C17.0655 11.6823 17.1307 11.6738 17.1941 11.6571C17.2892 11.6317 17.3785 11.5877 17.4567 11.5277C17.5349 11.4678 17.6005 11.393 17.6497 11.3077C17.699 11.2224 17.731 11.1282 17.7439 11.0305C17.7567 10.9328 17.7502 10.8335 17.7247 10.7384C17.2447 8.94212 15.9903 7.68774 14.1941 7.20774C14.0019 7.1564 13.7971 7.18351 13.6249 7.2831C13.4527 7.3827 13.3271 7.54663 13.2758 7.73883C13.2244 7.93103 13.2515 8.13576 13.3511 8.30797C13.4507 8.48018 13.6147 8.60577 13.8069 8.65712ZM20.5972 16.0381L16.1806 14.059L16.1684 14.0534C15.9392 13.9553 15.689 13.9159 15.4407 13.9389C15.1924 13.9618 14.9537 14.0462 14.7463 14.1846C14.7218 14.2007 14.6983 14.2183 14.6759 14.2371L12.3941 16.1824C10.9484 15.4802 9.45594 13.999 8.75375 12.5721L10.7019 10.2556C10.7206 10.2321 10.7384 10.2087 10.7553 10.1834C10.8907 9.97646 10.9729 9.73929 10.9945 9.49296C11.016 9.24664 10.9764 8.99879 10.8791 8.77149V8.76024L8.89438 4.33618C8.76569 4.03924 8.54443 3.79188 8.26361 3.63103C7.9828 3.47017 7.65749 3.40445 7.33625 3.44368C6.06591 3.61084 4.89986 4.23471 4.05588 5.19877C3.2119 6.16282 2.7477 7.40114 2.75 8.68243C2.75 16.1262 8.80625 22.1824 16.25 22.1824C17.5313 22.1847 18.7696 21.7205 19.7337 20.8766C20.6977 20.0326 21.3216 18.8665 21.4888 17.5962C21.528 17.275 21.4625 16.9498 21.3018 16.669C21.1411 16.3882 20.894 16.1669 20.5972 16.0381Z" fill="#7E7E7E"/>
</svg>
