<svg width="24" height="24" viewBox="0 0 24 24" fill="none" xmlns="http://www.w3.org/2000/svg">
<path fill-rule="evenodd" clip-rule="evenodd" d="M5.46154 2.24995L5.52691 2.24997L5.58711 2.24995C5.91925 2.24981 6.17758 2.24969 6.41628 2.29181C7.31569 2.45054 8.07763 3.04544 8.44975 3.8795C8.54851 4.10085 8.61105 4.35149 8.69146 4.67374L8.69146 4.67375L8.69147 4.67376L8.70605 4.73217L9.11967 6.38664L9.12872 6.42284L9.12872 6.42285C9.26881 6.98312 9.3877 7.45863 9.44488 7.86149C9.50576 8.29039 9.50752 8.70014 9.37061 9.12066C9.23371 9.54117 8.99105 9.87135 8.68934 10.1822C8.40593 10.4742 8.02987 10.7886 7.58678 11.159L7.55817 11.1829L5.94594 12.5308C7.24925 14.8902 9.10973 16.7506 11.4691 18.0539L12.817 16.4417L12.8409 16.4131C13.2113 15.97 13.5257 15.594 13.8177 15.3106C14.1285 15.0088 14.4587 14.7662 14.8792 14.6293C15.2998 14.4924 15.7095 14.4941 16.1384 14.555C16.5412 14.6122 17.0167 14.7311 17.577 14.8711L17.577 14.8712L17.5771 14.8712L17.6132 14.8802L19.2677 15.2938L19.3261 15.3084L19.3261 15.3084C19.6484 15.3888 19.899 15.4514 20.1204 15.5501C20.9545 15.9223 21.5494 16.6842 21.7081 17.5836C21.7502 17.8223 21.7501 18.0806 21.7499 18.4128L21.7499 18.473L21.7499 18.5384C21.7501 18.9214 21.7503 19.2236 21.6838 19.5214C21.4417 20.6054 20.4383 21.5156 19.336 21.6513C19.0336 21.6886 18.7737 21.6631 18.4506 21.6314L18.4505 21.6314L18.4505 21.6314L18.4037 21.6268C15.764 21.3693 13.3883 20.7098 11.3191 19.6701C8.24492 18.1255 5.87438 15.755 4.32976 12.6808C3.29005 10.6116 2.6306 8.23588 2.37306 5.59622L2.36848 5.54944C2.33679 5.2262 2.31132 4.96634 2.34855 4.66393C2.48427 3.56157 3.39448 2.55823 4.47845 2.31611C4.7763 2.24958 5.07852 2.24974 5.46154 2.24995ZM12.8576 18.7318C14.538 19.4519 16.4398 19.9281 18.5493 20.1339C18.9358 20.1716 19.0315 20.1775 19.1527 20.1626C19.6254 20.1044 20.116 19.6593 20.2199 19.1944C20.2458 19.0783 20.2499 18.9514 20.2499 18.473C20.2499 18.0523 20.2471 17.9363 20.2309 17.8443C20.1588 17.4355 19.8883 17.0891 19.5092 16.92C19.4239 16.8819 19.312 16.8511 18.9039 16.7491L17.2494 16.3354C16.6432 16.1839 16.2439 16.085 15.9276 16.0401C15.6287 15.9977 15.4696 16.0145 15.3436 16.0556C15.2175 16.0966 15.079 16.1767 14.8624 16.3869C14.6332 16.6094 14.3686 16.9244 13.9678 17.4038L12.8576 18.7318ZM5.2681 11.1423L6.59606 10.0321C7.07547 9.6313 7.39051 9.36668 7.61297 9.13748C7.82321 8.92087 7.90326 8.78235 7.9443 8.65629C7.98534 8.53024 8.00219 8.37115 7.95977 8.07228C7.91488 7.75603 7.81601 7.35666 7.66446 6.75045L7.25084 5.09597C7.14882 4.6879 7.11796 4.57597 7.07991 4.49067C6.91076 4.11155 6.56442 3.84114 6.1556 3.76899C6.06362 3.75276 5.94754 3.74997 5.52691 3.74997C5.04848 3.74997 4.92154 3.7541 4.80545 3.78003C4.34055 3.88387 3.89552 4.37445 3.83731 4.84722C3.8224 4.96836 3.82826 5.06409 3.86597 5.45056C4.07179 7.5601 4.54795 9.46186 5.2681 11.1423ZM13.2498 6.99992C13.2498 6.5857 13.5856 6.24992 13.9998 6.24992C15.0263 6.24992 15.9338 6.88882 16.5473 7.5443C16.8909 7.91133 17.182 8.32415 17.3907 8.7304C17.5919 9.12192 17.7498 9.57157 17.7498 9.99992C17.7498 10.4141 17.414 10.7499 16.9998 10.7499C16.5856 10.7499 16.2498 10.4141 16.2498 9.99992C16.2498 9.90997 16.2061 9.70701 16.0566 9.41601C15.9146 9.13976 15.7057 8.84018 15.4522 8.56934C14.956 8.03916 14.4184 7.74992 13.9998 7.74992C13.5856 7.74992 13.2498 7.41413 13.2498 6.99992ZM13.9998 3.24992C13.5856 3.24992 13.2498 3.5857 13.2498 3.99992C13.2498 4.41413 13.5856 4.74992 13.9998 4.74992C16.8993 4.74992 19.2498 7.10042 19.2498 9.99992C19.2498 10.4141 19.5856 10.7499 19.9998 10.7499C20.414 10.7499 20.7498 10.4141 20.7498 9.99992C20.7498 6.27199 17.7277 3.24992 13.9998 3.24992Z" fill="#22282F"/>
</svg>
