<svg width="25" height="25" viewBox="0 0 25 25" fill="none" xmlns="http://www.w3.org/2000/svg">
<path d="M20 6.43237V18.4324C20 18.8302 19.842 19.2117 19.5607 19.493C19.2794 19.7743 18.8978 19.9324 18.5 19.9324H6.5C6.10218 19.9324 5.72064 19.7743 5.43934 19.493C5.15804 19.2117 5 18.8302 5 18.4324V6.43237C5 6.03455 5.15804 5.65302 5.43934 5.37171C5.72064 5.09041 6.10218 4.93237 6.5 4.93237H18.5C18.8978 4.93237 19.2794 5.09041 19.5607 5.37171C19.842 5.65302 20 6.03455 20 6.43237ZM22.25 4.93237C22.0511 4.93237 21.8603 5.01139 21.7197 5.15204C21.579 5.2927 21.5 5.48346 21.5 5.68237V19.1824C21.5 19.3813 21.579 19.5721 21.7197 19.7127C21.8603 19.8534 22.0511 19.9324 22.25 19.9324C22.4489 19.9324 22.6397 19.8534 22.7803 19.7127C22.921 19.5721 23 19.3813 23 19.1824V5.68237C23 5.48346 22.921 5.2927 22.7803 5.15204C22.6397 5.01139 22.4489 4.93237 22.25 4.93237ZM2.75 4.93237C2.55109 4.93237 2.36032 5.01139 2.21967 5.15204C2.07902 5.2927 2 5.48346 2 5.68237V19.1824C2 19.3813 2.07902 19.5721 2.21967 19.7127C2.36032 19.8534 2.55109 19.9324 2.75 19.9324C2.94891 19.9324 3.13968 19.8534 3.28033 19.7127C3.42098 19.5721 3.5 19.3813 3.5 19.1824V5.68237C3.5 5.48346 3.42098 5.2927 3.28033 5.15204C3.13968 5.01139 2.94891 4.93237 2.75 4.93237Z" fill="#7E7E7E"/>
</svg>
