<svg width="25" height="25" viewBox="0 0 25 25" fill="none" xmlns="http://www.w3.org/2000/svg">
<path d="M22.2566 17.9412C22.7748 16.8663 23.0291 15.6833 22.9983 14.4905C22.9675 13.2976 22.6525 12.1293 22.0795 11.0826C21.5065 10.0359 20.6921 9.14102 19.7038 8.47232C18.7155 7.80361 17.5819 7.38037 16.3972 7.23775C16.003 6.32121 15.4299 5.49254 14.7114 4.80027C13.993 4.10799 13.1436 3.56601 12.2131 3.20608C11.2826 2.84615 10.2896 2.6755 9.29228 2.70412C8.29498 2.73274 7.31342 2.96006 6.40506 3.37276C5.49671 3.78546 4.67983 4.37525 4.00226 5.10759C3.32469 5.83993 2.80005 6.7001 2.45905 7.63773C2.11806 8.57536 1.96758 9.5716 2.01641 10.5681C2.06524 11.5646 2.31241 12.5414 2.74344 13.4412L2.06188 15.7577C1.98567 16.0164 1.98058 16.2907 2.04713 16.552C2.11368 16.8132 2.24941 17.0517 2.44005 17.2424C2.63069 17.433 2.86918 17.5688 3.13045 17.6353C3.39171 17.7019 3.66608 17.6968 3.92469 17.6206L6.24125 16.939C6.98509 17.2964 7.78258 17.5292 8.60188 17.6281C8.99992 18.5607 9.58295 19.4029 10.3157 20.1038C11.0485 20.8047 11.9158 21.3498 12.8652 21.706C13.8146 22.0622 14.8263 22.2222 15.8393 22.1763C16.8523 22.1304 17.8455 21.8796 18.7588 21.439L21.0753 22.1206C21.3338 22.1967 21.6081 22.2017 21.8692 22.1352C22.1304 22.0687 22.3688 21.9331 22.5594 21.7426C22.75 21.5521 22.8857 21.3137 22.9524 21.0526C23.019 20.7915 23.0141 20.5172 22.9381 20.2587L22.2566 17.9412ZM20.7331 18.079L21.5 20.6824L18.8975 19.9165C18.7095 19.862 18.5076 19.8832 18.335 19.9756C16.9539 20.713 15.3394 20.8819 13.8356 20.4462C12.3318 20.0105 11.0576 19.0046 10.2847 17.6431C11.3116 17.5359 12.3053 17.2176 13.2034 16.7083C14.1015 16.199 14.8847 15.5095 15.5038 14.6832C16.1229 13.8569 16.5645 12.9116 16.801 11.9065C17.0375 10.9015 17.0638 9.85841 16.8781 8.84275C17.7729 9.05365 18.6072 9.46733 19.3167 10.0518C20.0262 10.6364 20.5919 11.3761 20.9701 12.2139C21.3484 13.0518 21.529 13.9653 21.4982 14.8841C21.4673 15.8028 21.2258 16.7022 20.7922 17.5127C20.6988 17.6864 20.6776 17.8898 20.7331 18.079Z" fill="white"/>
</svg>
