<svg width="328" height="328" viewBox="0 0 328 328" fill="none" xmlns="http://www.w3.org/2000/svg">
<path d="M327.841 163.614C327.841 253.984 254.46 327.227 163.92 327.227C73.3811 327.227 0 253.984 0 163.614C0 73.2437 73.3811 0 163.92 0C254.46 0 327.841 73.2437 327.841 163.614Z" fill="#2A8FEA"/>
<path d="M125.641 181.272H98.7795C89.4091 181.272 81.8086 173.686 81.8086 164.333V114.763H105.297V158.451H149.13V200.893C177.991 180.483 210.85 165.352 246.312 156.913C210.621 175.993 178.387 200.997 151.067 230.801C142.009 240.653 133.513 251.045 125.6 261.915V181.272H125.641Z" fill="white"/>
<path d="M246.312 84.5183V134.608C237.712 136.479 229.216 138.682 220.866 141.218V92.9982H81.8086V84.5183C81.8086 75.1653 89.4091 67.5791 98.7795 67.5791H229.341C238.712 67.5791 246.312 75.1653 246.312 84.5183Z" fill="white"/>
</svg>
