<svg width="21" height="21" viewBox="0 0 21 21" fill="none" xmlns="http://www.w3.org/2000/svg">
<path d="M20.2566 15.9411C20.7748 14.8662 21.0291 13.6832 20.9983 12.4903C20.9675 11.2975 20.6525 10.1292 20.0795 9.08248C19.5065 8.03578 18.6921 7.14092 17.7038 6.47221C16.7155 5.8035 15.5819 5.38026 14.3972 5.23764C14.003 4.32111 13.4299 3.49244 12.7114 2.80016C11.993 2.10788 11.1436 1.56591 10.2131 1.20598C9.28257 0.846047 8.28958 0.675395 7.29228 0.704014C6.29498 0.732634 5.31342 0.959949 4.40506 1.37265C3.49671 1.78535 2.67983 2.37514 2.00226 3.10748C1.32469 3.83982 0.800045 4.69999 0.459054 5.63762C0.118062 6.57525 -0.0324239 7.57149 0.016408 8.56801C0.0652398 9.56452 0.312408 10.5413 0.743439 11.4411L0.0618761 13.7576C-0.0143284 14.0163 -0.0194238 14.2906 0.0471259 14.5519C0.113676 14.8131 0.24941 15.0516 0.440049 15.2423C0.630689 15.4329 0.869185 15.5687 1.13045 15.6352C1.39171 15.7018 1.66608 15.6967 1.92469 15.6205L4.24125 14.9389C4.98509 15.2963 5.78258 15.5291 6.60188 15.628C6.99992 16.5606 7.58295 17.4028 8.31572 18.1037C9.0485 18.8046 9.91579 19.3497 10.8652 19.7059C11.8146 20.0621 12.8263 20.2221 13.8393 20.1762C14.8523 20.1303 15.8455 19.8795 16.7588 19.4389L19.0753 20.1205C19.3338 20.1966 19.6081 20.2016 19.8692 20.1351C20.1304 20.0686 20.3688 19.933 20.5594 19.7425C20.75 19.5519 20.8857 19.3136 20.9524 19.0525C21.019 18.7914 21.0141 18.5171 20.9381 18.2586L20.2566 15.9411ZM18.7331 16.0789L19.5 18.6823L16.8975 17.9164C16.7095 17.8619 16.5076 17.8831 16.335 17.9755C14.9539 18.7129 13.3394 18.8818 11.8356 18.4461C10.3318 18.0104 9.05761 17.0045 8.28469 15.643C9.31161 15.5358 10.3053 15.2175 11.2034 14.7082C12.1015 14.1988 12.8847 13.5094 13.5038 12.6831C14.1229 11.8568 14.5645 10.9115 14.801 9.90642C15.0375 8.90138 15.0638 7.85831 14.8781 6.84264C15.7729 7.05354 16.6072 7.46722 17.3167 8.05174C18.0262 8.63625 18.5919 9.37598 18.9701 10.2138C19.3484 11.0517 19.529 11.9652 19.4982 12.8839C19.4673 13.8027 19.2258 14.7021 18.7922 15.5126C18.6988 15.6863 18.6776 15.8897 18.7331 16.0789Z" fill="#2A8FEA"/>
</svg>
