<svg width="22" height="21" viewBox="0 0 22 21" fill="none" xmlns="http://www.w3.org/2000/svg">
<path d="M11.5626 -0.000488281C11.9841 0.132045 12.4329 0.128312 12.8798 0.232845C16.5198 1.07938 19.0939 4.51031 18.9462 8.21471C21.19 9.28058 21.7347 11.3162 21.4167 13.6495C21.2549 14.833 20.1946 16.1032 19.124 16.6016C18.6442 16.8256 17.7062 16.9096 17.4352 17.073C17.2649 17.1756 16.5273 18.1267 16.2215 18.389C15.5874 18.9331 14.8865 19.3186 14.1358 19.6798C13.9504 19.7684 13.5327 19.8496 13.4433 19.9262C13.3201 20.0307 13.1676 20.8819 12.6916 21.0004H9.96322C8.83518 20.6131 8.87752 18.3404 10.1025 18.1986C10.6086 18.1398 12.1525 18.1314 12.6389 18.206C13.0293 18.2667 13.1611 18.5327 13.305 18.8584L13.449 18.9116C14.9467 18.3479 16.182 17.2568 17.0184 15.9147V7.93471H17.9592C17.8642 3.56484 14.037 0.374712 9.66028 1.14845C6.4615 1.71405 3.94951 4.69698 4.03419 7.93471H4.97595V16.9871C2.97953 17.2102 0.797773 15.56 0.56445 13.5702C0.303844 11.3507 0.779898 9.25538 2.98518 8.29218C2.87322 4.62324 5.23843 1.28191 8.81354 0.306578L10.3386 -0.000488281H11.5617H11.5626Z" fill="white"/>
</svg>
