<svg width="20" height="21" viewBox="0 0 20 21" fill="none" xmlns="http://www.w3.org/2000/svg">
<path d="M13.5 8.93237C13.5 9.37738 13.368 9.8124 13.1208 10.1824C12.8736 10.5524 12.5222 10.8408 12.111 11.0111C11.6999 11.1814 11.2475 11.226 10.811 11.1391C10.3746 11.0523 9.97368 10.838 9.65901 10.5234C9.34434 10.2087 9.13005 9.80778 9.04323 9.37133C8.95642 8.93487 9.00097 8.48247 9.17127 8.07134C9.34157 7.6602 9.62996 7.3088 9.99997 7.06157C10.37 6.81433 10.805 6.68237 11.25 6.68237C11.8467 6.68237 12.419 6.91943 12.841 7.34138C13.2629 7.76334 13.5 8.33564 13.5 8.93237ZM19.5 2.18237V18.6824C19.5 19.0802 19.342 19.4617 19.0607 19.743C18.7794 20.0243 18.3978 20.1824 18 20.1824H4.5C4.10218 20.1824 3.72064 20.0243 3.43934 19.743C3.15804 19.4617 3 19.0802 3 18.6824V16.4324H1.5C1.30109 16.4324 1.11032 16.3534 0.96967 16.2127C0.829018 16.0721 0.75 15.8813 0.75 15.6824C0.75 15.4835 0.829018 15.2927 0.96967 15.152C1.11032 15.0114 1.30109 14.9324 1.5 14.9324H3V11.1824H1.5C1.30109 11.1824 1.11032 11.1034 0.96967 10.9627C0.829018 10.8221 0.75 10.6313 0.75 10.4324C0.75 10.2335 0.829018 10.0427 0.96967 9.90204C1.11032 9.76139 1.30109 9.68237 1.5 9.68237H3V5.93237H1.5C1.30109 5.93237 1.11032 5.85336 0.96967 5.7127C0.829018 5.57205 0.75 5.38129 0.75 5.18237C0.75 4.98346 0.829018 4.7927 0.96967 4.65204C1.11032 4.51139 1.30109 4.43237 1.5 4.43237H3V2.18237C3 1.78455 3.15804 1.40302 3.43934 1.12171C3.72064 0.840408 4.10218 0.682373 4.5 0.682373H18C18.3978 0.682373 18.7794 0.840408 19.0607 1.12171C19.342 1.40302 19.5 1.78455 19.5 2.18237ZM16.35 13.7324C15.6859 12.842 14.8003 12.1409 13.7812 11.6989C14.3397 11.1891 14.731 10.5223 14.9037 9.78606C15.0764 9.04985 15.0225 8.27861 14.7491 7.57358C14.4756 6.86855 13.9954 6.26265 13.3715 5.83541C12.7476 5.40817 12.009 5.17955 11.2528 5.17955C10.4966 5.17955 9.75808 5.40817 9.13413 5.83541C8.51019 6.26265 8.02999 6.86855 7.75655 7.57358C7.48311 8.27861 7.42922 9.04985 7.60194 9.78606C7.77466 10.5223 8.16592 11.1891 8.72437 11.6989C7.70328 12.1401 6.81566 12.8412 6.15 13.7324C6.09091 13.8112 6.04791 13.9008 6.02346 13.9962C5.99902 14.0916 5.99361 14.1909 6.00754 14.2884C6.02147 14.3859 6.05446 14.4797 6.10464 14.5645C6.15482 14.6492 6.22121 14.7233 6.3 14.7824C6.37879 14.8415 6.46845 14.8845 6.56386 14.9089C6.65927 14.9334 6.75856 14.9388 6.85607 14.9248C6.95357 14.9109 7.04737 14.8779 7.13212 14.8277C7.21687 14.7775 7.29091 14.7112 7.35 14.6324C7.80409 14.0269 8.39291 13.5355 9.06983 13.197C9.74675 12.8586 10.4932 12.6824 11.25 12.6824C12.0068 12.6824 12.7532 12.8586 13.4302 13.197C14.1071 13.5355 14.6959 14.0269 15.15 14.6324C15.2693 14.7915 15.447 14.8967 15.6439 14.9248C15.8408 14.953 16.0409 14.9017 16.2 14.7824C16.3591 14.663 16.4643 14.4854 16.4925 14.2884C16.5206 14.0915 16.4693 13.8915 16.35 13.7324Z" fill="#2A8FEA"/>
</svg>
