<svg width="25" height="25" viewBox="0 0 25 25" fill="none" xmlns="http://www.w3.org/2000/svg">
<path d="M15.5 10.9324C15.5 11.3774 15.368 11.8124 15.1208 12.1824C14.8736 12.5524 14.5222 12.8408 14.111 13.0111C13.6999 13.1814 13.2475 13.226 12.811 13.1391C12.3746 13.0523 11.9737 12.838 11.659 12.5234C11.3443 12.2087 11.13 11.8078 11.0432 11.3713C10.9564 10.9349 11.001 10.4825 11.1713 10.0713C11.3416 9.6602 11.63 9.3088 12 9.06157C12.37 8.81433 12.805 8.68237 13.25 8.68237C13.8467 8.68237 14.419 8.91943 14.841 9.34138C15.2629 9.76334 15.5 10.3356 15.5 10.9324ZM21.5 4.18237V20.6824C21.5 21.0802 21.342 21.4617 21.0607 21.743C20.7794 22.0243 20.3978 22.1824 20 22.1824H6.5C6.10218 22.1824 5.72064 22.0243 5.43934 21.743C5.15804 21.4617 5 21.0802 5 20.6824V18.4324H3.5C3.30109 18.4324 3.11032 18.3534 2.96967 18.2127C2.82902 18.0721 2.75 17.8813 2.75 17.6824C2.75 17.4835 2.82902 17.2927 2.96967 17.152C3.11032 17.0114 3.30109 16.9324 3.5 16.9324H5V13.1824H3.5C3.30109 13.1824 3.11032 13.1034 2.96967 12.9627C2.82902 12.8221 2.75 12.6313 2.75 12.4324C2.75 12.2335 2.82902 12.0427 2.96967 11.902C3.11032 11.7614 3.30109 11.6824 3.5 11.6824H5V7.93237H3.5C3.30109 7.93237 3.11032 7.85336 2.96967 7.7127C2.82902 7.57205 2.75 7.38129 2.75 7.18237C2.75 6.98346 2.82902 6.7927 2.96967 6.65204C3.11032 6.51139 3.30109 6.43237 3.5 6.43237H5V4.18237C5 3.78455 5.15804 3.40302 5.43934 3.12171C5.72064 2.84041 6.10218 2.68237 6.5 2.68237H20C20.3978 2.68237 20.7794 2.84041 21.0607 3.12171C21.342 3.40302 21.5 3.78455 21.5 4.18237ZM18.35 15.7324C17.6859 14.842 16.8003 14.1409 15.7812 13.6989C16.3397 13.1891 16.731 12.5223 16.9037 11.7861C17.0764 11.0498 17.0225 10.2786 16.7491 9.57358C16.4756 8.86855 15.9954 8.26265 15.3715 7.83541C14.7476 7.40817 14.009 7.17955 13.2528 7.17955C12.4966 7.17955 11.7581 7.40817 11.1341 7.83541C10.5102 8.26265 10.03 8.86855 9.75655 9.57358C9.48311 10.2786 9.42922 11.0498 9.60194 11.7861C9.77466 12.5223 10.1659 13.1891 10.7244 13.6989C9.70328 14.1401 8.81566 14.8412 8.15 15.7324C8.09091 15.8112 8.04791 15.9008 8.02346 15.9962C7.99902 16.0916 7.99361 16.1909 8.00754 16.2884C8.02147 16.3859 8.05446 16.4797 8.10464 16.5645C8.15482 16.6492 8.22121 16.7233 8.3 16.7824C8.37879 16.8415 8.46845 16.8845 8.56386 16.9089C8.65927 16.9334 8.75856 16.9388 8.85607 16.9248C8.95357 16.9109 9.04737 16.8779 9.13212 16.8277C9.21687 16.7775 9.29091 16.7112 9.35 16.6324C9.80409 16.0269 10.3929 15.5355 11.0698 15.197C11.7468 14.8586 12.4932 14.6824 13.25 14.6824C14.0068 14.6824 14.7532 14.8586 15.4302 15.197C16.1071 15.5355 16.6959 16.0269 17.15 16.6324C17.2693 16.7915 17.447 16.8967 17.6439 16.9248C17.8408 16.953 18.0409 16.9017 18.2 16.7824C18.3591 16.663 18.4643 16.4854 18.4925 16.2884C18.5206 16.0915 18.4693 15.8915 18.35 15.7324Z" fill="white"/>
</svg>
