<svg width="110" height="64" viewBox="0 0 110 64" fill="none" xmlns="http://www.w3.org/2000/svg">
<path d="M46.1618 25.3837H40.1642C38.072 25.3837 36.375 23.6898 36.375 21.6016V10.5337H41.6194V20.2883H51.4062V29.7644C57.8502 25.2073 65.1868 21.8289 73.1046 19.9449C65.1357 24.2049 57.9385 29.7876 51.8386 36.4422C49.8162 38.6419 47.9193 40.9622 46.1525 43.3892V25.3837H46.1618Z" fill="#2A8FEA"/>
<path d="M73.1046 3.7821V14.966C71.1844 15.3836 69.2875 15.8755 67.4231 16.4417V5.67547H36.375V3.7821C36.375 1.69382 38.072 0 40.1642 0H69.3154C71.4076 0 73.1046 1.69382 73.1046 3.7821Z" fill="#2A8FEA"/>
<path d="M5.11826 63.8876L0.914062 47.7723H2.79936L6.02796 60.903H6.17462L9.46486 47.7723H11.5776L14.8487 60.903H15.0145L18.224 47.7723H20.1284L15.9051 63.8876H13.9794L10.5829 51.0611H10.4596L7.06307 63.8876H5.11826Z" fill="white"/>
<path d="M24.1006 63.8828C23.3661 63.8828 22.6956 63.7377 22.0934 63.4499C21.4913 63.1598 21.0108 62.7423 20.6585 62.1929C20.3061 61.6435 20.1289 60.9798 20.1289 60.2019C20.1289 59.5163 20.2613 58.9625 20.5239 58.5384C20.7866 58.1142 21.1389 57.778 21.5788 57.5319C22.0187 57.2858 22.5034 57.1034 23.0351 56.9803C23.5668 56.8594 24.1006 56.7627 24.6409 56.6924C25.3477 56.6001 25.9221 56.5276 26.3619 56.4771C26.8018 56.4265 27.1243 56.343 27.3293 56.22C27.5342 56.0991 27.6367 55.8925 27.6367 55.598V55.5343C27.6367 54.7696 27.4339 54.1762 27.0282 53.7521C26.6225 53.328 26.0075 53.1148 25.1832 53.1148C24.359 53.1148 23.6714 53.306 23.1867 53.6884C22.702 54.0708 22.3625 54.4795 22.1682 54.9146L20.462 54.2949C20.7674 53.5675 21.1752 53.0006 21.6834 52.594C22.1938 52.1875 22.7468 51.9018 23.3469 51.737C23.9469 51.5722 24.5384 51.4908 25.1192 51.4908C25.4929 51.4908 25.9242 51.5348 26.4089 51.6249C26.8936 51.715 27.3677 51.8996 27.8289 52.1809C28.2902 52.4622 28.6724 52.8863 28.9735 53.4554C29.2745 54.0224 29.4262 54.7806 29.4262 55.7299V63.6081H27.6367V61.9819H27.5535C27.436 62.239 27.2353 62.5159 26.9492 62.8104C26.6652 63.107 26.2893 63.3598 25.8217 63.5707C25.3541 63.7817 24.7797 63.8872 24.1006 63.8872M24.3718 62.2346C25.0786 62.2346 25.6765 62.0918 26.1612 61.8061C26.6459 61.5204 27.0132 61.1512 27.2631 60.6985C27.5129 60.2459 27.6367 59.7734 27.6367 59.2811V57.5912C27.5599 57.6835 27.3955 57.767 27.1435 57.8417C26.8894 57.9165 26.599 57.9824 26.2701 58.0395C25.9413 58.0967 25.621 58.145 25.3071 58.1846C24.9953 58.2241 24.7455 58.2549 24.5576 58.2747C24.0921 58.3384 23.6586 58.4417 23.2572 58.5801C22.8557 58.7186 22.5312 58.9251 22.2856 59.1954C22.04 59.4679 21.9162 59.8371 21.9162 60.3096C21.9162 60.9447 22.1468 61.4237 22.608 61.749C23.0693 62.0742 23.6565 62.2368 24.3718 62.2368" fill="white"/>
<path d="M40.3688 54.3444L38.7038 54.7958C38.5462 54.3885 38.2731 54.0009 37.8868 53.6332C37.5005 53.2655 36.9012 53.0806 36.0864 53.0806C35.3516 53.0806 34.7389 53.2501 34.2483 53.5892C33.7577 53.9283 33.5135 54.3532 33.5135 54.8597C33.5135 55.3176 33.6822 55.6809 34.0152 55.954C34.3504 56.2248 34.8743 56.4472 35.5891 56.6189L37.3851 57.0483C38.4596 57.3059 39.261 57.7022 39.7916 58.2373C40.3221 58.7745 40.5863 59.4571 40.5863 60.285C40.5863 60.9719 40.3887 61.5863 39.9914 62.1301C39.594 62.674 39.0434 63.1033 38.3375 63.416C37.6315 63.7308 36.8101 63.8872 35.8733 63.8872C34.6412 63.8872 33.6223 63.6186 32.8186 63.0835C32.015 62.5463 31.5044 61.7712 31.2891 60.7562L33.0406 60.3268C33.2071 60.9697 33.5246 61.4519 33.9974 61.7756C34.4703 62.0971 35.0874 62.2578 35.8511 62.2578C36.708 62.2578 37.394 62.0751 37.9112 61.7052C38.4263 61.3375 38.6838 60.8993 38.6838 60.3907C38.6838 59.5474 38.0844 58.9815 36.8878 58.6952L34.8765 58.2241C33.7666 57.9598 32.9518 57.5569 32.4323 57.013C31.9129 56.4692 31.6531 55.7866 31.6531 54.9653C31.6531 54.2872 31.8463 53.6861 32.2326 53.1642C32.6188 52.6424 33.1472 52.2329 33.8176 51.9356C34.488 51.6384 35.2451 51.4908 36.0886 51.4908C37.2919 51.4908 38.2354 51.7529 38.9169 52.2791C39.5984 52.8053 40.0824 53.4923 40.371 54.3444" fill="white"/>
<path d="M45.4396 63.8828C44.6561 63.8828 43.9432 63.7377 43.2986 63.4499C42.654 63.1598 42.1438 62.7423 41.768 62.1929C41.3922 61.6435 41.2031 60.9798 41.2031 60.2019C41.2031 59.5163 41.3443 58.9625 41.6245 58.5384C41.9046 58.1142 42.2805 57.778 42.7497 57.5319C43.2189 57.2858 43.7382 57.1034 44.3031 56.9803C44.8679 56.8594 45.4396 56.7627 46.0182 56.6924C46.7721 56.6001 47.3848 56.5276 47.854 56.4771C48.3232 56.4265 48.6671 56.343 48.8858 56.22C49.1044 56.0991 49.2138 55.8925 49.2138 55.598V55.5343C49.2138 54.7696 48.9974 54.1762 48.5646 53.7521C48.1319 53.328 47.4759 53.1148 46.5944 53.1148C45.713 53.1148 44.9818 53.306 44.4648 53.6884C43.9477 54.0708 43.5856 54.4795 43.3783 54.9146L41.5584 54.2949C41.8842 53.5675 42.3192 53.0006 42.8613 52.594C43.4034 52.1875 43.9956 51.9018 44.6356 51.737C45.2756 51.5722 45.9066 51.4908 46.5261 51.4908C46.9247 51.4908 47.3848 51.5348 47.9018 51.6249C48.4188 51.715 48.9245 51.8996 49.4165 52.1809C49.9085 52.4622 50.3139 52.8863 50.6373 53.4554C50.9585 54.0224 51.1202 54.7806 51.1202 55.7299V63.6081H49.2115V61.9819H49.1227C48.9974 62.239 48.7833 62.5159 48.4781 62.8104C48.1751 63.107 47.7743 63.3598 47.2732 63.5707C46.7744 63.7817 46.1617 63.8872 45.4374 63.8872M45.7289 62.2346C46.4828 62.2346 47.1206 62.0918 47.6376 61.8061C48.1546 61.5204 48.5464 61.1512 48.8129 60.6985C49.0794 60.2459 49.2115 59.7734 49.2115 59.2811V57.5912C49.1295 57.6835 48.9541 57.767 48.6853 57.8417C48.4143 57.9165 48.1045 57.9824 47.7538 58.0395C47.403 58.0967 47.0591 58.145 46.7265 58.1846C46.394 58.2241 46.1275 58.2549 45.9271 58.2747C45.4305 58.3384 44.9681 58.4417 44.5399 58.5801C44.1117 58.7186 43.7655 58.9251 43.5036 59.1954C43.2417 59.4679 43.1096 59.8371 43.1096 60.3096C43.1096 60.9447 43.3555 61.4237 43.8475 61.749C44.3395 62.0742 44.9659 62.2368 45.7289 62.2368" fill="white"/>
<path d="M56.9474 63.8828C56.213 63.8828 55.5448 63.7377 54.9406 63.4499C54.3386 63.1598 53.8583 62.7423 53.506 62.1929C53.1516 61.6435 52.9766 60.9798 52.9766 60.2019C52.9766 59.5163 53.1068 58.9625 53.3715 58.5384C53.6362 58.1142 53.9863 57.778 54.4261 57.5319C54.8659 57.2858 55.3505 57.1034 55.8821 56.9803C56.4137 56.8594 56.9474 56.7627 57.4896 56.6924C58.1963 56.6001 58.7705 56.5276 59.2103 56.4771C59.6501 56.4265 59.9724 56.343 60.1774 56.22C60.3823 56.0991 60.4848 55.8925 60.4848 55.598V55.5343C60.4848 54.7696 60.282 54.1762 59.8764 53.7521C59.4708 53.328 58.8559 53.1148 58.0319 53.1148C57.2078 53.1148 56.5204 53.306 56.0358 53.6884C55.5512 54.0708 55.2117 54.4795 55.0175 54.9146L53.3117 54.2949C53.617 53.5675 54.0248 53.0006 54.5329 52.594C55.0431 52.1875 55.596 51.9018 56.1959 51.737C56.7958 51.5722 57.3872 51.4908 57.9678 51.4908C58.3436 51.4908 58.7727 51.5348 59.2573 51.6249C59.7419 51.715 60.2158 51.8996 60.6769 52.1809C61.1381 52.4622 61.5181 52.8863 61.8212 53.4554C62.1222 54.0224 62.2738 54.7806 62.2738 55.7299V63.6081H60.4848V61.9819H60.4015C60.2841 62.239 60.0835 62.5159 59.7974 62.8104C59.5135 63.107 59.1377 63.3598 58.6702 63.5707C58.2027 63.7817 57.6284 63.8872 56.9495 63.8872M57.2185 62.2346C57.9251 62.2346 58.5208 62.0918 59.0075 61.8061C59.4921 61.5204 59.8593 61.1512 60.1091 60.6985C60.3589 60.2459 60.4827 59.7734 60.4827 59.2811V57.5912C60.4058 57.6835 60.2414 57.767 59.9895 57.8417C59.7376 57.9165 59.4451 57.9824 59.1164 58.0395C58.7876 58.0967 58.4674 58.145 58.1557 58.1846C57.844 58.2241 57.5942 58.2549 57.4064 58.2747C56.941 58.3384 56.5076 58.4417 56.1062 58.5801C55.7049 58.7186 55.3804 58.9251 55.1349 59.1954C54.8894 59.4679 54.7656 59.8371 54.7656 60.3096C54.7656 60.9447 54.9961 61.4237 55.4573 61.749C55.9184 62.0742 56.5055 62.2368 57.2206 62.2368" fill="white"/>
<path d="M71.2257 63.8855C69.8685 63.8855 68.6543 63.5655 67.5831 62.9277C66.5118 62.2898 65.671 61.3687 65.0565 60.1686C64.444 58.9686 64.1367 57.5242 64.1367 55.8398C64.1367 54.1554 64.4461 52.7002 65.0671 51.4959C65.6881 50.2915 66.5331 49.3704 67.6023 48.7303C68.6735 48.0925 69.8813 47.7725 71.2236 47.7725C72.075 47.7725 72.8753 47.8957 73.62 48.1422C74.3648 48.3887 75.0284 48.7476 75.611 49.2212C76.1936 49.6947 76.6694 50.2742 77.0407 50.9596C77.4099 51.645 77.6553 52.4213 77.7727 53.2927H74.9452C74.8684 52.8148 74.7211 52.3932 74.5035 52.0278C74.2858 51.6623 74.0148 51.3531 73.6926 51.0958C73.3703 50.8407 73.0033 50.6461 72.5957 50.5164C72.1881 50.3866 71.7464 50.3218 71.2769 50.3218C70.4319 50.3218 69.6829 50.5337 69.032 50.9596C68.3812 51.3856 67.8711 52.0105 67.5041 52.8343C67.1371 53.6603 66.9535 54.6614 66.9535 55.8398C66.9535 57.0182 67.1371 58.0388 67.5084 58.8561C67.8797 59.6735 68.3876 60.2919 69.0363 60.7092C69.6829 61.1265 70.4276 61.3362 71.2641 61.3362C71.7293 61.3362 72.1625 61.2757 72.5637 61.1524C72.9649 61.0292 73.3298 60.8432 73.6606 60.5946C73.9892 60.3459 74.2645 60.0432 74.4821 59.6886C74.7019 59.334 74.8556 58.9253 74.9452 58.4626H77.7727C77.6681 59.2129 77.4419 59.9178 77.092 60.5751C76.742 61.2325 76.2853 61.8076 75.7198 62.3028C75.1543 62.7979 74.4949 63.185 73.7395 63.4661C72.9841 63.7471 72.1454 63.8877 71.2257 63.8877" fill="white"/>
<path d="M82.4417 56.8149V63.8877H79.6367V47.7725H82.3782V53.8615H82.5271C82.8052 53.1775 83.2344 52.6357 83.8169 52.2382C84.4015 51.8429 85.1504 51.643 86.0679 51.643C86.8934 51.643 87.6116 51.8207 88.227 52.1738C88.8423 52.5269 89.3196 53.0421 89.6612 53.7194C90.0028 54.3966 90.1736 55.2227 90.1736 56.1954V63.8855H87.3576V56.6395C87.3576 55.8179 87.1518 55.1805 86.7379 54.7297C86.3263 54.279 85.7504 54.0547 85.0103 54.0547C84.5132 54.0547 84.0709 54.1635 83.6811 54.3789C83.2935 54.5943 82.9892 54.9074 82.7702 55.3138C82.549 55.7202 82.4395 56.2198 82.4395 56.8105" fill="white"/>
<path d="M95.5074 63.885C94.7285 63.885 94.0281 63.7461 93.4086 63.4729C92.789 63.1974 92.3019 62.7919 91.9427 62.2542C91.5858 61.7164 91.4062 61.0553 91.4062 60.2685C91.4062 59.5964 91.5342 59.0366 91.7878 58.5937C92.0437 58.1507 92.3917 57.7959 92.8317 57.5314C93.2739 57.267 93.77 57.0642 94.3244 56.9254C94.8789 56.7866 95.4513 56.6874 96.0417 56.6301C96.7622 56.5508 97.3459 56.4846 97.7903 56.4251C98.2348 56.3678 98.558 56.2753 98.7578 56.1475C98.9599 56.0196 99.0586 55.8191 99.0586 55.5458V55.4929C99.0586 54.9133 98.8835 54.4638 98.5333 54.1398C98.1832 53.8181 97.6736 53.6572 97.0024 53.6572C96.2953 53.6572 95.7364 53.807 95.3256 54.109C94.9125 54.4087 94.6342 54.7635 94.4883 55.1712L91.8103 54.7965C92.0213 54.0671 92.3715 53.4566 92.8586 52.9674C93.348 52.4781 93.9428 52.1079 94.6454 51.8611C95.348 51.6143 96.127 51.4908 96.98 51.4908C97.5636 51.4908 98.1472 51.557 98.7286 51.6892C99.3123 51.8214 99.8488 52.044 100.336 52.3591C100.823 52.6743 101.214 53.0952 101.505 53.6263C101.797 54.1552 101.943 54.8186 101.943 55.6119V63.6404H99.1776V61.9875H99.09C98.915 62.3159 98.6703 62.6266 98.3515 62.9153C98.035 63.204 97.6422 63.4398 97.1708 63.6183C96.7016 63.7968 96.1449 63.8872 95.5029 63.8872M96.2414 61.8024C96.8251 61.8024 97.3279 61.69 97.7499 61.463C98.1742 61.2382 98.5019 60.9363 98.7331 60.5617C98.9666 60.1848 99.0833 59.7771 99.0833 59.3319V57.9259C98.989 57.9986 98.8341 58.0648 98.6231 58.1243C98.4121 58.1838 98.1719 58.2411 97.9026 58.2895C97.6332 58.3402 97.3683 58.3821 97.1102 58.4196C96.8498 58.4548 96.6275 58.4835 96.439 58.5055C96.008 58.5628 95.6241 58.6576 95.2852 58.7898C94.9462 58.922 94.6791 59.1027 94.4816 59.3319C94.284 59.5611 94.1852 59.8586 94.1852 60.2223C94.1852 60.7446 94.3783 61.139 94.7644 61.4035C95.1505 61.668 95.6421 61.8002 96.2414 61.8002" fill="white"/>
<path d="M109.786 54.0083H103.184V51.8383H109.786V54.0083ZM104.801 49.0112H107.51V60.1537C107.51 60.6209 107.61 60.9658 107.809 61.1907C108.007 61.4134 108.325 61.5269 108.756 61.5269C108.872 61.5269 109.003 61.516 109.147 61.4942C109.291 61.4723 109.422 61.4483 109.538 61.4199L110.002 63.6096C109.712 63.7013 109.42 63.7711 109.126 63.817C108.83 63.8628 108.536 63.8868 108.24 63.8868C107.168 63.8868 106.328 63.5943 105.717 63.0092C105.106 62.4242 104.801 61.6251 104.801 60.6122V49.0112Z" fill="white"/>
</svg>
