<svg width="24" height="24" viewBox="0 0 24 24" fill="none" xmlns="http://www.w3.org/2000/svg">
<path fill-rule="evenodd" clip-rule="evenodd" d="M12.9999 2C12.9999 1.44772 12.5522 1 11.9999 1C11.4476 1 10.9999 1.44772 10.9999 2V9.58579L9.707 8.29289C9.31648 7.90237 8.68331 7.90237 8.29279 8.29289C7.90227 8.68342 7.90227 9.31658 8.29279 9.70711L11.2928 12.7071C11.6833 13.0976 12.3165 13.0976 12.707 12.7071L15.707 9.70711C16.0975 9.31658 16.0975 8.68342 15.707 8.29289C15.3165 7.90237 14.6833 7.90237 14.2928 8.29289L12.9999 9.58579V2ZM8.56734 3L8.623 3H8.7499C9.30218 3 9.7499 3.44772 9.7499 4C9.7499 4.55228 9.30218 5 8.7499 5H8.623C7.8487 5 7.35626 5.00166 6.98653 5.04587C6.6435 5.08689 6.52033 5.15379 6.44604 5.21179C6.37175 5.2698 6.27697 5.37307 6.15398 5.69591C6.02142 6.04388 5.90037 6.52121 5.71257 7.27239L4.50368 12.108C4.3963 12.5375 4.33205 12.7958 4.2881 13H6.19742L6.3202 12.9999C6.91225 12.9991 7.43444 12.9984 7.91965 13.168C8.21317 13.2706 8.48896 13.4182 8.73714 13.6055C9.14739 13.9151 9.43647 14.35 9.76422 14.8431L9.83224 14.9453C10.2683 15.5994 10.3646 15.7201 10.4681 15.7982C10.5508 15.8606 10.6428 15.9098 10.7406 15.944C10.863 15.9868 11.0169 16 11.803 16H12.1974C12.9835 16 13.1374 15.9868 13.2598 15.944C13.3576 15.9098 13.4495 15.8606 13.5323 15.7982C13.6358 15.7201 13.7321 15.5994 14.1681 14.9453L14.2362 14.8431C14.5639 14.35 14.853 13.9151 15.2632 13.6055C15.5114 13.4182 15.7872 13.2706 16.0807 13.168C16.5659 12.9984 17.0881 12.9991 17.6802 12.9999L17.803 13H19.7117C19.6677 12.7958 19.6035 12.5375 19.4961 12.108L18.2872 7.27239C18.0994 6.52121 17.9784 6.04388 17.8458 5.69591C17.7228 5.37307 17.628 5.2698 17.5538 5.21179C17.4795 5.15379 17.3563 5.08689 17.0133 5.04587C16.6435 5.00166 16.1511 5 15.3768 5H15.2499C14.6976 5 14.2499 4.55228 14.2499 4C14.2499 3.44772 14.6976 3 15.2499 3H15.3768L15.4325 3C16.1348 2.99996 16.7481 2.99992 17.2507 3.06002C17.7933 3.1249 18.3163 3.2698 18.7846 3.63538C19.2528 4.00097 19.5202 4.47327 19.7148 4.98389C19.895 5.45692 20.0437 6.05196 20.214 6.73332L20.2275 6.78732L21.4364 11.6229L21.4469 11.6651C21.5899 12.2369 21.6752 12.5782 21.7337 12.9255C21.8487 13.6084 21.8845 14.3022 21.8404 14.9933C21.818 15.3448 21.7682 15.693 21.6848 16.2765L21.6787 16.3196L21.6558 16.4799C21.4915 17.6334 21.3788 18.4241 21.0744 19.0869C20.4729 20.3965 19.3356 21.3829 17.954 21.7931C17.2549 22.0007 16.4562 22.0005 15.2911 22H15.2911H15.2911L15.1291 22H8.87072L8.70871 22H8.70869H8.70868C7.54361 22.0005 6.7449 22.0007 6.04575 21.7931C4.66423 21.3829 3.5269 20.3965 2.9254 19.0869C2.621 18.4241 2.50833 17.6334 2.34398 16.48L2.34398 16.4799L2.32111 16.3196L2.31496 16.2765L2.31495 16.2765C2.23158 15.693 2.18183 15.3448 2.15939 14.9933C2.11528 14.3022 2.15107 13.6084 2.26606 12.9255C2.32455 12.5782 2.40987 12.2369 2.55284 11.6651L2.56339 11.6229L3.77229 6.78732L3.78579 6.73332C3.95608 6.05196 4.10481 5.45692 4.28502 4.98389C4.47955 4.47327 4.74698 4.00097 5.21521 3.63538C5.68345 3.2698 6.20651 3.1249 6.74906 3.06002C7.25168 2.99992 7.86502 2.99996 8.56734 3ZM4.30101 16.0367C4.22494 15.5043 4.1862 15.2296 4.16564 15H6.19742C6.98351 15 7.13737 15.0132 7.25977 15.056C7.35761 15.0902 7.44954 15.1394 7.53226 15.2018C7.63575 15.2799 7.73209 15.4006 8.16814 16.0547L8.23616 16.1569C8.56391 16.65 8.853 17.0849 9.26325 17.3945C9.51142 17.5818 9.78721 17.7294 10.0807 17.832C10.5659 18.0016 11.0881 18.0009 11.6802 18.0001L11.803 18H12.1974L12.3202 18.0001C12.9122 18.0009 13.4344 18.0016 13.9197 17.832C14.2132 17.7294 14.489 17.5818 14.7371 17.3945C15.1474 17.0849 15.4365 16.65 15.7642 16.1569L15.8322 16.0547C16.2683 15.4006 16.3646 15.2799 16.4681 15.2018C16.5508 15.1394 16.6428 15.0902 16.7406 15.056C16.863 15.0132 17.0169 15 17.803 15H19.8342C19.8136 15.2296 19.7749 15.5043 19.6988 16.0367C19.5022 17.4128 19.4239 17.8886 19.2569 18.2521C18.896 19.0379 18.2136 19.6297 17.3847 19.8759C17.0012 19.9898 16.5192 20 15.1291 20H8.87072C7.48063 20 6.99859 19.9898 6.61508 19.8759C5.78617 19.6297 5.10377 19.0379 4.74287 18.2521C4.5759 17.8886 4.4976 17.4128 4.30101 16.0367Z" fill="#22282F"/>
</svg>
