<svg width="24" height="24" viewBox="0 0 24 24" fill="none" xmlns="http://www.w3.org/2000/svg">
<path fill-rule="evenodd" clip-rule="evenodd" d="M12 2C6.47715 2 2 6.47715 2 12C2 17.5228 6.47715 22 12 22C17.5228 22 22 17.5228 22 12C22 6.47715 17.5228 2 12 2ZM4 12C4 7.58172 7.58172 4 12 4C16.4183 4 20 7.58172 20 12C20 16.4183 16.4183 20 12 20C7.58172 20 4 16.4183 4 12ZM8.79908 14.3994C8.46739 13.9578 7.84052 13.8687 7.39893 14.2004C6.95735 14.5321 6.86826 15.159 7.19995 15.6006C8.2929 17.0557 10.0363 18 11.9999 18C13.9635 18 15.7069 17.0557 16.7998 15.6006C17.1315 15.159 17.0424 14.5321 16.6008 14.2004C16.1592 13.8687 15.5324 13.9578 15.2007 14.3994C14.4692 15.3732 13.3079 16 11.9999 16C10.6919 16 9.53054 15.3732 8.79908 14.3994ZM10 10C10 10.5523 9.55228 11 9 11C8.44772 11 8 10.5523 8 10C8 9.44772 8.44772 9 9 9C9.55228 9 10 9.44772 10 10ZM15 11C15.5523 11 16 10.5523 16 10C16 9.44772 15.5523 9 15 9C14.4477 9 14 9.44772 14 10C14 10.5523 14.4477 11 15 11Z" fill="#22282F"/>
</svg>
