<svg width="282" height="304" viewBox="0 0 282 304" fill="none" xmlns="http://www.w3.org/2000/svg">
<g clip-path="url(#clip0_280_3422)">
<path d="M281.647 215.403H0V215.543H281.647V215.403Z" fill="#EBEBEB"/>
<path d="M253.43 224.468H234.773V224.609H253.43V224.468Z" fill="#EBEBEB"/>
<path d="M186.572 225.997H181.675V226.138H186.572V225.997Z" fill="#EBEBEB"/>
<path d="M234.205 219.237H223.394V219.378H234.205V219.237Z" fill="#EBEBEB"/>
<path d="M53.8782 220.184H29.5478V220.324H53.8782V220.184Z" fill="#EBEBEB"/>
<path d="M62.4618 220.184H58.8944V220.324H62.4618V220.184Z" fill="#EBEBEB"/>
<path d="M126.825 222.563H74.0581V222.704H126.825V222.563Z" fill="#EBEBEB"/>
<path d="M133.513 190.28H24.7412C22.9685 190.28 21.5259 188.838 21.5259 187.065V34.1689C21.5259 32.3962 22.9685 30.9536 24.7412 30.9536H133.513C135.285 30.9536 136.727 32.3962 136.727 34.1689V187.065C136.727 188.838 135.285 190.28 133.513 190.28ZM24.7412 31.095C23.0456 31.095 21.6667 32.4739 21.6667 34.1694V187.065C21.6667 188.761 23.0456 190.14 24.7412 190.14H133.513C135.208 190.14 136.587 188.761 136.587 187.065V34.1689C136.587 32.4739 135.208 31.0944 133.513 31.0944L24.7412 31.095Z" fill="#EBEBEB"/>
<path d="M255.349 190.28H146.578C144.805 190.28 143.363 188.838 143.363 187.065V34.1689C143.363 32.3962 144.806 30.9536 146.578 30.9536H255.349C257.122 30.9536 258.564 32.3962 258.564 34.1689V187.065C258.565 188.838 257.122 190.28 255.349 190.28ZM146.578 31.095C144.883 31.095 143.504 32.4739 143.504 34.1694V187.065C143.504 188.761 144.883 190.14 146.578 190.14H255.349C257.045 190.14 258.424 188.761 258.424 187.065V34.1689C258.424 32.4739 257.045 31.0944 255.349 31.0944L146.578 31.095Z" fill="#EBEBEB"/>
<path d="M140.813 240.841C201.132 240.841 250.03 237.985 250.03 234.463C250.03 230.94 201.132 228.084 140.813 228.084C80.4947 228.084 31.5968 230.94 31.5968 234.463C31.5968 237.985 80.4947 240.841 140.813 240.841Z" fill="#F5F5F5"/>
<path d="M208.595 85.0019C209.987 80.4708 195.756 79.4732 192.326 87.5649C187.52 98.9035 194.525 105.283 194.525 105.283C198.611 103.088 206.597 102.761 210.962 104.209L208.595 85.0019Z" fill="#263238"/>
<path d="M209.7 229.814L205.309 229.985L205.283 225.238L209.673 225.067L209.7 229.814Z" fill="#F6B5AE"/>
<path d="M205.129 229.075H210.097C210.278 229.075 210.441 229.2 210.49 229.377L211.571 233.307C211.683 233.715 211.382 234.101 210.964 234.094C209.228 234.064 208.381 233.962 206.196 233.962C204.852 233.962 201.377 234.102 199.521 234.102C197.706 234.102 197.326 232.267 198.077 232.101C201.445 231.355 203.386 230.327 204.426 229.347C204.613 229.17 204.864 229.075 205.129 229.075Z" fill="#2A8FEA"/>
<path opacity="0.2" d="M205.283 225.239L205.296 227.685L209.689 227.709L209.676 225.067L205.283 225.239Z" fill="black"/>
<path d="M195.251 137.345C194.534 142.755 196.975 168.407 199.03 179.602C201.76 194.471 204.348 226.698 204.348 226.698L210.268 226.343C210.268 226.343 210.981 191.008 209.169 179.019C209.051 163.295 209.334 135.765 209.334 135.765L195.251 137.345Z" fill="#263238"/>
<path opacity="0.2" d="M209.197 152.897C209.197 148.908 206.244 145.76 205.506 153.373C205.036 158.225 206.923 166.363 209.138 171.994C209.131 165.856 209.161 158.987 209.197 152.897Z" fill="black"/>
<path d="M235.836 230.304L231.804 230.413L229.911 224.921L233.943 224.812L235.836 230.304Z" fill="#F6B5AE"/>
<path d="M235.728 229.074H230.76C230.579 229.074 230.462 229.2 230.479 229.376L230.845 233.307C230.883 233.714 231.325 234.1 231.74 234.093C233.466 234.063 234.276 233.962 236.461 233.962C237.805 233.962 239.578 234.101 241.434 234.101C243.25 234.101 242.954 232.266 242.142 232.1C238.499 231.355 237.932 230.327 236.532 229.346C236.279 229.169 235.993 229.074 235.728 229.074Z" fill="#2A8FEA"/>
<path opacity="0.2" d="M229.911 224.922L230.886 227.754L234.997 227.87L233.944 224.813L229.911 224.922Z" fill="black"/>
<path d="M201.998 136.586C201.998 136.586 211.13 170.016 215.717 179.88C218.693 195.118 229.359 227.05 229.359 227.05L235.543 226.618C235.543 226.618 228.77 194.312 224.624 179.317C222.384 165.375 220.901 142.139 214.472 135.186L201.998 136.586Z" fill="#263238"/>
<path d="M193.153 112.478C193.034 115.295 192.79 118.029 192.458 120.792C192.138 123.549 191.723 126.3 191.186 129.041L190.976 130.069L190.864 130.611C190.794 130.901 190.725 131.192 190.545 131.574C190.368 131.94 190.103 132.396 189.567 132.804C189.038 133.22 188.281 133.409 187.754 133.378C187.216 133.358 186.84 133.231 186.525 133.108C186.208 132.98 185.979 132.842 185.753 132.704C184.911 132.152 184.37 131.6 183.835 131.043C183.318 130.482 182.853 129.917 182.41 129.347C180.674 127.047 179.217 124.702 177.906 122.21C177.595 121.618 177.822 120.885 178.415 120.573C178.927 120.304 179.544 120.438 179.904 120.862L179.924 120.886C181.66 122.935 183.413 125.035 185.246 126.884C185.699 127.347 186.162 127.79 186.622 128.186C187.069 128.576 187.554 128.946 187.884 129.103C187.956 129.134 188.027 129.162 188.032 129.153C188.036 129.148 187.995 129.112 187.8 129.099C187.614 129.075 187.205 129.166 186.947 129.37C186.685 129.568 186.607 129.726 186.572 129.783C186.54 129.855 186.547 129.81 186.55 129.767L186.616 129.299L186.756 128.305C187.113 125.648 187.396 122.97 187.655 120.286C187.89 117.608 188.108 114.889 188.288 112.243L188.29 112.21C188.381 110.867 189.543 109.853 190.885 109.944C192.205 110.033 193.208 111.163 193.153 112.478Z" fill="#F6B5AE"/>
<path d="M191.09 108.737C186.909 110.778 187.56 116.198 187.56 116.198L194.247 120.908C194.247 120.908 196.69 115.022 196.187 112.197C195.664 109.258 194.187 107.224 191.09 108.737Z" fill="#2A8FEA"/>
<path opacity="0.2" d="M190.36 113.256C191.345 111.714 193.026 112.088 194.988 113.316C195.404 113.66 195.778 114.136 196.1 114.707C195.629 117.564 194.241 120.908 194.241 120.908L189.527 117.588C189.302 116.414 189.659 114.353 190.36 113.256Z" fill="black"/>
<path d="M180.208 121.618L179.212 117.803L175.83 120.845C175.83 120.845 177.053 122.884 179.014 123.162L180.208 121.618Z" fill="#F6B5AE"/>
<path d="M176.629 116.251L175.94 116.932C174.863 117.998 174.817 119.723 175.836 120.845L179.218 117.804L178.273 116.411C177.895 115.856 177.107 115.779 176.629 116.251Z" fill="#F6B5AE"/>
<path d="M178.345 116.509C177.47 115.406 176.247 113.338 176.032 112.909C175.816 112.479 175.122 113.074 175.453 113.702C175.784 114.331 176.429 116.364 177.106 117.109C177.785 117.853 178.345 116.509 178.345 116.509Z" fill="#F6B5AE"/>
<path d="M189.541 111.808C190.725 122.691 194.276 130.279 195.246 137.344L214.478 135.186C213.388 128.12 212.834 123.493 214.187 110.394C214.436 107.987 212.569 105.885 210.149 105.848C208.979 105.83 207.679 105.845 206.378 105.928C203.124 106.135 200.461 106.329 197.645 106.908C195.619 107.324 193.461 107.915 191.919 108.366C190.412 108.806 189.371 110.246 189.541 111.808Z" fill="#2A8FEA"/>
<path d="M197.652 106.907C197.652 106.907 194.566 110.247 199.169 114.811C202.011 109.056 206.384 105.927 206.384 105.927L197.652 106.907Z" fill="white"/>
<path d="M204.412 96.1906C204.176 99.0623 204.204 104.272 206.381 105.927C206.381 105.927 201.571 108.543 198.98 113.14C195.59 109.734 197.648 106.907 197.648 106.907C200.697 105.807 200.356 103.491 199.565 101.37L204.412 96.1906Z" fill="#F6B5AE"/>
<path opacity="0.2" d="M203.888 96.7565C203.942 97.5907 204.061 99.5003 203.261 101.71C202.869 102.8 201.533 103.427 200.11 103.691C200.082 102.938 199.855 102.142 199.569 101.37L203.888 96.7565Z" fill="black"/>
<path d="M208.495 92.1745C207.656 96.8284 207.401 98.8163 204.75 100.944C200.763 104.145 195.23 102.097 194.662 97.2858C194.15 92.9558 195.608 86.0723 200.416 84.7458C205.153 83.4395 209.334 87.5205 208.495 92.1745Z" fill="#F6B5AE"/>
<path d="M204.901 88.4447C203.774 90.9328 204.761 95.1575 208.33 94.899C205.444 98.1971 206.132 105.423 206.132 105.423C208.055 105.581 209.755 105.112 211.335 104.307C211.335 104.307 210.209 97.4749 211.398 92.6796C212.366 88.7799 212.222 81.2154 203.775 82.8586C202.79 83.0501 196.369 84.7366 195.722 88.1096C195.667 88.3963 202.574 90.396 204.901 88.4447Z" fill="#263238"/>
<path d="M209.535 94.8133C209.325 95.7709 208.693 96.5426 208.008 96.9662C206.977 97.6033 206.126 96.7629 206.132 95.6143C206.138 94.5807 206.681 93.0034 207.85 92.8311C209.002 92.6615 209.775 93.7183 209.535 94.8133Z" fill="#F6B5AE"/>
<path opacity="0.2" d="M211.156 113.53C210.946 115.183 211.77 117.251 213.519 118.483C213.621 116.536 213.793 114.352 214.037 111.84C213.059 110.785 211.389 111.702 211.156 113.53Z" fill="black"/>
<path d="M214.637 134.025L215.698 135.649C215.78 135.775 215.637 135.929 215.415 135.954L195.247 138.217C195.073 138.236 194.92 138.167 194.897 138.06L194.53 136.358C194.505 136.24 194.644 136.122 194.833 136.101L214.308 133.916C214.452 133.9 214.584 133.944 214.637 134.025Z" fill="#263238"/>
<path d="M212.265 136.496L212.786 136.437C212.89 136.426 212.963 136.363 212.949 136.299L212.453 134.09C212.438 134.025 212.341 133.982 212.238 133.993L211.716 134.052C211.613 134.064 211.539 134.126 211.553 134.19L212.049 136.4C212.064 136.465 212.161 136.508 212.265 136.496Z" fill="url(#paint0_linear_280_3422)"/>
<path d="M196.736 138.239L197.258 138.18C197.361 138.169 197.435 138.106 197.42 138.042L196.924 135.833C196.91 135.768 196.813 135.725 196.709 135.736L196.187 135.795C196.084 135.807 196.011 135.869 196.025 135.933L196.521 138.143C196.536 138.208 196.632 138.251 196.736 138.239Z" fill="url(#paint1_linear_280_3422)"/>
<path d="M204.506 137.368L205.027 137.31C205.131 137.298 205.204 137.235 205.19 137.171L204.695 134.962C204.68 134.897 204.583 134.854 204.479 134.866L203.958 134.924C203.854 134.936 203.781 134.999 203.796 135.063L204.291 137.272C204.305 137.337 204.402 137.38 204.506 137.368Z" fill="url(#paint2_linear_280_3422)"/>
<path d="M200.555 92.6493C200.51 93.0312 200.272 93.3168 200.023 93.2875C199.773 93.2582 199.607 92.9247 199.652 92.5434C199.697 92.1614 199.935 91.8759 200.185 91.9051C200.434 91.9339 200.6 92.2673 200.555 92.6493Z" fill="#263238"/>
<path d="M196.243 92.1416C196.197 92.5235 195.959 92.8091 195.71 92.7798C195.46 92.7505 195.295 92.417 195.339 92.0357C195.384 91.6538 195.622 91.3682 195.872 91.3975C196.121 91.4268 196.287 91.7602 196.243 92.1416Z" fill="#263238"/>
<path d="M195.978 91.4324L195.093 91.0606C195.093 91.0606 195.479 91.8318 195.978 91.4324Z" fill="#263238"/>
<path d="M197.293 92.9325C197.293 92.9325 196.452 94.4996 195.646 95.2088C196.095 95.7383 196.977 95.6239 196.977 95.6239L197.293 92.9325Z" fill="#D28F88"/>
<path d="M198.051 96.9546C198.014 96.9315 197.992 96.8876 197.999 96.8414C198.008 96.78 198.066 96.7372 198.127 96.7467C199.79 97.0002 200.751 95.9542 200.76 95.9441C200.801 95.8979 200.871 95.8928 200.919 95.935C200.966 95.9767 200.97 96.0477 200.928 96.0945C200.887 96.1412 199.88 97.2424 198.093 96.9704C198.078 96.9676 198.063 96.9619 198.051 96.9546Z" fill="#263238"/>
<path d="M202.598 90.6415C202.565 90.6224 202.536 90.5954 202.515 90.5599C202.006 89.6918 201.176 89.6434 201.167 89.6428C201.042 89.6372 200.946 89.5307 200.952 89.4068C200.958 89.2823 201.064 89.186 201.188 89.1922C201.232 89.1944 202.272 89.2553 202.904 90.3317C202.967 90.4393 202.931 90.5773 202.824 90.641C202.752 90.6827 202.665 90.6804 202.598 90.6415Z" fill="#263238"/>
<path d="M195.094 89.8964C195.082 89.8896 195.071 89.8812 195.059 89.8722C194.964 89.7916 194.953 89.6491 195.033 89.5539C195.842 88.6025 196.877 88.7225 196.921 88.7281C197.044 88.7444 197.132 88.8571 197.116 88.9805C197.101 89.1038 196.988 89.1911 196.865 89.1759C196.826 89.1714 196.021 89.0892 195.378 89.8462C195.307 89.9302 195.187 89.9488 195.094 89.8964Z" fill="#263238"/>
<path d="M213.968 108.822C215.626 110.499 217.197 112.202 218.729 113.989C219.493 114.882 220.263 115.775 220.995 116.721C221.73 117.677 222.459 118.608 223.158 119.775C223.335 120.077 223.511 120.383 223.696 120.801C223.787 121.017 223.888 121.254 223.978 121.645C224.001 121.756 224.02 121.837 224.036 121.999L224.051 122.216C224.055 122.29 224.051 122.414 224.044 122.51L224.029 122.664L224.019 122.734L224.016 122.748L224.003 122.806L223.977 122.92C223.831 123.529 223.726 124.138 223.532 124.739C223.204 125.946 222.748 127.132 222.211 128.281C221.646 129.423 220.976 130.526 220.15 131.526C219.748 132.032 219.281 132.496 218.792 132.935C218.543 133.153 218.285 133.363 218.013 133.562C217.874 133.662 217.731 133.755 217.582 133.848C217.421 133.945 217.303 134.016 217.063 134.141L215.845 132.058C215.851 132.031 215.964 131.928 216.031 131.85L216.266 131.584C216.424 131.399 216.576 131.203 216.723 131C217.011 130.589 217.276 130.157 217.518 129.706C218 128.805 218.388 127.845 218.71 126.858C218.848 126.351 219.01 125.861 219.113 125.342C219.246 124.837 219.338 124.316 219.428 123.795C219.529 123.279 219.569 122.741 219.651 122.219L219.664 122.121L219.671 122.072L219.673 122.059L219.666 122.102L219.654 122.202C219.647 122.262 219.649 122.35 219.65 122.388C219.65 122.424 219.651 122.461 219.655 122.497L219.675 122.639C219.697 122.75 219.69 122.718 219.66 122.671C219.602 122.567 219.481 122.377 219.351 122.192C218.8 121.418 218.083 120.544 217.358 119.716C216.624 118.882 215.882 118.031 215.115 117.199L210.47 112.212L213.968 108.822Z" fill="#F6B5AE"/>
<path d="M218.315 133.363L214.931 136.503L212.746 132.908C212.746 132.908 214.848 131.394 216.745 131.966L218.315 133.363Z" fill="#F6B5AE"/>
<path d="M212.373 137.166L211.269 135.987C210.828 135.516 210.843 134.779 211.304 134.326L212.75 132.908L214.934 136.504L213.993 137.273C213.509 137.669 212.801 137.622 212.373 137.166Z" fill="#F6B5AE"/>
<path d="M206.343 108.669C206.085 110.679 211.444 116.542 211.444 116.542L216.453 110.265C216.453 110.265 214.116 106.988 212.334 106.242C209.464 105.042 206.637 106.375 206.343 108.669Z" fill="#2A8FEA"/>
<path d="M200.292 91.9385L199.406 91.5667C199.406 91.5667 199.792 92.3379 200.292 91.9385Z" fill="#263238"/>
<path d="M214.12 57.2708C220.107 57.2708 224.979 62.1422 224.979 68.13V150.871C224.979 156.858 220.107 161.73 214.12 161.73H186.573C181.907 161.73 178.123 165.513 178.123 170.179V178.193L161.275 163.762C159.744 162.451 157.795 161.73 155.779 161.73H67.5246C61.5368 161.73 56.6654 156.859 56.6654 150.871V68.1294C56.6654 62.1416 61.5368 57.2702 67.5246 57.2702L214.12 57.2708ZM214.12 48.8214H67.5246C56.9048 48.8214 48.216 57.5102 48.216 68.13V150.871C48.216 161.49 56.9048 170.179 67.5246 170.179H155.779L186.573 196.554V170.179H214.12C224.739 170.179 233.428 161.49 233.428 150.871V68.1294C233.428 57.5102 224.739 48.8214 214.12 48.8214Z" fill="#2A8FEA"/>
<path d="M87.1027 230.995C87.6164 230.995 88.1104 230.924 88.2681 230.693C88.3233 230.612 88.3639 230.474 88.2445 230.278C88.178 230.168 88.0738 230.094 87.9358 230.056C87.2627 229.875 85.8933 230.673 85.8353 230.707C85.802 230.727 85.7846 230.766 85.7925 230.804C85.8004 230.843 85.8313 230.874 85.8708 230.882C86.1276 230.933 86.6239 230.995 87.1027 230.995ZM87.7088 230.219C87.7758 230.219 87.8378 230.225 87.893 230.24C87.9814 230.264 88.0439 230.307 88.0839 230.373C88.1555 230.491 88.1329 230.549 88.1104 230.582C87.9341 230.842 86.9219 230.847 86.1738 230.742C86.5371 230.551 87.2407 230.219 87.7088 230.219Z" fill="#2A8FEA"/>
<path d="M85.8893 230.886C85.9028 230.886 85.9158 230.883 85.9276 230.877C86.403 230.66 87.3274 229.794 87.2372 229.342C87.2158 229.235 87.1359 229.103 86.8739 229.076C86.6785 229.057 86.505 229.111 86.354 229.239C85.8606 229.658 85.7935 230.736 85.7907 230.782C85.789 230.815 85.8048 230.848 85.833 230.868C85.8504 230.879 85.8701 230.886 85.8893 230.886ZM86.8052 229.262C86.8238 229.262 86.8429 229.263 86.8621 229.265C87.0333 229.282 87.0469 229.349 87.0514 229.371C87.1054 229.643 86.4807 230.324 85.9986 230.62C86.038 230.305 86.1563 229.66 86.4807 229.386C86.5782 229.303 86.6847 229.262 86.8052 229.262Z" fill="#2A8FEA"/>
<path d="M81.4904 230.79H85.4949L85.5433 221.517H81.5394L81.4904 230.79Z" fill="#DAA799"/>
<path d="M85.4398 230.327H81.067C80.9031 230.327 80.7656 230.44 80.7363 230.6L80.0795 234.16C80.0114 234.529 80.3048 234.879 80.6823 234.872C82.2589 234.845 84.5346 234.752 86.5174 234.752C88.8359 234.752 89.121 234.879 91.8394 234.879C93.4831 234.879 93.8769 233.217 93.1829 233.066C90.0245 232.381 89.1857 232.307 86.4155 230.638C86.1152 230.457 85.7851 230.327 85.4398 230.327Z" fill="#263238"/>
<path opacity="0.2" d="M85.5515 221.521L85.5273 226.301H81.5212L81.5454 221.521H85.5515Z" fill="black"/>
<path d="M54.9693 229.613C54.9406 229.099 54.8426 228.603 54.6021 228.435C54.5181 228.376 54.3779 228.329 54.188 228.44C54.0816 228.502 54.0123 228.603 53.983 228.739C53.8388 229.404 54.7142 230.808 54.7513 230.868C54.7727 230.903 54.8127 230.921 54.8516 230.915C54.8905 230.909 54.9198 230.879 54.9254 230.841C54.962 230.586 54.9958 230.092 54.9693 229.613ZM54.1576 228.973C54.1537 228.906 54.1571 228.845 54.1689 228.79C54.188 228.703 54.228 228.643 54.2911 228.605C54.4049 228.539 54.4652 228.564 54.5001 228.589C54.7694 228.777 54.8313 229.789 54.7677 230.532C54.5564 230.16 54.1835 229.441 54.1576 228.973Z" fill="#2A8FEA"/>
<path d="M54.9309 230.822C54.9304 230.809 54.9264 230.796 54.9202 230.783C54.6763 230.298 53.757 229.336 53.3081 229.406C53.2027 229.423 53.0743 229.497 53.0625 229.758C53.0535 229.952 53.1182 230.128 53.254 230.285C53.7007 230.797 54.7856 230.912 54.8318 230.916C54.8656 230.92 54.8977 230.905 54.9157 230.878C54.927 230.86 54.932 230.841 54.9309 230.822ZM53.2529 229.835C53.2517 229.816 53.2517 229.797 53.2529 229.778C53.2607 229.607 53.3272 229.597 53.3492 229.594C53.6184 229.551 54.3355 230.206 54.6594 230.701C54.3417 230.648 53.6877 230.501 53.3948 230.165C53.3058 230.063 53.2596 229.955 53.2529 229.835Z" fill="#2A8FEA"/>
<path d="M54.8723 230.849L58.7967 231.126L60.4145 221.778L56.49 221.502L54.8723 230.849Z" fill="#DAA799"/>
<path d="M54.8274 229.951L59.1597 229.566C59.3219 229.551 59.4791 229.652 59.5382 229.808L60.8546 233.283C60.9909 233.644 60.7656 234.017 60.3905 234.044C58.8239 234.157 56.5516 234.265 54.5874 234.44C52.2909 234.644 53.7858 234.639 51.0927 234.879C49.4642 235.023 48.7635 233.409 49.4226 233.198C52.4232 232.239 52.9364 231.577 53.9182 230.347C54.1278 230.085 54.4849 229.981 54.8274 229.951Z" fill="#263238"/>
<path opacity="0.2" d="M60.4102 221.78L59.577 226.597L55.6509 226.321L56.4834 221.502L60.4102 221.78Z" fill="black"/>
<path d="M86.9794 128.933C86.9794 128.933 79.6695 159.691 76.8801 171.108C73.8259 183.611 61.8277 225.091 61.8277 225.091L54.6711 223.539C54.6711 223.539 62.4429 187.901 65.5015 170.464C67.851 157.07 73.159 128.932 73.159 128.932H86.9794V128.933Z" fill="#263238"/>
<path d="M62.9308 222.907C62.9635 222.91 62.4069 225.665 62.4069 225.665L53.8578 224.753L53.7407 222.229L62.9308 222.907Z" fill="#2A8FEA"/>
<path opacity="0.3" d="M82.7557 143.188C77.7007 143.86 76.769 161.622 76.6496 172.046C76.7262 171.716 76.8084 171.402 76.8789 171.106C78.4009 164.872 81.2703 152.86 83.5635 143.244C83.3196 143.165 83.0464 143.148 82.7557 143.188Z" fill="black"/>
<path d="M94.5785 128.932C94.5785 128.932 92.6199 158.888 91.7496 171.083C90.8444 183.768 87.2185 225.373 87.2185 225.373H80.4347C80.4347 225.373 79.7148 184.526 79.5171 172.052C79.3019 158.453 80.4989 128.932 80.4989 128.932H94.5785Z" fill="#263238"/>
<path d="M88.1743 222.671C88.2058 222.671 87.8977 225.487 87.8977 225.487H79.646L79.3278 222.974L88.1743 222.671Z" fill="#2A8FEA"/>
<path d="M75.6348 100.108C74.5409 102.319 73.4363 104.645 72.406 106.932C71.3769 109.226 70.3759 111.538 69.5693 113.842L69.2645 114.704L68.9941 115.561L68.8696 115.951C68.8702 115.912 68.8798 115.824 68.8629 115.675C68.864 115.364 68.566 114.819 68.3508 114.697C68.1357 114.547 68.1295 114.609 68.2145 114.654C68.3069 114.707 68.4894 114.769 68.7001 114.818C69.1288 114.915 69.6735 114.991 70.2373 115.026C72.5299 115.156 75.1312 114.981 77.6238 114.809L77.692 114.805C78.5268 114.747 79.2495 115.378 79.3069 116.212C79.3537 116.892 78.943 117.497 78.3397 117.73C75.7846 118.713 73.2583 119.469 70.3663 119.792C69.6352 119.859 68.8798 119.912 68.023 119.837C67.5921 119.799 67.1358 119.738 66.6108 119.592C66.0853 119.431 65.4718 119.224 64.7756 118.636C64.4354 118.342 64.0929 117.943 63.849 117.452C63.6045 116.964 63.4772 116.432 63.444 115.953C63.4136 115.48 63.4626 115.069 63.5352 114.714L63.6603 114.164L63.8986 113.145L64.1661 112.149C64.9007 109.502 65.8374 106.996 66.8463 104.526C67.8822 102.059 68.9806 99.6894 70.2593 97.2909C71.0473 95.8117 72.8859 95.2518 74.3646 96.0404C75.8151 96.8138 76.3817 98.596 75.6596 100.059L75.6348 100.108Z" fill="#DAA799"/>
<path d="M77.7762 114.974L80.267 113.993L80.1437 118.618C80.1437 118.618 78.6002 118.554 77.3458 117.668C76.9228 117.369 76.7476 116.825 76.8833 116.325L77.0208 115.818C77.1244 115.433 77.4049 115.12 77.7762 114.974Z" fill="#DAA799"/>
<path d="M84.3675 113.468L83.4708 117.479L80.1451 118.619L80.2684 113.994L84.3675 113.468Z" fill="#DAA799"/>
<path d="M89.0022 79.3979C89.0664 79.7144 89.2867 79.9369 89.4934 79.8947C89.7001 79.8524 89.8156 79.5618 89.7514 79.2452C89.6872 78.9286 89.4669 78.7061 89.2602 78.7484C89.0535 78.7906 88.9374 79.0813 89.0022 79.3979Z" fill="#263238"/>
<path d="M89.2483 79.9424C89.2483 79.9424 90.3394 81.6222 91.3105 82.3421C90.8571 82.9786 89.8561 82.933 89.8561 82.933L89.2483 79.9424Z" fill="#DAA799"/>
<path d="M87.4769 77.8759C87.4307 77.8759 87.3845 77.859 87.3479 77.8257C87.2707 77.7548 87.2662 77.6348 87.3372 77.5576C88.0492 76.787 88.9138 76.9239 88.951 76.9301C89.0541 76.9476 89.1239 77.0456 89.1059 77.1487C89.0879 77.2517 88.9893 77.3205 88.8879 77.3041C88.8592 77.2996 88.1838 77.2005 87.6154 77.815C87.5788 77.855 87.5281 77.8759 87.4769 77.8759Z" fill="#263238"/>
<path d="M80.2051 85.1573C80.7797 88.087 81.1261 92.1455 79.0763 94.1002C79.0763 94.1002 79.8773 97.0716 85.3204 97.0716C91.306 97.0716 88.2 94.4635 88.2 94.4635C85.7125 93.6912 85.7339 90.8573 86.3028 88.581L80.2051 85.1573Z" fill="#DAA799"/>
<path d="M71.9024 94.1138C68.1491 94.974 65.6729 105.103 65.6729 105.103L71.939 109.81C71.939 109.81 75.3576 107.692 76.5884 102.9C77.8789 97.8777 75.7401 93.2339 71.9024 94.1138Z" fill="#2A8FEA"/>
<path opacity="0.2" d="M75.1214 101.16C73.0829 103.177 71.7653 106.361 71.6076 109.555L71.9399 109.811C71.9399 109.811 75.3614 107.69 76.5933 102.899C76.6694 102.599 76.7353 102.3 76.7894 102.005L75.1214 101.16Z" fill="black"/>
<path d="M95.6258 98.1299C96.4364 102.415 97.6598 112.589 95.3729 129.88C95.3334 130.177 95.0991 130.413 94.8017 130.451C93.8565 130.573 91.6647 130.759 88.9012 130.375C84.9412 129.824 81.6871 130.048 77.8618 130.35C75.652 130.524 73.7514 130.471 72.7718 130.421C72.3882 130.401 72.1054 130.061 72.1556 129.68C72.7431 125.229 74.8921 108.687 71.9094 94.1142C71.9094 94.1142 75.5804 93.3774 79.079 93.209C81.8161 93.0772 85.7777 92.9899 88.1835 93.2095C89.1879 93.3014 90.1737 93.4461 91.0518 93.6016C93.3676 94.0117 95.1881 95.8193 95.6258 98.1299Z" fill="#2A8FEA"/>
<path d="M78.3017 80.872C79.3302 84.7108 79.7375 87.0096 82.1062 88.606C85.6696 91.0068 90.1055 88.2517 90.2446 84.1825C90.3697 80.5205 88.6663 74.8577 84.5469 74.0843C80.4884 73.3227 77.2731 77.0331 78.3017 80.872Z" fill="#DAA799"/>
<path d="M87.29 82.0498C88.487 84.6944 88.1102 87.1025 86.6185 88.237C84.9281 89.523 80.1885 89.7173 78.3933 87.8973C79.0772 87.218 79.4529 86.3652 78.5792 85.158C77.7055 83.9503 74.5027 82.0627 74.4384 79.4778C74.3737 76.8928 76.0883 76.6016 75.9914 76.6016C74.4711 75.9223 74.568 73.4928 76.2342 72.1499C78.0063 70.7219 80.8769 70.3304 84.2972 71.0098C86.4558 71.4384 88.5704 71.3979 88.2014 70.0392C90.7435 71.4948 89.4823 76.8979 87.0236 77.6093C87.4117 78.5799 89.1128 80.1329 89.1128 80.1329C89.1128 80.1329 88.6943 81.7586 87.29 82.0498Z" fill="#263238"/>
<path d="M76.2384 76.0815C76.2384 76.0815 75.3162 76.664 72.8901 75.9362C73.5452 77.1495 75.9714 77.1935 76.5538 76.9169C77.1363 76.6403 76.2384 76.0815 76.2384 76.0815Z" fill="#263238"/>
<path d="M85.7429 81.0788C85.9637 82.0359 86.5653 82.8695 87.2052 83.3737C88.1679 84.1319 88.9216 83.4323 88.8821 82.3181C88.8467 81.3154 88.3025 79.7128 87.2266 79.3867C86.1665 79.065 85.4906 79.9843 85.7429 81.0788Z" fill="#DAA799"/>
<path d="M95.7876 97.5455C96.2895 98.7109 96.7649 99.8865 97.2454 101.06C97.7309 102.231 98.2041 103.406 98.6705 104.583L101.457 111.619C101.926 112.778 102.391 113.937 102.866 115.044L103.226 115.846L103.315 116.04L103.338 116.088L103.344 116.1L103.346 116.106C103.355 116.122 103.337 116.088 103.315 116.048C103.237 115.908 103.143 115.771 103.037 115.648C102.824 115.404 102.582 115.201 102.3 115.053C102.086 114.933 101.842 114.852 101.649 114.811C101.51 114.778 101.336 114.76 101.219 114.758C101.13 114.755 101.041 114.757 100.954 114.767C100.847 114.775 100.729 114.803 100.695 114.812C100.577 114.846 100.573 114.857 100.561 114.866C100.58 114.882 100.828 114.798 101.044 114.697C101.272 114.595 101.522 114.467 101.774 114.333C102.796 113.79 103.876 113.157 104.955 112.53C106.04 111.907 107.149 111.274 108.264 110.676L108.294 110.66C109.037 110.261 109.963 110.541 110.362 111.285C110.665 111.85 110.573 112.523 110.188 112.987C108.491 115.015 106.719 116.835 104.567 118.562C104.289 118.777 104.004 118.991 103.684 119.209C103.351 119.427 103.041 119.651 102.468 119.896C102.308 119.96 102.153 120.024 101.881 120.091C101.77 120.121 101.572 120.157 101.388 120.176C101.261 120.186 101.132 120.19 101.003 120.188C100.847 120.183 100.633 120.158 100.454 120.12C100.224 120.069 99.9419 119.972 99.6918 119.837C99.3808 119.664 99.0981 119.446 98.8654 119.166C98.7477 119.027 98.6418 118.875 98.5517 118.719L98.5004 118.626L98.4689 118.569L98.3421 118.338C98.1681 118.027 98.0194 117.734 97.8588 117.432C97.2459 116.245 96.6888 115.08 96.1498 113.909C95.066 111.574 94.0464 109.239 93.0494 106.895C92.5498 105.724 92.0608 104.55 91.5854 103.37C91.106 102.193 90.6233 101.018 90.1676 99.8319C89.5666 98.2671 90.3478 96.5107 91.9132 95.9102C93.4358 95.3267 95.1449 96.0601 95.7876 97.5455Z" fill="#DAA799"/>
<path d="M110.485 108.345C110.485 108.345 108.398 109.328 107.53 112.175L108.926 113.956L111.963 113.015C112.205 112.94 112.415 112.784 112.557 112.575L114.119 110.276C114.366 109.816 114.325 109.256 114.014 108.837L112.363 106.617L110.485 108.345Z" fill="#DAA799"/>
<path d="M87.5099 100.354C87.8626 104.819 92.7807 110.655 92.7807 110.655L99.7154 105.46C99.7154 105.46 98.6592 99.1751 95.0643 95.7683C90.6233 91.5593 87.1793 96.1654 87.5099 100.354Z" fill="#2A8FEA"/>
<path d="M89.2016 93.2091C88.5577 91.3317 81.1713 91.0027 76.7224 91.4556C72.274 91.9085 74.5171 95.3699 75.2646 95.8555C73.2457 96.5996 74.3255 100.165 78.0658 101.909C81.8067 103.651 89.9801 95.4803 89.2016 93.2091Z" fill="#263238"/>
<path d="M127.639 107.98L120.843 88.2504H122.939L128.954 105.692L135.01 88.2504H137.106L130.311 107.98H127.639ZM138.901 90.3741V88.1134H140.915V90.3741H138.901ZM138.901 107.98V93.1829H140.915V107.98H138.901ZM151.668 108.391C150.307 108.391 149.156 108.049 148.215 107.364C147.274 106.67 146.562 105.733 146.078 104.555C145.593 103.368 145.351 102.039 145.351 100.568C145.351 99.0699 145.593 97.7363 146.078 96.5672C146.571 95.3888 147.292 94.4617 148.242 93.7858C149.192 93.1099 150.362 92.7719 151.75 92.7719C153.102 92.7719 154.262 93.1144 155.23 93.7995C156.198 94.4846 156.938 95.4162 157.45 96.5946C157.97 97.7729 158.231 99.0973 158.231 100.568C158.231 102.048 157.97 103.377 157.45 104.555C156.929 105.733 156.18 106.67 155.203 107.364C154.225 108.049 153.047 108.391 151.668 108.391ZM145.009 114.557V93.1829H146.817V104.322H147.037V114.557H145.009ZM151.462 106.514C152.494 106.514 153.353 106.254 154.038 105.733C154.723 105.213 155.235 104.505 155.573 103.61C155.92 102.705 156.093 101.691 156.093 100.568C156.093 99.4536 155.924 98.4488 155.586 97.5537C155.248 96.6585 154.732 95.9506 154.038 95.4299C153.353 94.9093 152.481 94.649 151.421 94.649C150.389 94.649 149.53 94.9002 148.845 95.4025C148.169 95.9049 147.662 96.6037 147.324 97.4989C146.986 98.3849 146.817 99.4079 146.817 100.568C146.817 101.71 146.986 102.733 147.324 103.637C147.662 104.532 148.174 105.236 148.859 105.747C149.544 106.259 150.412 106.514 151.462 106.514ZM161.513 90.3741V88.1134H163.528V90.3741H161.513ZM161.513 107.98V93.1829H163.528V107.98H161.513Z" fill="black"/>
</g>
<path d="M60.8804 285.544C59.9098 285.544 59.0356 285.383 58.2579 285.062C57.4865 284.734 56.847 284.271 56.3392 283.674C55.8378 283.076 55.51 282.366 55.3557 281.543L56.802 281.302C57.0334 282.202 57.5219 282.909 58.2675 283.423C59.0131 283.931 59.9034 284.185 60.9382 284.185C61.6196 284.185 62.2302 284.079 62.7702 283.867C63.3101 283.648 63.7343 283.339 64.0429 282.941C64.3514 282.542 64.5057 282.07 64.5057 281.524C64.5057 281.164 64.4414 280.858 64.3128 280.608C64.1843 280.351 64.0139 280.138 63.8018 279.971C63.5897 279.804 63.3583 279.666 63.1076 279.557C62.8569 279.441 62.6127 279.348 62.3749 279.277L58.8556 278.226C58.4314 278.104 58.0393 277.95 57.6794 277.763C57.3194 277.57 57.0044 277.342 56.7345 277.079C56.4709 276.809 56.2652 276.494 56.1174 276.134C55.9696 275.774 55.8956 275.363 55.8956 274.9C55.8956 274.116 56.1013 273.437 56.5127 272.865C56.9241 272.293 57.4865 271.853 58.2 271.544C58.9135 271.236 59.7266 271.085 60.6394 271.091C61.565 271.091 62.3909 271.255 63.1173 271.583C63.85 271.911 64.4543 272.38 64.9299 272.991C65.4056 273.595 65.7205 274.312 65.8748 275.141L64.39 275.411C64.2936 274.807 64.0718 274.283 63.7247 273.839C63.3776 273.396 62.9341 273.055 62.3941 272.817C61.8606 272.573 61.2725 272.448 60.6297 272.441C60.0062 272.441 59.4502 272.547 58.9617 272.759C58.4796 272.965 58.0972 273.248 57.8143 273.608C57.5315 273.968 57.3901 274.379 57.3901 274.842C57.3901 275.311 57.5187 275.687 57.7758 275.97C58.0393 276.253 58.3607 276.475 58.7399 276.635C59.1256 276.796 59.4984 276.928 59.8584 277.031L62.5773 277.831C62.8602 277.908 63.1912 278.02 63.5704 278.168C63.9561 278.31 64.3289 278.515 64.6889 278.785C65.0553 279.049 65.3574 279.396 65.5952 279.827C65.833 280.257 65.9519 280.804 65.9519 281.466C65.9519 282.109 65.8234 282.684 65.5663 283.192C65.3156 283.699 64.9588 284.127 64.496 284.474C64.0397 284.821 63.5029 285.085 62.8859 285.265C62.2752 285.451 61.6067 285.544 60.8804 285.544ZM73.6115 285.255C73.0266 285.377 72.4481 285.425 71.876 285.4C71.3104 285.374 70.8026 285.252 70.3526 285.033C69.9091 284.815 69.5716 284.474 69.3402 284.011C69.1538 283.625 69.051 283.237 69.0317 282.844C69.0188 282.446 69.0124 281.993 69.0124 281.485V271.949H70.4201V281.427C70.4201 281.864 70.4233 282.231 70.4297 282.526C70.4426 282.816 70.5101 283.073 70.6322 283.298C70.8636 283.728 71.23 283.985 71.7314 284.069C72.2392 284.153 72.8659 284.133 73.6115 284.011V285.255ZM66.7852 276.057V274.842H73.6115V276.057H66.7852ZM78.6424 285.544C77.8582 285.544 77.1993 285.403 76.6658 285.12C76.1387 284.837 75.7434 284.461 75.4799 283.992C75.2163 283.523 75.0846 283.012 75.0846 282.459C75.0846 281.893 75.1971 281.411 75.422 281.013C75.6534 280.608 75.9652 280.277 76.3573 280.019C76.7558 279.762 77.2154 279.566 77.736 279.431C78.2631 279.303 78.8448 279.19 79.4812 279.094C80.124 278.991 80.7507 278.904 81.3613 278.834C81.9784 278.756 82.5183 278.682 82.9811 278.612L82.4798 278.92C82.499 277.892 82.2998 277.13 81.882 276.635C81.4642 276.14 80.7378 275.893 79.7029 275.893C78.9895 275.893 78.3852 276.054 77.8903 276.375C77.4018 276.696 77.0579 277.204 76.8586 277.898L75.4799 277.493C75.7177 276.561 76.1966 275.838 76.9165 275.324C77.6364 274.81 78.5717 274.553 79.7222 274.553C80.6735 274.553 81.4802 274.733 82.1423 275.093C82.8108 275.446 83.2832 275.96 83.5596 276.635C83.6882 276.937 83.7717 277.275 83.8103 277.648C83.8489 278.02 83.8682 278.4 83.8682 278.785V285.255H82.6051V282.642L82.9715 282.796C82.618 283.69 82.0684 284.371 81.3228 284.84C80.5771 285.31 79.6837 285.544 78.6424 285.544ZM78.8063 284.32C79.4683 284.32 80.0468 284.201 80.5418 283.963C81.0367 283.725 81.4352 283.4 81.7373 282.989C82.0394 282.571 82.2355 282.102 82.3255 281.581C82.4026 281.247 82.4444 280.881 82.4508 280.482C82.4573 280.077 82.4605 279.775 82.4605 279.576L83.0004 279.856C82.5183 279.92 81.9945 279.984 81.4288 280.048C80.8696 280.113 80.3168 280.187 79.7704 280.27C79.2305 280.354 78.742 280.453 78.3049 280.569C78.0092 280.653 77.7232 280.772 77.4468 280.926C77.1704 281.074 76.9422 281.273 76.7622 281.524C76.5887 281.774 76.5019 282.086 76.5019 282.459C76.5019 282.761 76.5758 283.053 76.7237 283.336C76.8779 283.619 77.1222 283.854 77.4564 284.04C77.7971 284.226 78.247 284.32 78.8063 284.32ZM86.3782 285.255V274.842H87.6509V277.349L87.4002 277.021C87.5159 276.712 87.6669 276.43 87.8533 276.172C88.0398 275.909 88.2422 275.694 88.4608 275.526C88.7307 275.289 89.0457 275.109 89.4057 274.987C89.7656 274.858 90.1288 274.784 90.4952 274.765C90.8616 274.739 91.1958 274.765 91.4979 274.842V276.172C91.1187 276.076 90.7041 276.054 90.2541 276.105C89.8042 276.156 89.3896 276.336 89.0103 276.645C88.6632 276.915 88.4029 277.239 88.2294 277.619C88.0558 277.992 87.9401 278.39 87.8823 278.814C87.8244 279.232 87.7955 279.647 87.7955 280.058V285.255H86.3782ZM98.9963 285.255C98.4114 285.377 97.8329 285.425 97.2608 285.4C96.6951 285.374 96.1873 285.252 95.7374 285.033C95.2939 284.815 94.9564 284.474 94.725 284.011C94.5386 283.625 94.4358 283.237 94.4165 282.844C94.4036 282.446 94.3972 281.993 94.3972 281.485V271.949H95.8049V281.427C95.8049 281.864 95.8081 282.231 95.8145 282.526C95.8274 282.816 95.8949 283.073 96.017 283.298C96.2484 283.728 96.6148 283.985 97.1162 284.069C97.6239 284.153 98.2507 284.133 98.9963 284.011V285.255ZM92.17 276.057V274.842H98.9963V276.057H92.17ZM107.888 285.544C107.103 285.544 106.445 285.403 105.911 285.12C105.384 284.837 104.989 284.461 104.725 283.992C104.462 283.523 104.33 283.012 104.33 282.459C104.33 281.893 104.442 281.411 104.667 281.013C104.899 280.608 105.21 280.277 105.603 280.019C106.001 279.762 106.461 279.566 106.981 279.431C107.508 279.303 108.09 279.19 108.726 279.094C109.369 278.991 109.996 278.904 110.607 278.834C111.224 278.756 111.764 278.682 112.226 278.612L111.725 278.92C111.744 277.892 111.545 277.13 111.127 276.635C110.709 276.14 109.983 275.893 108.948 275.893C108.235 275.893 107.63 276.054 107.136 276.375C106.647 276.696 106.303 277.204 106.104 277.898L104.725 277.493C104.963 276.561 105.442 275.838 106.162 275.324C106.882 274.81 107.817 274.553 108.967 274.553C109.919 274.553 110.725 274.733 111.388 275.093C112.056 275.446 112.528 275.96 112.805 276.635C112.933 276.937 113.017 277.275 113.056 277.648C113.094 278.02 113.113 278.4 113.113 278.785V285.255H111.85V282.642L112.217 282.796C111.863 283.69 111.314 284.371 110.568 284.84C109.822 285.31 108.929 285.544 107.888 285.544ZM108.051 284.32C108.714 284.32 109.292 284.201 109.787 283.963C110.282 283.725 110.68 283.4 110.983 282.989C111.285 282.571 111.481 282.102 111.571 281.581C111.648 281.247 111.69 280.881 111.696 280.482C111.702 280.077 111.706 279.775 111.706 279.576L112.246 279.856C111.764 279.92 111.24 279.984 110.674 280.048C110.115 280.113 109.562 280.187 109.016 280.27C108.476 280.354 107.987 280.453 107.55 280.569C107.254 280.653 106.968 280.772 106.692 280.926C106.416 281.074 106.187 281.273 106.007 281.524C105.834 281.774 105.747 282.086 105.747 282.459C105.747 282.761 105.821 283.053 105.969 283.336C106.123 283.619 106.367 283.854 106.702 284.04C107.042 284.226 107.492 284.32 108.051 284.32ZM125.105 285.544C123.723 285.544 122.556 285.239 121.605 284.628C120.654 284.011 119.934 283.159 119.445 282.073C118.957 280.987 118.712 279.733 118.712 278.313C118.712 276.892 118.957 275.639 119.445 274.553C119.934 273.466 120.654 272.618 121.605 272.007C122.556 271.39 123.723 271.082 125.105 271.082C126.718 271.082 128.036 271.496 129.058 272.325C130.08 273.148 130.781 274.254 131.16 275.642L129.714 276.018C129.418 274.919 128.888 274.048 128.123 273.405C127.358 272.762 126.352 272.441 125.105 272.441C124.019 272.441 123.116 272.689 122.396 273.184C121.676 273.678 121.133 274.369 120.766 275.256C120.406 276.137 120.22 277.156 120.207 278.313C120.201 279.47 120.377 280.489 120.737 281.369C121.104 282.25 121.65 282.941 122.376 283.442C123.109 283.937 124.019 284.185 125.105 284.185C126.352 284.185 127.358 283.863 128.123 283.221C128.888 282.571 129.418 281.7 129.714 280.608L131.16 280.984C130.781 282.372 130.08 283.481 129.058 284.31C128.036 285.133 126.718 285.544 125.105 285.544ZM137.636 285.544C136.601 285.544 135.717 285.31 134.984 284.84C134.251 284.371 133.689 283.722 133.297 282.893C132.905 282.064 132.709 281.112 132.709 280.039C132.709 278.946 132.908 277.988 133.307 277.166C133.705 276.343 134.271 275.703 135.003 275.247C135.743 274.784 136.62 274.553 137.636 274.553C138.677 274.553 139.564 274.787 140.297 275.256C141.036 275.719 141.598 276.365 141.984 277.194C142.376 278.017 142.572 278.965 142.572 280.039C142.572 281.131 142.376 282.092 141.984 282.922C141.592 283.744 141.026 284.387 140.287 284.85C139.548 285.313 138.664 285.544 137.636 285.544ZM137.636 284.185C138.793 284.185 139.654 283.802 140.22 283.037C140.785 282.266 141.068 281.266 141.068 280.039C141.068 278.779 140.782 277.776 140.21 277.031C139.644 276.285 138.786 275.912 137.636 275.912C136.858 275.912 136.215 276.089 135.707 276.442C135.206 276.79 134.83 277.275 134.579 277.898C134.335 278.515 134.213 279.229 134.213 280.039C134.213 281.292 134.502 282.298 135.081 283.057C135.659 283.809 136.511 284.185 137.636 284.185ZM152.22 285.255V279.942C152.22 279.364 152.165 278.834 152.056 278.351C151.946 277.863 151.77 277.439 151.525 277.079C151.288 276.712 150.976 276.43 150.59 276.23C150.211 276.031 149.748 275.931 149.202 275.931C148.7 275.931 148.257 276.018 147.871 276.192C147.492 276.365 147.171 276.616 146.907 276.944C146.65 277.265 146.454 277.657 146.319 278.12C146.184 278.583 146.116 279.11 146.116 279.701L145.114 279.48C145.114 278.413 145.3 277.516 145.673 276.79C146.046 276.063 146.56 275.514 147.216 275.141C147.871 274.768 148.623 274.582 149.472 274.582C150.095 274.582 150.638 274.678 151.101 274.871C151.57 275.064 151.966 275.324 152.287 275.652C152.615 275.98 152.879 276.356 153.078 276.78C153.277 277.198 153.422 277.644 153.512 278.12C153.602 278.589 153.647 279.059 153.647 279.528V285.255H152.22ZM144.689 285.255V274.842H145.972V277.407H146.116V285.255H144.689ZM158.964 285.255L155.184 274.842H156.621L159.697 283.404L162.753 274.842H164.209L160.43 285.255H158.964ZM169.971 285.544C168.955 285.544 168.074 285.319 167.329 284.869C166.59 284.419 166.014 283.786 165.603 282.97C165.192 282.154 164.986 281.196 164.986 280.097C164.986 278.959 165.188 277.975 165.593 277.146C165.998 276.317 166.567 275.677 167.3 275.228C168.039 274.778 168.91 274.553 169.913 274.553C170.941 274.553 171.819 274.79 172.545 275.266C173.271 275.735 173.821 276.41 174.194 277.291C174.567 278.171 174.737 279.222 174.705 280.444H173.258V279.942C173.233 278.593 172.94 277.574 172.381 276.886C171.828 276.198 171.018 275.854 169.951 275.854C168.833 275.854 167.975 276.217 167.377 276.944C166.786 277.67 166.49 278.705 166.49 280.048C166.49 281.36 166.786 282.378 167.377 283.105C167.975 283.825 168.82 284.185 169.913 284.185C170.658 284.185 171.308 284.014 171.86 283.674C172.42 283.327 172.86 282.828 173.181 282.179L174.502 282.69C174.091 283.597 173.483 284.3 172.68 284.802C171.883 285.297 170.98 285.544 169.971 285.544ZM165.989 280.444V279.258H173.943V280.444H165.989ZM176.844 285.255V274.842H178.117V277.349L177.866 277.021C177.982 276.712 178.133 276.43 178.32 276.172C178.506 275.909 178.708 275.694 178.927 275.526C179.197 275.289 179.512 275.109 179.872 274.987C180.232 274.858 180.595 274.784 180.961 274.765C181.328 274.739 181.662 274.765 181.964 274.842V276.172C181.585 276.076 181.17 276.054 180.72 276.105C180.27 276.156 179.856 276.336 179.477 276.645C179.129 276.915 178.869 277.239 178.696 277.619C178.522 277.992 178.406 278.39 178.349 278.814C178.291 279.232 178.262 279.647 178.262 280.058V285.255H176.844ZM187.302 285.535C186.081 285.535 185.075 285.271 184.284 284.744C183.5 284.217 183.018 283.484 182.838 282.546L184.284 282.305C184.439 282.896 184.789 283.368 185.335 283.722C185.888 284.069 186.569 284.243 187.379 284.243C188.17 284.243 188.793 284.079 189.25 283.751C189.706 283.417 189.934 282.963 189.934 282.391C189.934 282.07 189.86 281.81 189.713 281.61C189.571 281.405 189.279 281.215 188.835 281.041C188.392 280.868 187.73 280.662 186.849 280.424C185.904 280.167 185.165 279.91 184.631 279.653C184.098 279.396 183.719 279.1 183.494 278.766C183.269 278.425 183.156 278.011 183.156 277.522C183.156 276.931 183.323 276.413 183.658 275.97C183.992 275.52 184.455 275.173 185.046 274.929C185.637 274.678 186.325 274.553 187.109 274.553C187.894 274.553 188.594 274.681 189.211 274.938C189.835 275.189 190.336 275.543 190.715 275.999C191.095 276.455 191.32 276.986 191.39 277.59L189.944 277.85C189.848 277.239 189.542 276.757 189.028 276.404C188.52 276.044 187.874 275.857 187.09 275.845C186.351 275.825 185.75 275.967 185.287 276.269C184.824 276.565 184.593 276.96 184.593 277.455C184.593 277.731 184.676 277.969 184.844 278.168C185.011 278.361 185.313 278.544 185.75 278.718C186.193 278.891 186.823 279.081 187.64 279.287C188.597 279.531 189.349 279.788 189.896 280.058C190.442 280.328 190.831 280.646 191.062 281.013C191.294 281.379 191.41 281.832 191.41 282.372C191.41 283.355 191.043 284.13 190.31 284.696C189.584 285.255 188.581 285.535 187.302 285.535ZM196.527 285.544C195.743 285.544 195.084 285.403 194.551 285.12C194.024 284.837 193.628 284.461 193.365 283.992C193.101 283.523 192.969 283.012 192.969 282.459C192.969 281.893 193.082 281.411 193.307 281.013C193.538 280.608 193.85 280.277 194.242 280.019C194.641 279.762 195.1 279.566 195.621 279.431C196.148 279.303 196.73 279.19 197.366 279.094C198.009 278.991 198.635 278.904 199.246 278.834C199.863 278.756 200.403 278.682 200.866 278.612L200.365 278.92C200.384 277.892 200.185 277.13 199.767 276.635C199.349 276.14 198.623 275.893 197.588 275.893C196.874 275.893 196.27 276.054 195.775 276.375C195.287 276.696 194.943 277.204 194.743 277.898L193.365 277.493C193.603 276.561 194.081 275.838 194.801 275.324C195.521 274.81 196.456 274.553 197.607 274.553C198.558 274.553 199.365 274.733 200.027 275.093C200.696 275.446 201.168 275.96 201.444 276.635C201.573 276.937 201.657 277.275 201.695 277.648C201.734 278.02 201.753 278.4 201.753 278.785V285.255H200.49V282.642L200.856 282.796C200.503 283.69 199.953 284.371 199.208 284.84C198.462 285.31 197.568 285.544 196.527 285.544ZM196.691 284.32C197.353 284.32 197.932 284.201 198.427 283.963C198.922 283.725 199.32 283.4 199.622 282.989C199.924 282.571 200.12 282.102 200.21 281.581C200.287 281.247 200.329 280.881 200.336 280.482C200.342 280.077 200.345 279.775 200.345 279.576L200.885 279.856C200.403 279.92 199.879 279.984 199.314 280.048C198.754 280.113 198.202 280.187 197.655 280.27C197.115 280.354 196.627 280.453 196.19 280.569C195.894 280.653 195.608 280.772 195.332 280.926C195.055 281.074 194.827 281.273 194.647 281.524C194.473 281.774 194.387 282.086 194.387 282.459C194.387 282.761 194.461 283.053 194.608 283.336C194.763 283.619 195.007 283.854 195.341 284.04C195.682 284.226 196.132 284.32 196.691 284.32ZM209.932 285.255C209.347 285.377 208.769 285.425 208.197 285.4C207.631 285.374 207.123 285.252 206.673 285.033C206.23 284.815 205.892 284.474 205.661 284.011C205.475 283.625 205.372 283.237 205.352 282.844C205.34 282.446 205.333 281.993 205.333 281.485V271.949H206.741V281.427C206.741 281.864 206.744 282.231 206.751 282.526C206.763 282.816 206.831 283.073 206.953 283.298C207.184 283.728 207.551 283.985 208.052 284.069C208.56 284.153 209.187 284.133 209.932 284.011V285.255ZM203.106 276.057V274.842H209.932V276.057H203.106ZM212.177 272.865V271.274H213.594V272.865H212.177ZM212.177 285.255V274.842H213.594V285.255H212.177ZM220.833 285.544C219.798 285.544 218.914 285.31 218.182 284.84C217.449 284.371 216.886 283.722 216.494 282.893C216.102 282.064 215.906 281.112 215.906 280.039C215.906 278.946 216.105 277.988 216.504 277.166C216.902 276.343 217.468 275.703 218.201 275.247C218.94 274.784 219.817 274.553 220.833 274.553C221.874 274.553 222.761 274.787 223.494 275.256C224.233 275.719 224.796 276.365 225.181 277.194C225.573 278.017 225.77 278.965 225.77 280.039C225.77 281.131 225.573 282.092 225.181 282.922C224.789 283.744 224.224 284.387 223.484 284.85C222.745 285.313 221.861 285.544 220.833 285.544ZM220.833 284.185C221.99 284.185 222.851 283.802 223.417 283.037C223.983 282.266 224.265 281.266 224.265 280.039C224.265 278.779 223.979 277.776 223.407 277.031C222.842 276.285 221.984 275.912 220.833 275.912C220.055 275.912 219.412 276.089 218.905 276.442C218.403 276.79 218.027 277.275 217.777 277.898C217.532 278.515 217.41 279.229 217.41 280.039C217.41 281.292 217.699 282.298 218.278 283.057C218.856 283.809 219.708 284.185 220.833 284.185ZM235.417 285.255V279.942C235.417 279.364 235.362 278.834 235.253 278.351C235.144 277.863 234.967 277.439 234.723 277.079C234.485 276.712 234.173 276.43 233.788 276.23C233.408 276.031 232.945 275.931 232.399 275.931C231.898 275.931 231.454 276.018 231.069 276.192C230.689 276.365 230.368 276.616 230.104 276.944C229.847 277.265 229.651 277.657 229.516 278.12C229.381 278.583 229.314 279.11 229.314 279.701L228.311 279.48C228.311 278.413 228.497 277.516 228.87 276.79C229.243 276.063 229.757 275.514 230.413 275.141C231.069 274.768 231.821 274.582 232.669 274.582C233.293 274.582 233.836 274.678 234.299 274.871C234.768 275.064 235.163 275.324 235.484 275.652C235.812 275.98 236.076 276.356 236.275 276.78C236.474 277.198 236.619 277.644 236.709 278.12C236.799 278.589 236.844 279.059 236.844 279.528V285.255H235.417ZM227.887 285.255V274.842H229.169V277.407H229.314V285.255H227.887Z" fill="black"/>
<defs>
<linearGradient id="paint0_linear_280_3422" x1="212.215" y1="134.313" x2="212.615" y2="136.583" gradientUnits="userSpaceOnUse">
<stop stop-color="#7BC05C"/>
<stop offset="0.12" stop-color="#68BB68"/>
<stop offset="0.37" stop-color="#38AF88"/>
<stop offset="0.46" stop-color="#26AB95"/>
<stop offset="0.73" stop-color="#0C9DA9"/>
<stop offset="0.82" stop-color="#0398B1"/>
<stop offset="1" stop-color="#0398B1"/>
</linearGradient>
<linearGradient id="paint1_linear_280_3422" x1="196.686" y1="136.056" x2="197.086" y2="138.326" gradientUnits="userSpaceOnUse">
<stop stop-color="#7BC05C"/>
<stop offset="0.12" stop-color="#68BB68"/>
<stop offset="0.37" stop-color="#38AF88"/>
<stop offset="0.46" stop-color="#26AB95"/>
<stop offset="0.73" stop-color="#0C9DA9"/>
<stop offset="0.82" stop-color="#0398B1"/>
<stop offset="1" stop-color="#0398B1"/>
</linearGradient>
<linearGradient id="paint2_linear_280_3422" x1="204.457" y1="135.186" x2="204.857" y2="137.456" gradientUnits="userSpaceOnUse">
<stop stop-color="#7BC05C"/>
<stop offset="0.12" stop-color="#68BB68"/>
<stop offset="0.37" stop-color="#38AF88"/>
<stop offset="0.46" stop-color="#26AB95"/>
<stop offset="0.73" stop-color="#0C9DA9"/>
<stop offset="0.82" stop-color="#0398B1"/>
<stop offset="1" stop-color="#0398B1"/>
</linearGradient>
<clipPath id="clip0_280_3422">
<rect width="281.647" height="281.647" fill="white"/>
</clipPath>
</defs>
</svg>
