<svg width="36" height="44" viewBox="0 0 36 44" fill="none" xmlns="http://www.w3.org/2000/svg">
<path d="M9.33572 25.8322H3.61454C1.61878 25.8322 0 24.145 0 22.0649V11.0403H5.0027V20.7567H14.3384V30.1958C20.4854 25.6566 27.4838 22.2914 35.0367 20.4147C27.435 24.6581 20.5696 30.2189 14.7509 36.8476C12.8216 39.0386 11.0122 41.3499 9.32685 43.7674V25.8322H9.33572Z" fill="#2A8FEA"/>
<path d="M35.0367 4.31517V15.4553C33.205 15.8714 31.3955 16.3613 29.6171 16.9253V6.20114H0V4.31517C0 2.23505 1.61878 0.547852 3.61454 0.547852H31.4221C33.4179 0.547852 35.0367 2.23505 35.0367 4.31517Z" fill="#2A8FEA"/>
</svg>
