<svg width="53" height="63" viewBox="0 0 53 63" fill="none" xmlns="http://www.w3.org/2000/svg">
<path d="M14.3602 36.6605H5.81574C2.83511 36.6605 0.41748 34.2474 0.41748 31.2723V15.5045H7.88894V29.4013H21.8317V42.9015C31.012 36.4092 41.4641 31.5963 52.7442 28.9121C41.3913 34.9812 31.1379 42.9345 22.4477 52.415C19.5664 55.5488 16.864 58.8544 14.347 62.312V36.6605H14.3602Z" fill="white"/>
<path d="M52.7442 5.88412V21.8172C50.0086 22.4122 47.3062 23.113 44.6501 23.9196V8.58151H0.41748V5.88412C0.41748 2.90907 2.83511 0.495972 5.81574 0.495972H47.3459C50.3265 0.495972 52.7442 2.90907 52.7442 5.88412Z" fill="white"/>
</svg>
