<svg width="25" height="25" viewBox="0 0 25 25" fill="none" xmlns="http://www.w3.org/2000/svg">
<path d="M23.4503 14.5324C23.3715 14.5915 23.2818 14.6345 23.1864 14.659C23.091 14.6834 22.9917 14.6888 22.8942 14.6749C22.7967 14.661 22.7029 14.628 22.6182 14.5778C22.5334 14.5276 22.4594 14.4612 22.4003 14.3824C21.9482 13.7748 21.3598 13.2818 20.6824 12.9431C20.0051 12.6044 19.2576 12.4295 18.5003 12.4324C18.3528 12.4324 18.2086 12.3889 18.0857 12.3074C17.9628 12.2258 17.8667 12.1099 17.8093 11.974C17.7704 11.8817 17.7504 11.7826 17.7504 11.6824C17.7504 11.5823 17.7704 11.4831 17.8093 11.3909C17.8667 11.255 17.9628 11.139 18.0857 11.0575C18.2086 10.9759 18.3528 10.9324 18.5003 10.9324C18.9211 10.9324 19.3335 10.8143 19.6906 10.5917C20.0476 10.369 20.3351 10.0507 20.5204 9.67285C20.7056 9.29499 20.7812 8.87276 20.7385 8.45412C20.6958 8.03547 20.5365 7.63719 20.2788 7.30452C20.0211 6.97184 19.6753 6.71811 19.2806 6.57214C18.8859 6.42616 18.4582 6.3938 18.046 6.47873C17.6338 6.56366 17.2538 6.76247 16.9489 7.05258C16.6441 7.34269 16.4267 7.71248 16.3215 8.11993C16.2969 8.21535 16.2537 8.30498 16.1945 8.3837C16.1352 8.46243 16.061 8.52872 15.9761 8.57877C15.8913 8.62883 15.7974 8.66168 15.6998 8.67544C15.6022 8.68921 15.5029 8.68362 15.4075 8.659C15.3121 8.63437 15.2224 8.5912 15.1437 8.53194C15.065 8.47267 14.9987 8.39849 14.9486 8.31361C14.8986 8.22873 14.8657 8.13482 14.852 8.03725C14.8382 7.93968 14.8438 7.84035 14.8684 7.74493C15.0144 7.17992 15.2903 6.65677 15.6741 6.21714C16.0579 5.7775 16.539 5.4335 17.0791 5.21251C17.6192 4.99152 18.2034 4.89964 18.7853 4.94418C19.3672 4.98872 19.9307 5.16845 20.4309 5.46907C20.931 5.76969 21.3542 6.1829 21.6666 6.67583C21.979 7.16875 22.172 7.72778 22.2303 8.30844C22.2887 8.8891 22.2107 9.47536 22.0026 10.0206C21.7944 10.5658 21.4619 11.0549 21.0315 11.449C22.0514 11.8906 22.9379 12.5913 23.6031 13.4815C23.6622 13.5605 23.7051 13.6504 23.7294 13.746C23.7537 13.8416 23.7589 13.941 23.7447 14.0387C23.7305 14.1363 23.6972 14.2302 23.6467 14.3149C23.5962 14.3996 23.5294 14.4735 23.4503 14.5324ZM18.399 20.3074C18.4533 20.3928 18.4897 20.4883 18.5062 20.5881C18.5226 20.6879 18.5186 20.79 18.4946 20.8882C18.4705 20.9865 18.4268 21.0788 18.3661 21.1598C18.3054 21.2407 18.229 21.3085 18.1414 21.3591C18.0539 21.4097 17.9569 21.4421 17.8565 21.4543C17.7561 21.4665 17.6543 21.4583 17.5571 21.4301C17.46 21.4019 17.3695 21.3544 17.2912 21.2903C17.213 21.2263 17.1484 21.1471 17.1015 21.0574C16.6291 20.2574 15.9562 19.5944 15.1493 19.1339C14.3424 18.6733 13.4294 18.4311 12.5003 18.4311C11.5712 18.4311 10.6582 18.6733 9.85126 19.1339C9.04436 19.5944 8.37149 20.2574 7.89903 21.0574C7.85215 21.1471 7.78762 21.2263 7.70932 21.2903C7.63102 21.3544 7.54058 21.4019 7.44344 21.4301C7.34629 21.4583 7.24445 21.4665 7.14403 21.4543C7.04362 21.4421 6.94671 21.4097 6.85914 21.3591C6.77156 21.3085 6.69513 21.2407 6.63445 21.1598C6.57376 21.0788 6.53007 20.9865 6.50601 20.8882C6.48194 20.79 6.478 20.6879 6.49441 20.5881C6.51083 20.4883 6.54727 20.3928 6.60153 20.3074C7.32866 19.0581 8.43734 18.0749 9.76466 17.5024C9.01778 16.9306 8.46887 16.1391 8.1951 15.2391C7.92132 14.3392 7.93644 13.3761 8.23833 12.4852C8.54022 11.5943 9.1137 10.8204 9.87816 10.2723C10.6426 9.7242 11.5596 9.42943 12.5003 9.42943C13.4409 9.42943 14.3579 9.7242 15.1224 10.2723C15.8869 10.8204 16.4603 11.5943 16.7622 12.4852C17.0641 13.3761 17.0792 14.3392 16.8055 15.2391C16.5317 16.1391 15.9828 16.9306 15.2359 17.5024C16.5632 18.0749 17.6719 19.0581 18.399 20.3074ZM12.5003 16.9324C13.0936 16.9324 13.6736 16.7565 14.167 16.4268C14.6603 16.0972 15.0449 15.6287 15.2719 15.0805C15.499 14.5323 15.5584 13.9291 15.4426 13.3472C15.3269 12.7652 15.0412 12.2307 14.6216 11.8111C14.202 11.3916 13.6675 11.1058 13.0856 10.9901C12.5036 10.8743 11.9004 10.9337 11.3522 11.1608C10.8041 11.3879 10.3355 11.7724 10.0059 12.2657C9.67623 12.7591 9.50028 13.3391 9.50028 13.9324C9.50028 14.7281 9.81635 15.4911 10.379 16.0538C10.9416 16.6164 11.7046 16.9324 12.5003 16.9324ZM7.25028 11.6824C7.25028 11.4835 7.17127 11.2928 7.03061 11.1521C6.88996 11.0115 6.6992 10.9324 6.50028 10.9324C6.07947 10.9324 5.66709 10.8143 5.31 10.5917C4.95292 10.369 4.66543 10.0507 4.48019 9.67285C4.29495 9.29499 4.21939 8.87276 4.26209 8.45412C4.3048 8.03547 4.46405 7.63719 4.72176 7.30452C4.97947 6.97184 5.32531 6.71811 5.72 6.57214C6.11469 6.42616 6.54241 6.3938 6.95457 6.47873C7.36672 6.56366 7.7468 6.76247 8.05164 7.05258C8.35647 7.34269 8.57383 7.71248 8.67903 8.11993C8.72876 8.31263 8.853 8.47768 9.02442 8.57877C9.19584 8.67987 9.4004 8.70872 9.5931 8.659C9.78579 8.60927 9.95084 8.48503 10.0519 8.31361C10.153 8.14219 10.1819 7.93763 10.1322 7.74493C9.98614 7.17992 9.71026 6.65677 9.32648 6.21714C8.9427 5.7775 8.46161 5.4335 7.92149 5.21251C7.38137 4.99152 6.79712 4.89964 6.21524 4.94418C5.63336 4.98872 5.06991 5.16845 4.56972 5.46907C4.06952 5.76969 3.64639 6.1829 3.33399 6.67583C3.02159 7.16875 2.82855 7.72778 2.77022 8.30844C2.7119 8.8891 2.7899 9.47536 2.99801 10.0206C3.20613 10.5658 3.53862 11.0549 3.96903 11.449C2.95024 11.891 2.0647 12.5916 1.40028 13.4815C1.28081 13.6406 1.22945 13.8407 1.25749 14.0377C1.28553 14.2347 1.39069 14.4125 1.54982 14.532C1.70895 14.6514 1.90902 14.7028 2.10602 14.6748C2.30302 14.6467 2.48081 14.5416 2.60028 14.3824C3.05233 13.7748 3.64073 13.2818 4.31812 12.9431C4.99551 12.6044 5.74295 12.4295 6.50028 12.4324C6.6992 12.4324 6.88996 12.3534 7.03061 12.2128C7.17127 12.0721 7.25028 11.8813 7.25028 11.6824Z" fill="#3A3A3A"/>
</svg>
