<svg width="24" height="17" viewBox="0 0 24 17" fill="none" xmlns="http://www.w3.org/2000/svg">
<path d="M5.86526 9.43284C5.86781 9.48364 5.85999 9.53443 5.84229 9.58211C5.82458 9.62979 5.79736 9.67338 5.76228 9.71021C5.72721 9.74704 5.685 9.77635 5.63824 9.79636C5.59147 9.81637 5.54113 9.82665 5.49026 9.82659H1.35401C1.18473 9.82685 1.02035 9.76983 0.887583 9.66481C0.754819 9.55979 0.661487 9.41294 0.622764 9.24815C0.598653 9.13536 0.599764 9.01863 0.626019 8.90632C0.652274 8.794 0.703024 8.68888 0.774639 8.59846C1.43633 7.72094 2.31429 7.03002 3.32276 6.59315C2.88001 6.18947 2.54043 5.68557 2.33246 5.12366C2.12449 4.56174 2.0542 3.95818 2.12746 3.36351C2.20073 2.76885 2.41542 2.20039 2.75355 1.70576C3.09168 1.21113 3.54342 0.80472 4.07092 0.520572C4.59841 0.236425 5.18632 0.0828111 5.7854 0.072597C6.38447 0.0623829 6.97727 0.195866 7.51415 0.461866C8.05103 0.727866 8.51636 1.11864 8.87115 1.60146C9.22595 2.08427 9.4599 2.64508 9.55339 3.2369C9.56546 3.31649 9.5512 3.39784 9.51279 3.46858C9.47437 3.53932 9.4139 3.59557 9.34058 3.62878C8.30032 4.10969 7.41932 4.87813 6.80155 5.84341C6.18377 6.8087 5.855 7.93055 5.85401 9.07659C5.85401 9.19659 5.85401 9.31471 5.86526 9.43284ZM22.9278 8.59753C22.2676 7.72103 21.3917 7.03047 20.3853 6.59315C20.828 6.18947 21.1676 5.68557 21.3756 5.12366C21.5835 4.56174 21.6538 3.95818 21.5806 3.36351C21.5073 2.76885 21.2926 2.20039 20.9545 1.70576C20.6163 1.21113 20.1646 0.80472 19.6371 0.520572C19.1096 0.236425 18.5217 0.0828111 17.9226 0.072597C17.3236 0.0623829 16.7308 0.195866 16.1939 0.461866C15.657 0.727866 15.1917 1.11864 14.8369 1.60146C14.4821 2.08427 14.2481 2.64508 14.1546 3.2369C14.1426 3.31649 14.1568 3.39784 14.1952 3.46858C14.2337 3.53932 14.2941 3.59557 14.3674 3.62878C15.4077 4.10969 16.2887 4.87813 16.9065 5.84341C17.5243 6.8087 17.853 7.93055 17.854 9.07659C17.854 9.19659 17.854 9.31471 17.8428 9.43284C17.8402 9.48364 17.848 9.53443 17.8657 9.58211C17.8834 9.62979 17.9107 9.67338 17.9457 9.71021C17.9808 9.74704 18.023 9.77635 18.0698 9.79636C18.1166 9.81637 18.1669 9.82665 18.2178 9.82659H22.354C22.5233 9.82685 22.6877 9.76983 22.8204 9.66481C22.9532 9.55979 23.0465 9.41294 23.0853 9.24815C23.1095 9.13515 23.1084 9.01818 23.082 8.90567C23.0555 8.79315 23.0045 8.68791 22.9324 8.59753H22.9278ZM14.584 12.6457C15.3308 12.0737 15.8796 11.2822 16.1532 10.3823C16.4269 9.48239 16.4117 8.51935 16.1098 7.62852C15.8078 6.73769 15.2344 5.96387 14.4699 5.41581C13.7055 4.86775 12.7885 4.57301 11.8479 4.57301C10.9073 4.57301 9.99036 4.86775 9.22592 5.41581C8.46148 5.96387 7.88799 6.73769 7.58606 7.62852C7.28413 8.51935 7.26893 9.48239 7.5426 10.3823C7.81628 11.2822 8.36506 12.0737 9.11183 12.6457C7.7867 13.2198 6.6802 14.2031 5.95433 15.4516C5.88849 15.5656 5.85384 15.695 5.85385 15.8266C5.85385 15.9583 5.88852 16.0876 5.95437 16.2017C6.02021 16.3157 6.11492 16.4104 6.22895 16.4762C6.34299 16.542 6.47235 16.5766 6.60401 16.5766H17.104C17.2357 16.5766 17.365 16.542 17.4791 16.4762C17.5931 16.4104 17.6878 16.3157 17.7537 16.2017C17.8195 16.0876 17.8542 15.9583 17.8542 15.8266C17.8542 15.695 17.8195 15.5656 17.7537 15.4516C17.0263 14.2023 15.9177 13.2189 14.5906 12.6457H14.584Z" fill="white"/>
</svg>
