<svg width="23" height="18" viewBox="0 0 23 18" fill="none" xmlns="http://www.w3.org/2000/svg">
<path d="M5.51077 10.2887C5.51332 10.3395 5.5055 10.3903 5.48779 10.438C5.47009 10.4856 5.44287 10.5292 5.40779 10.5661C5.37271 10.6029 5.33051 10.6322 5.28374 10.6522C5.23698 10.6722 5.18664 10.6825 5.13577 10.6824H0.999522C0.830243 10.6827 0.665855 10.6257 0.533091 10.5207C0.400326 10.4156 0.306995 10.2688 0.268272 10.104C0.24416 9.9912 0.245272 9.87448 0.271527 9.76216C0.297782 9.64985 0.348532 9.54472 0.420147 9.45431C1.08184 8.57679 1.95979 7.88586 2.96827 7.449C2.52552 7.04531 2.18593 6.54141 1.97797 5.9795C1.77 5.41759 1.69971 4.81402 1.77297 4.21936C1.84624 3.62469 2.06092 3.05624 2.39906 2.56161C2.73719 2.06697 3.18893 1.66056 3.71642 1.37642C4.24392 1.09227 4.83183 0.938656 5.4309 0.928442C6.02998 0.918227 6.62278 1.05171 7.15966 1.31771C7.69654 1.58371 8.16186 1.97448 8.51666 2.4573C8.87146 2.94012 9.1054 3.50092 9.1989 4.09275C9.21097 4.17233 9.19671 4.25368 9.1583 4.32442C9.11988 4.39516 9.05941 4.45141 8.98608 4.48462C7.94583 4.96554 7.06483 5.73397 6.44706 6.69926C5.82928 7.66454 5.50051 8.78639 5.49952 9.93243C5.49952 10.0524 5.49952 10.1706 5.51077 10.2887ZM22.5733 9.45337C21.9131 8.57687 21.0372 7.88632 20.0308 7.449C20.4735 7.04531 20.8131 6.54141 21.0211 5.9795C21.229 5.41759 21.2993 4.81402 21.2261 4.21936C21.1528 3.62469 20.9381 3.05624 20.6 2.56161C20.2619 2.06697 19.8101 1.66056 19.2826 1.37642C18.7551 1.09227 18.1672 0.938656 17.5681 0.928442C16.9691 0.918227 16.3763 1.05171 15.8394 1.31771C15.3025 1.58371 14.8372 1.97448 14.4824 2.4573C14.1276 2.94012 13.8936 3.50092 13.8001 4.09275C13.7881 4.17233 13.8023 4.25368 13.8407 4.32442C13.8792 4.39516 13.9396 4.45141 14.013 4.48462C15.0532 4.96554 15.9342 5.73397 16.552 6.69926C17.1698 7.66454 17.4985 8.78639 17.4995 9.93243C17.4995 10.0524 17.4995 10.1706 17.4883 10.2887C17.4857 10.3395 17.4935 10.3903 17.5112 10.438C17.529 10.4856 17.5562 10.5292 17.5912 10.5661C17.6263 10.6029 17.6685 10.6322 17.7153 10.6522C17.7621 10.6722 17.8124 10.6825 17.8633 10.6824H21.9995C22.1688 10.6827 22.3332 10.6257 22.466 10.5207C22.5987 10.4156 22.692 10.2688 22.7308 10.104C22.755 9.991 22.7539 9.87402 22.7275 9.76151C22.7011 9.649 22.65 9.54375 22.578 9.45337H22.5733ZM14.2295 13.5015C14.9763 12.9296 15.5251 12.1381 15.7987 11.2381C16.0724 10.3382 16.0572 9.37519 15.7553 8.48436C15.4534 7.59354 14.8799 6.81971 14.1154 6.27165C13.351 5.72359 12.434 5.42885 11.4934 5.42885C10.5528 5.42885 9.63586 5.72359 8.87142 6.27165C8.10699 6.81971 7.5335 7.59354 7.23157 8.48436C6.92964 9.37519 6.91444 10.3382 7.18811 11.2381C7.46178 12.1381 8.01057 12.9296 8.75733 13.5015C7.43221 14.0757 6.32571 15.059 5.59983 16.3074C5.534 16.4215 5.49935 16.5508 5.49935 16.6825C5.49936 16.8141 5.53403 16.9435 5.59988 17.0575C5.66572 17.1715 5.76042 17.2662 5.87446 17.332C5.9885 17.3978 6.11786 17.4325 6.24952 17.4324H16.7495C16.8812 17.4325 17.0105 17.3978 17.1246 17.332C17.2386 17.2662 17.3333 17.1715 17.3992 17.0575C17.465 16.9435 17.4997 16.8141 17.4997 16.6825C17.4997 16.5508 17.465 16.4215 17.3992 16.3074C16.6718 15.0581 15.5632 14.0748 14.2361 13.5015H14.2295Z" fill="#2A8FEA"/>
</svg>
