<svg width="2227" height="84" viewBox="0 0 2227 84" fill="none" xmlns="http://www.w3.org/2000/svg">
<path d="M743.199 15.3363L1116.04 15.3363V-4.76837e-06L743.199 -4.76837e-06V15.3363Z" fill="white"/>
<path d="M372.843 15.3363L745.686 15.3363V-4.76837e-06L372.843 -4.76837e-06V15.3363Z" fill="white"/>
<path d="M6.10352e-05 15.3363L372.843 15.3363V-4.76837e-06L6.10352e-05 -4.76837e-06V15.3363Z" fill="white"/>
<path d="M1102.97 2.58501L1110.27 7.66561L1102.97 12.7512L1095.67 7.66561L1102.97 2.58501Z" fill="#D8EBF8"/>
<path d="M1086.46 2.58501L1093.77 7.66561L1086.46 12.7512L1079.16 7.66561L1086.46 2.58501Z" fill="#D8EBF8"/>
<path d="M1069.95 2.58501L1077.26 7.66561L1069.95 12.7512L1062.65 7.66561L1069.95 2.58501Z" fill="#D8EBF8"/>
<path d="M1053.44 2.58501L1060.75 7.66561L1053.44 12.7512L1046.14 7.66561L1053.44 2.58501Z" fill="#D8EBF8"/>
<path d="M1036.93 2.58501L1044.24 7.66561L1036.93 12.7512L1029.63 7.66561L1036.93 2.58501Z" fill="#D8EBF8"/>
<path d="M1020.42 2.58501L1027.73 7.66561L1020.42 12.7512L1013.12 7.66561L1020.42 2.58501Z" fill="#D8EBF8"/>
<path d="M1003.92 2.58501L1011.22 7.66561L1003.92 12.7512L996.613 7.66561L1003.92 2.58501Z" fill="#D8EBF8"/>
<path d="M987.406 2.58501L994.709 7.66561L987.406 12.7512L980.104 7.66561L987.406 2.58501Z" fill="#D8EBF8"/>
<path d="M970.897 2.58501L978.199 7.66561L970.897 12.7512L963.589 7.66561L970.897 2.58501Z" fill="#D8EBF8"/>
<path d="M954.387 2.58501L961.69 7.66561L954.387 12.7512L947.079 7.66561L954.387 2.58501Z" fill="#D8EBF8"/>
<path d="M937.877 2.58501L945.18 7.66561L937.877 12.7512L930.569 7.66561L937.877 2.58501Z" fill="#D8EBF8"/>
<path d="M921.363 2.58501L928.671 7.66561L921.363 12.7512L914.061 7.66561L921.363 2.58501Z" fill="#D8EBF8"/>
<path d="M904.854 2.58501L912.161 7.66561L904.854 12.7512L897.551 7.66561L904.854 2.58501Z" fill="#D8EBF8"/>
<path d="M888.344 2.58501L895.651 7.66561L888.344 12.7512L881.041 7.66561L888.344 2.58501Z" fill="#D8EBF8"/>
<path d="M871.835 2.58501L879.138 7.66561L871.835 12.7512L864.532 7.66561L871.835 2.58501Z" fill="#D8EBF8"/>
<path d="M855.325 2.58501L862.628 7.66561L855.325 12.7512L848.022 7.66561L855.325 2.58501Z" fill="#D8EBF8"/>
<path d="M838.815 2.58501L846.118 7.66561L838.815 12.7512L831.513 7.66561L838.815 2.58501Z" fill="#D8EBF8"/>
<path d="M822.307 2.58501L829.609 7.66561L822.307 12.7512L815.004 7.66561L822.307 2.58501Z" fill="#D8EBF8"/>
<path d="M805.797 2.58501L813.1 7.66561L805.797 12.7512L798.494 7.66561L805.797 2.58501Z" fill="#D8EBF8"/>
<path d="M789.287 2.58501L796.59 7.66561L789.287 12.7512L781.984 7.66561L789.287 2.58501Z" fill="#D8EBF8"/>
<path d="M772.777 2.58501L780.08 7.66561L772.777 12.7512L765.475 7.66561L772.777 2.58501Z" fill="#D8EBF8"/>
<path d="M756.269 2.58498L763.571 7.66558L756.269 12.7512L748.966 7.66558L756.269 2.58498Z" fill="#D8EBF8"/>
<path d="M732.616 2.58501L739.919 7.66561L732.616 12.7512L725.313 7.66561L732.616 2.58501Z" fill="#D8EBF8"/>
<path d="M716.106 2.58501L723.409 7.66561L716.106 12.7512L708.804 7.66561L716.106 2.58501Z" fill="#D8EBF8"/>
<path d="M699.597 2.58501L706.899 7.66561L699.597 12.7512L692.294 7.66561L699.597 2.58501Z" fill="#D8EBF8"/>
<path d="M683.088 2.58501L690.391 7.66561L683.088 12.7512L675.785 7.66561L683.088 2.58501Z" fill="#D8EBF8"/>
<path d="M666.578 2.58501L673.881 7.66561L666.578 12.7512L659.275 7.66561L666.578 2.58501Z" fill="#D8EBF8"/>
<path d="M650.068 2.58501L657.371 7.66561L650.068 12.7512L642.766 7.66561L650.068 2.58501Z" fill="#D8EBF8"/>
<path d="M633.56 2.58501L640.862 7.66561L633.56 12.7512L626.257 7.66561L633.56 2.58501Z" fill="#D8EBF8"/>
<path d="M617.05 2.58501L624.353 7.66561L617.05 12.7512L609.747 7.66561L617.05 2.58501Z" fill="#D8EBF8"/>
<path d="M600.54 2.58501L607.843 7.66561L600.54 12.7512L593.232 7.66561L600.54 2.58501Z" fill="#D8EBF8"/>
<path d="M584.03 2.58501L591.333 7.66561L584.03 12.7512L576.723 7.66561L584.03 2.58501Z" fill="#D8EBF8"/>
<path d="M567.521 2.58501L574.823 7.66561L567.521 12.7512L560.213 7.66561L567.521 2.58501Z" fill="#D8EBF8"/>
<path d="M551.007 2.58501L558.315 7.66561L551.007 12.7512L543.704 7.66561L551.007 2.58501Z" fill="#D8EBF8"/>
<path d="M534.497 2.58501L541.805 7.66561L534.497 12.7512L527.194 7.66561L534.497 2.58501Z" fill="#D8EBF8"/>
<path d="M517.987 2.58501L525.295 7.66561L517.987 12.7512L510.685 7.66561L517.987 2.58501Z" fill="#D8EBF8"/>
<path d="M501.479 2.58501L508.781 7.66561L501.479 12.7512L494.176 7.66561L501.479 2.58501Z" fill="#D8EBF8"/>
<path d="M484.969 2.58501L492.272 7.66561L484.969 12.7512L477.666 7.66561L484.969 2.58501Z" fill="#D8EBF8"/>
<path d="M468.459 2.58501L475.762 7.66561L468.459 12.7512L461.156 7.66561L468.459 2.58501Z" fill="#D8EBF8"/>
<path d="M451.95 2.58501L459.253 7.66561L451.95 12.7512L444.647 7.66561L451.95 2.58501Z" fill="#D8EBF8"/>
<path d="M435.44 2.58501L442.743 7.66561L435.44 12.7512L428.138 7.66561L435.44 2.58501Z" fill="#D8EBF8"/>
<path d="M418.931 2.58501L426.233 7.66561L418.931 12.7512L411.628 7.66561L418.931 2.58501Z" fill="#D8EBF8"/>
<path d="M402.421 2.58501L409.724 7.66561L402.421 12.7512L395.118 7.66561L402.421 2.58501Z" fill="#D8EBF8"/>
<path d="M385.912 2.58498L393.215 7.66558L385.912 12.7512L378.609 7.66558L385.912 2.58498Z" fill="#D8EBF8"/>
<path d="M359.773 2.58501L367.076 7.66561L359.773 12.7512L352.471 7.66561L359.773 2.58501Z" fill="#D8EBF8"/>
<path d="M343.264 2.58501L350.566 7.66561L343.264 12.7512L335.961 7.66561L343.264 2.58501Z" fill="#D8EBF8"/>
<path d="M326.754 2.58501L334.057 7.66561L326.754 12.7512L319.451 7.66561L326.754 2.58501Z" fill="#D8EBF8"/>
<path d="M310.245 2.58501L317.548 7.66561L310.245 12.7512L302.942 7.66561L310.245 2.58501Z" fill="#D8EBF8"/>
<path d="M293.735 2.58501L301.038 7.66561L293.735 12.7512L286.433 7.66561L293.735 2.58501Z" fill="#D8EBF8"/>
<path d="M277.226 2.58501L284.528 7.66561L277.226 12.7512L269.923 7.66561L277.226 2.58501Z" fill="#D8EBF8"/>
<path d="M260.717 2.58501L268.02 7.66561L260.717 12.7512L253.414 7.66561L260.717 2.58501Z" fill="#D8EBF8"/>
<path d="M244.207 2.58501L251.51 7.66561L244.207 12.7512L236.904 7.66561L244.207 2.58501Z" fill="#D8EBF8"/>
<path d="M227.697 2.58501L235 7.66561L227.697 12.7512L220.39 7.66561L227.697 2.58501Z" fill="#D8EBF8"/>
<path d="M211.188 2.58501L218.49 7.66561L211.188 12.7512L203.88 7.66561L211.188 2.58501Z" fill="#D8EBF8"/>
<path d="M194.678 2.58501L201.981 7.66561L194.678 12.7512L187.37 7.66561L194.678 2.58501Z" fill="#D8EBF8"/>
<path d="M178.164 2.58501L185.472 7.66561L178.164 12.7512L170.861 7.66561L178.164 2.58501Z" fill="#D8EBF8"/>
<path d="M161.654 2.58501L168.962 7.66561L161.654 12.7512L154.352 7.66561L161.654 2.58501Z" fill="#D8EBF8"/>
<path d="M145.146 2.58501L152.453 7.66561L145.146 12.7512L137.843 7.66561L145.146 2.58501Z" fill="#D8EBF8"/>
<path d="M128.636 2.58501L135.939 7.66561L128.636 12.7512L121.333 7.66561L128.636 2.58501Z" fill="#D8EBF8"/>
<path d="M112.126 2.58501L119.429 7.66561L112.126 12.7512L104.823 7.66561L112.126 2.58501Z" fill="#D8EBF8"/>
<path d="M95.6162 2.58501L102.919 7.66561L95.6162 12.7512L88.3135 7.66561L95.6162 2.58501Z" fill="#D8EBF8"/>
<path d="M79.1074 2.58501L86.4102 7.66561L79.1074 12.7512L71.8047 7.66561L79.1074 2.58501Z" fill="#D8EBF8"/>
<path d="M62.5977 2.58501L69.9004 7.66561L62.5977 12.7512L55.2949 7.66561L62.5977 2.58501Z" fill="#D8EBF8"/>
<path d="M46.0879 2.58501L53.3907 7.66561L46.0879 12.7512L38.7852 7.66561L46.0879 2.58501Z" fill="#D8EBF8"/>
<path d="M29.5791 2.58501L36.8819 7.66561L29.5791 12.7512L22.2764 7.66561L29.5791 2.58501Z" fill="#D8EBF8"/>
<path d="M13.0693 2.58498L20.3721 7.66558L13.0693 12.7512L5.7666 7.66558L13.0693 2.58498Z" fill="#D8EBF8"/>
<path d="M929.621 83.5367V59.983L743.2 59.983V83.5367L929.621 83.5367Z" fill="#D8EBF8"/>
<path d="M559.264 83.5367V59.983L372.842 59.983V83.5367L559.264 83.5367Z" fill="#D8EBF8"/>
<path d="M186.421 83.5367V59.983L-0.000457764 59.983V83.5367L186.421 83.5367Z" fill="#D8EBF8"/>
<path d="M766.559 83.5267L773.424 76.562L789.72 60.0426L789.775 59.983H743.199L766.559 83.5267Z" fill="#002649"/>
<path d="M396.203 83.5267L403.068 76.562L419.364 60.0426L419.418 59.983H372.843L396.203 83.5267Z" fill="#002649"/>
<path d="M23.3598 83.5267L30.2251 76.562L46.5208 60.0426L46.5755 59.983H0L23.3598 83.5267Z" fill="#002649"/>
<path d="M812.902 83.5367L835.993 59.983H789.661L789.716 60.0426L806.031 76.577L812.902 83.5367Z" fill="#002649"/>
<path d="M442.544 83.5367L465.636 59.983H419.304L419.358 60.0426L435.674 76.577L442.544 83.5367Z" fill="#002649"/>
<path d="M69.7015 83.5367L92.7929 59.983H46.4609L46.5156 60.0426L62.8312 76.577L69.7015 83.5367Z" fill="#002649"/>
<path d="M859.711 83.5417L835.993 59.983H883.006L859.711 83.5417Z" fill="white"/>
<path d="M489.354 83.5417L465.636 59.983H512.649L489.354 83.5417Z" fill="white"/>
<path d="M116.511 83.5417L92.793 59.983H139.806L116.511 83.5417Z" fill="white"/>
<path d="M906.326 83.656L882.887 59.983H929.621L906.326 83.656Z" fill="white"/>
<path d="M535.969 83.656L512.529 59.983H559.264L535.969 83.656Z" fill="white"/>
<path d="M163.126 83.656L139.687 59.983H186.421L163.126 83.656Z" fill="white"/>
<path d="M789.77 83.3428C796.148 83.3428 801.95 80.7926 806.17 76.6615C810.505 72.426 813.2 66.5152 813.2 59.983H766.341C766.341 66.5152 769.03 72.421 773.36 76.6515C777.581 80.7926 783.382 83.3428 789.77 83.3428Z" fill="#D8EBF8"/>
<path d="M419.413 83.3428C425.791 83.3428 431.592 80.7926 435.813 76.6615C440.148 72.426 442.842 66.5152 442.842 59.983H395.983C395.983 66.5152 398.673 72.421 403.003 76.6515C407.223 80.7926 413.025 83.3428 419.413 83.3428Z" fill="#D8EBF8"/>
<path d="M46.5701 83.3428C52.9482 83.3428 58.7496 80.7926 62.9702 76.6615C67.3051 72.426 69.9995 66.5152 69.9995 59.983H23.1406C23.1406 66.5152 25.8301 72.421 30.16 76.6515C34.3806 80.7926 40.182 83.3428 46.5701 83.3428Z" fill="#D8EBF8"/>
<path d="M789.755 59.983L813.1 83.5367H766.56L789.755 59.983Z" fill="white"/>
<path d="M419.399 59.983L442.744 83.5367H396.203L419.399 59.983Z" fill="white"/>
<path d="M46.5561 59.983L69.9011 83.5367H23.3604L46.5561 59.983Z" fill="white"/>
<path d="M859.711 83.5367V59.983H835.993V83.5367H859.711Z" fill="#002649"/>
<path d="M489.354 83.5367V59.983H465.636V83.5367H489.354Z" fill="#002649"/>
<path d="M116.511 83.5367V59.983H92.793V83.5367H116.511Z" fill="#002649"/>
<path d="M835.993 59.983V83.5417H859.711L835.993 59.983Z" fill="white"/>
<path d="M465.636 59.983V83.5417H489.354L465.636 59.983Z" fill="white"/>
<path d="M92.793 59.983V83.5417H116.511L92.793 59.983Z" fill="white"/>
<path d="M839.492 71.6156L844.891 74.5636L847.844 79.9474L850.797 74.5636L856.201 71.6156L850.797 68.6727L847.844 63.2888L844.891 68.6727L839.492 71.6156Z" fill="#D8EBF8"/>
<path d="M469.136 71.6156L474.535 74.5636L477.487 79.9474L480.44 74.5636L485.844 71.6156L480.44 68.6727L477.487 63.2888L474.535 68.6727L469.136 71.6156Z" fill="#D8EBF8"/>
<path d="M96.293 71.6156L101.692 74.5636L104.645 79.9474L107.598 74.5636L113.001 71.6156L107.598 68.6727L104.645 63.2888L101.692 68.6727L96.293 71.6156Z" fill="#D8EBF8"/>
<path d="M743.199 36.4293V59.983L929.621 59.983V36.4293L743.199 36.4293Z" fill="#D8EBF8"/>
<path d="M372.843 36.4293V59.983L559.264 59.983V36.4293L372.843 36.4293Z" fill="#D8EBF8"/>
<path d="M0 36.4293L0 59.983L186.421 59.983V36.4293L0 36.4293Z" fill="#D8EBF8"/>
<path d="M766.559 36.4392L773.424 43.4039L789.72 59.9283L789.775 59.9829H743.199L766.559 36.4392Z" fill="#002649"/>
<path d="M396.203 36.4392L403.068 43.4039L419.364 59.9283L419.418 59.9829H372.843L396.203 36.4392Z" fill="#002649"/>
<path d="M23.3598 36.4392L30.2251 43.4039L46.5208 59.9283L46.5755 59.9829H0L23.3598 36.4392Z" fill="#002649"/>
<path d="M812.902 36.4342L835.993 59.9829H789.661L789.716 59.9283L806.031 43.3889L812.902 36.4342Z" fill="#002649"/>
<path d="M442.544 36.4342L465.636 59.9829H419.304L419.358 59.9283L435.674 43.3889L442.544 36.4342Z" fill="#002649"/>
<path d="M69.7015 36.4342L92.7929 59.9829H46.4609L46.5156 59.9283L62.8312 43.3889L69.7015 36.4342Z" fill="#002649"/>
<path d="M859.711 36.4292L835.993 59.9829H883.006L859.711 36.4292Z" fill="white"/>
<path d="M489.354 36.4292L465.636 59.9829H512.649L489.354 36.4292Z" fill="white"/>
<path d="M116.511 36.4292L92.793 59.9829H139.806L116.511 36.4292Z" fill="white"/>
<path d="M906.326 36.3149L882.887 59.9829H929.621L906.326 36.3149Z" fill="white"/>
<path d="M535.969 36.3149L512.529 59.9829H559.264L535.969 36.3149Z" fill="white"/>
<path d="M163.126 36.3149L139.687 59.9829H186.421L163.126 36.3149Z" fill="white"/>
<path d="M883.021 49.9063C879.427 49.9063 876.156 48.4447 873.779 46.0685C871.339 43.6376 869.817 40.2422 869.817 36.4939H896.23C896.23 40.2422 894.713 43.6376 892.272 46.0635C889.891 48.4447 886.625 49.9063 883.021 49.9063Z" fill="white"/>
<path d="M512.664 49.9063C509.069 49.9063 505.798 48.4447 503.422 46.0685C500.981 43.6376 499.46 40.2422 499.46 36.4939H525.872C525.872 40.2422 524.356 43.6376 521.915 46.0635C519.534 48.4447 516.268 49.9063 512.664 49.9063Z" fill="white"/>
<path d="M139.821 49.9063C136.227 49.9063 132.956 48.4447 130.579 46.0685C128.138 43.6376 126.617 40.2422 126.617 36.4939H153.029C153.029 40.2422 151.513 43.6376 149.072 46.0635C146.691 48.4447 143.425 49.9063 139.821 49.9063Z" fill="white"/>
<path d="M789.77 36.6281C796.148 36.6281 801.95 39.1783 806.17 43.3094C810.505 47.5449 813.2 53.4557 813.2 59.9879H766.341C766.341 53.4557 769.03 47.5499 773.36 43.3194C777.581 39.1783 783.382 36.6281 789.77 36.6281Z" fill="#D8EBF8"/>
<path d="M419.413 36.6281C425.791 36.6281 431.592 39.1783 435.813 43.3094C440.148 47.5449 442.842 53.4557 442.842 59.9879H395.983C395.983 53.4557 398.673 47.5499 403.003 43.3194C407.223 39.1783 413.025 36.6281 419.413 36.6281Z" fill="#D8EBF8"/>
<path d="M46.5701 36.6281C52.9482 36.6281 58.7496 39.1783 62.9702 43.3094C67.3051 47.5449 69.9995 53.4557 69.9995 59.9879H23.1406C23.1406 53.4557 25.8301 47.5499 30.16 43.3194C34.3806 39.1783 40.182 36.6281 46.5701 36.6281Z" fill="#D8EBF8"/>
<path d="M789.755 59.9829L813.1 36.4342H766.56L789.755 59.9829Z" fill="white"/>
<path d="M419.399 59.9829L442.744 36.4342H396.203L419.399 59.9829Z" fill="white"/>
<path d="M46.5561 59.9829L69.9011 36.4342H23.3604L46.5561 59.9829Z" fill="white"/>
<path d="M835.993 36.4342V59.9879H859.711V36.4342H835.993Z" fill="#002649"/>
<path d="M465.636 36.4342V59.9879H489.354V36.4342H465.636Z" fill="#002649"/>
<path d="M92.793 36.4342V59.9879H116.511V36.4342H92.793Z" fill="#002649"/>
<path d="M835.993 59.9829V36.4292H859.711L835.993 59.9829Z" fill="white"/>
<path d="M465.636 59.9829V36.4292H489.354L465.636 59.9829Z" fill="white"/>
<path d="M92.793 59.9829V36.4292H116.511L92.793 59.9829Z" fill="white"/>
<path d="M839.492 48.3502L844.891 45.4072L847.844 40.0234L850.797 45.4072L856.201 48.3502L850.797 51.2981L847.844 56.682L844.891 51.2981L839.492 48.3502Z" fill="#D8EBF8"/>
<path d="M469.136 48.3502L474.535 45.4072L477.487 40.0234L480.44 45.4072L485.844 48.3502L480.44 51.2981L477.487 56.682L474.535 51.2981L469.136 48.3502Z" fill="#D8EBF8"/>
<path d="M96.293 48.3502L101.692 45.4072L104.645 40.0234L107.598 45.4072L113.001 48.3502L107.598 51.2981L104.645 56.682L101.692 51.2981L96.293 48.3502Z" fill="#D8EBF8"/>
<path d="M1116.04 83.5367V59.983L929.621 59.983V83.5367L1116.04 83.5367Z" fill="#D8EBF8"/>
<path d="M745.686 83.5367V59.983L559.264 59.983V83.5367L745.686 83.5367Z" fill="#D8EBF8"/>
<path d="M372.843 83.5367V59.983L186.421 59.983V83.5367L372.843 83.5367Z" fill="#D8EBF8"/>
<path d="M952.981 83.5267L959.846 76.562L976.142 60.0426L976.197 59.983H929.621L952.981 83.5267Z" fill="#002649"/>
<path d="M582.624 83.5267L589.489 76.562L605.784 60.0426L605.839 59.983H559.264L582.624 83.5267Z" fill="#002649"/>
<path d="M209.781 83.5267L216.646 76.562L232.942 60.0426L232.996 59.983H186.421L209.781 83.5267Z" fill="#002649"/>
<path d="M999.323 83.5367L1022.41 59.983H976.082L976.137 60.0426L992.452 76.577L999.323 83.5367Z" fill="#002649"/>
<path d="M628.966 83.5367L652.057 59.983H605.726L605.78 60.0426L622.096 76.577L628.966 83.5367Z" fill="#002649"/>
<path d="M256.123 83.5367L279.215 59.983H232.883L232.938 60.0426L249.253 76.577L256.123 83.5367Z" fill="#002649"/>
<path d="M1046.13 83.5417L1022.41 59.983H1069.43L1046.13 83.5417Z" fill="white"/>
<path d="M675.774 83.5417L652.057 59.983H699.07L675.774 83.5417Z" fill="white"/>
<path d="M302.933 83.5417L279.215 59.983H326.228L302.933 83.5417Z" fill="white"/>
<path d="M1092.75 83.656L1069.31 59.983H1116.04L1092.75 83.656Z" fill="white"/>
<path d="M722.391 83.656L698.951 59.983H745.686L722.391 83.656Z" fill="white"/>
<path d="M349.548 83.656L326.108 59.983H372.843L349.548 83.656Z" fill="white"/>
<path d="M976.192 83.3428C982.57 83.3428 988.372 80.7926 992.592 76.6615C996.927 72.426 999.622 66.5152 999.622 59.983H952.763C952.763 66.5152 955.452 72.421 959.782 76.6515C964.003 80.7926 969.804 83.3428 976.192 83.3428Z" fill="#D8EBF8"/>
<path d="M605.835 83.3428C612.213 83.3428 618.014 80.7926 622.235 76.6615C626.57 72.426 629.264 66.5152 629.264 59.983H582.405C582.405 66.5152 585.095 72.421 589.425 76.6515C593.645 80.7926 599.447 83.3428 605.835 83.3428Z" fill="#D8EBF8"/>
<path d="M232.992 83.3428C239.37 83.3428 245.171 80.7926 249.392 76.6615C253.727 72.426 256.421 66.5152 256.421 59.983H209.562C209.562 66.5152 212.252 72.421 216.582 76.6515C220.802 80.7926 226.604 83.3428 232.992 83.3428Z" fill="#D8EBF8"/>
<path d="M976.177 59.983L999.522 83.5367H952.981L976.177 59.983Z" fill="white"/>
<path d="M605.82 59.983L629.165 83.5367H582.624L605.82 59.983Z" fill="white"/>
<path d="M232.977 59.983L256.322 83.5367H209.781L232.977 59.983Z" fill="white"/>
<path d="M1046.13 83.5367V59.983H1022.41V83.5367H1046.13Z" fill="#002649"/>
<path d="M675.774 83.5367V59.983H652.057V83.5367H675.774Z" fill="#002649"/>
<path d="M302.933 83.5367V59.983H279.215V83.5367H302.933Z" fill="#002649"/>
<path d="M1022.41 59.983V83.5417H1046.13L1022.41 59.983Z" fill="white"/>
<path d="M652.057 59.983V83.5417H675.774L652.057 59.983Z" fill="white"/>
<path d="M279.215 59.983V83.5417H302.933L279.215 59.983Z" fill="white"/>
<path d="M1025.91 71.6156L1031.31 74.5636L1034.27 79.9474L1037.22 74.5636L1042.62 71.6156L1037.22 68.6727L1034.27 63.2888L1031.31 68.6727L1025.91 71.6156Z" fill="#D8EBF8"/>
<path d="M655.557 71.6156L660.955 74.5636L663.908 79.9474L666.861 74.5636L672.265 71.6156L666.861 68.6727L663.908 63.2888L660.955 68.6727L655.557 71.6156Z" fill="#D8EBF8"/>
<path d="M282.715 71.6156L288.114 74.5636L291.067 79.9474L294.019 74.5636L299.423 71.6156L294.019 68.6727L291.067 63.2888L288.114 68.6727L282.715 71.6156Z" fill="#D8EBF8"/>
<path d="M929.621 36.4293V59.983L1116.04 59.983V36.4293L929.621 36.4293Z" fill="#D8EBF8"/>
<path d="M559.264 36.4293V59.983L745.685 59.983V36.4293L559.264 36.4293Z" fill="#D8EBF8"/>
<path d="M186.421 36.4293V59.983L372.842 59.983V36.4293L186.421 36.4293Z" fill="#D8EBF8"/>
<path d="M952.981 36.4392L959.846 43.4039L976.142 59.9283L976.197 59.9829H929.621L952.981 36.4392Z" fill="#002649"/>
<path d="M582.624 36.4392L589.489 43.4039L605.784 59.9283L605.839 59.9829H559.264L582.624 36.4392Z" fill="#002649"/>
<path d="M209.781 36.4392L216.646 43.4039L232.942 59.9283L232.996 59.9829H186.421L209.781 36.4392Z" fill="#002649"/>
<path d="M999.323 36.4342L1022.41 59.9829H976.082L976.137 59.9283L992.452 43.3889L999.323 36.4342Z" fill="#002649"/>
<path d="M628.966 36.4342L652.057 59.9829H605.726L605.78 59.9283L622.096 43.3889L628.966 36.4342Z" fill="#002649"/>
<path d="M256.123 36.4342L279.215 59.9829H232.883L232.938 59.9283L249.253 43.3889L256.123 36.4342Z" fill="#002649"/>
<path d="M1046.13 36.4292L1022.41 59.9829H1069.43L1046.13 36.4292Z" fill="white"/>
<path d="M675.774 36.4292L652.057 59.9829H699.07L675.774 36.4292Z" fill="white"/>
<path d="M302.933 36.4292L279.215 59.9829H326.228L302.933 36.4292Z" fill="white"/>
<path d="M1092.75 36.3149L1069.31 59.9829H1116.04L1092.75 36.3149Z" fill="white"/>
<path d="M722.391 36.3149L698.951 59.9829H745.686L722.391 36.3149Z" fill="white"/>
<path d="M349.548 36.3149L326.108 59.9829H372.843L349.548 36.3149Z" fill="white"/>
<path d="M1069.44 49.9063C1065.85 49.9063 1062.58 48.4447 1060.2 46.0685C1057.76 43.6376 1056.24 40.2422 1056.24 36.4939H1082.65C1082.65 40.2422 1081.13 43.6376 1078.69 46.0635C1076.31 48.4447 1073.05 49.9063 1069.44 49.9063Z" fill="white"/>
<path d="M699.085 49.9063C695.491 49.9063 692.22 48.4447 689.844 46.0685C687.403 43.6376 685.882 40.2422 685.882 36.4939H712.294C712.294 40.2422 710.778 43.6376 708.337 46.0635C705.956 48.4447 702.69 49.9063 699.085 49.9063Z" fill="white"/>
<path d="M326.243 49.9063C322.648 49.9063 319.377 48.4447 317.001 46.0685C314.56 43.6376 313.039 40.2422 313.039 36.4939H339.451C339.451 40.2422 337.935 43.6376 335.494 46.0635C333.113 48.4447 329.847 49.9063 326.243 49.9063Z" fill="white"/>
<path d="M976.192 36.6281C982.57 36.6281 988.372 39.1783 992.592 43.3094C996.927 47.5449 999.622 53.4557 999.622 59.9879H952.763C952.763 53.4557 955.452 47.5499 959.782 43.3194C964.003 39.1783 969.804 36.6281 976.192 36.6281Z" fill="#D8EBF8"/>
<path d="M605.835 36.6281C612.213 36.6281 618.014 39.1783 622.235 43.3094C626.57 47.5449 629.264 53.4557 629.264 59.9879H582.405C582.405 53.4557 585.095 47.5499 589.425 43.3194C593.645 39.1783 599.447 36.6281 605.835 36.6281Z" fill="#D8EBF8"/>
<path d="M232.992 36.6281C239.37 36.6281 245.171 39.1783 249.392 43.3094C253.727 47.5449 256.421 53.4557 256.421 59.9879H209.562C209.562 53.4557 212.252 47.5499 216.582 43.3194C220.802 39.1783 226.604 36.6281 232.992 36.6281Z" fill="#D8EBF8"/>
<path d="M976.177 59.9829L999.522 36.4342H952.981L976.177 59.9829Z" fill="white"/>
<path d="M605.82 59.9829L629.165 36.4342H582.624L605.82 59.9829Z" fill="white"/>
<path d="M232.977 59.9829L256.322 36.4342H209.781L232.977 59.9829Z" fill="white"/>
<path d="M1022.41 36.4342V59.9879H1046.13V36.4342H1022.41Z" fill="#002649"/>
<path d="M652.057 36.4342V59.9879H675.774V36.4342H652.057Z" fill="#002649"/>
<path d="M279.215 36.4342V59.9879H302.933V36.4342H279.215Z" fill="#002649"/>
<path d="M1022.41 59.9829V36.4292H1046.13L1022.41 59.9829Z" fill="white"/>
<path d="M652.057 59.9829V36.4292H675.774L652.057 59.9829Z" fill="white"/>
<path d="M279.215 59.9829V36.4292H302.933L279.215 59.9829Z" fill="white"/>
<path d="M1025.91 48.3502L1031.31 45.4072L1034.27 40.0234L1037.22 45.4072L1042.62 48.3502L1037.22 51.2981L1034.27 56.682L1031.31 51.2981L1025.91 48.3502Z" fill="#D8EBF8"/>
<path d="M655.557 48.3502L660.955 45.4072L663.908 40.0234L666.861 45.4072L672.265 48.3502L666.861 51.2981L663.908 56.682L660.955 51.2981L655.557 48.3502Z" fill="#D8EBF8"/>
<path d="M282.715 48.3502L288.114 45.4072L291.067 40.0234L294.019 45.4072L299.423 48.3502L294.019 51.2981L291.067 56.682L288.114 51.2981L282.715 48.3502Z" fill="#D8EBF8"/>
<path d="M929.621 36.9561V13.4024L743.2 13.4024V36.9561L929.621 36.9561Z" fill="#D8EBF8"/>
<path d="M559.264 36.9561V13.4024L372.842 13.4024V36.9561L559.264 36.9561Z" fill="#D8EBF8"/>
<path d="M186.421 36.9561V13.4024L-0.000457764 13.4024V36.9561L186.421 36.9561Z" fill="#D8EBF8"/>
<path d="M766.559 36.9462L773.424 29.9815L789.72 13.4621L789.775 13.4024H743.199L766.559 36.9462Z" fill="#002649"/>
<path d="M396.203 36.9462L403.068 29.9815L419.364 13.4621L419.418 13.4024H372.843L396.203 36.9462Z" fill="#002649"/>
<path d="M23.3598 36.9462L30.2251 29.9815L46.5208 13.4621L46.5755 13.4024H0L23.3598 36.9462Z" fill="#002649"/>
<path d="M812.902 36.9561L835.993 13.4024H789.661L789.716 13.4621L806.031 29.9964L812.902 36.9561Z" fill="#002649"/>
<path d="M442.544 36.9561L465.636 13.4024H419.304L419.358 13.4621L435.674 29.9964L442.544 36.9561Z" fill="#002649"/>
<path d="M69.7015 36.9561L92.7929 13.4024H46.4609L46.5156 13.4621L62.8312 29.9964L69.7015 36.9561Z" fill="#002649"/>
<path d="M859.711 36.9611L835.993 13.4024H883.006L859.711 36.9611Z" fill="white"/>
<path d="M489.354 36.9611L465.636 13.4024H512.649L489.354 36.9611Z" fill="white"/>
<path d="M116.511 36.9611L92.793 13.4024H139.806L116.511 36.9611Z" fill="white"/>
<path d="M906.326 37.0754L882.887 13.4024H929.621L906.326 37.0754Z" fill="white"/>
<path d="M535.969 37.0754L512.529 13.4024H559.264L535.969 37.0754Z" fill="white"/>
<path d="M163.126 37.0754L139.687 13.4024H186.421L163.126 37.0754Z" fill="white"/>
<path d="M883.021 23.5438C879.427 23.5438 876.156 25.0053 873.779 27.3816C871.339 29.8125 869.817 33.2079 869.817 36.9562H896.23C896.23 33.2079 894.713 29.8125 892.272 27.3865C889.891 25.0053 886.625 23.5438 883.021 23.5438Z" fill="white"/>
<path d="M512.664 23.5438C509.069 23.5438 505.798 25.0053 503.422 27.3816C500.981 29.8125 499.46 33.2079 499.46 36.9562H525.872C525.872 33.2079 524.356 29.8125 521.915 27.3865C519.534 25.0053 516.268 23.5438 512.664 23.5438Z" fill="white"/>
<path d="M139.821 23.5438C136.227 23.5438 132.956 25.0053 130.579 27.3816C128.138 29.8125 126.617 33.2079 126.617 36.9562H153.029C153.029 33.2079 151.513 29.8125 149.072 27.3865C146.691 25.0053 143.425 23.5438 139.821 23.5438Z" fill="white"/>
<path d="M789.77 36.7622C796.148 36.7622 801.95 34.212 806.17 30.0809C810.505 25.8454 813.2 19.9346 813.2 13.4024H766.341C766.341 19.9346 769.03 25.8404 773.36 30.071C777.581 34.212 783.382 36.7622 789.77 36.7622Z" fill="#D8EBF8"/>
<path d="M419.413 36.7622C425.791 36.7622 431.592 34.212 435.813 30.0809C440.148 25.8454 442.842 19.9346 442.842 13.4024H395.983C395.983 19.9346 398.673 25.8404 403.003 30.071C407.223 34.212 413.025 36.7622 419.413 36.7622Z" fill="#D8EBF8"/>
<path d="M46.5701 36.7622C52.9482 36.7622 58.7496 34.212 62.9702 30.0809C67.3051 25.8454 69.9995 19.9346 69.9995 13.4024H23.1406C23.1406 19.9346 25.8301 25.8404 30.16 30.071C34.3806 34.212 40.182 36.7622 46.5701 36.7622Z" fill="#D8EBF8"/>
<path d="M789.755 13.4024L813.1 36.9561H766.56L789.755 13.4024Z" fill="white"/>
<path d="M419.399 13.4024L442.744 36.9561H396.203L419.399 13.4024Z" fill="white"/>
<path d="M46.5561 13.4024L69.9011 36.9561H23.3604L46.5561 13.4024Z" fill="white"/>
<path d="M859.711 36.9561V13.4024L835.993 13.4024V36.9561H859.711Z" fill="#002649"/>
<path d="M489.354 36.9561V13.4024L465.636 13.4024V36.9561H489.354Z" fill="#002649"/>
<path d="M116.511 36.9561V13.4024L92.793 13.4024V36.9561H116.511Z" fill="#002649"/>
<path d="M835.993 13.4024V36.9611H859.711L835.993 13.4024Z" fill="white"/>
<path d="M465.636 13.4024V36.9611H489.354L465.636 13.4024Z" fill="white"/>
<path d="M92.793 13.4024V36.9611H116.511L92.793 13.4024Z" fill="white"/>
<path d="M839.492 25.0351L844.891 27.9831L847.844 33.3669L850.797 27.9831L856.201 25.0351L850.797 22.0922L847.844 16.7083L844.891 22.0922L839.492 25.0351Z" fill="#D8EBF8"/>
<path d="M469.136 25.0351L474.535 27.9831L477.487 33.3669L480.44 27.9831L485.844 25.0351L480.44 22.0922L477.487 16.7083L474.535 22.0922L469.136 25.0351Z" fill="#D8EBF8"/>
<path d="M96.293 25.0351L101.692 27.9831L104.645 33.3669L107.598 27.9831L113.001 25.0351L107.598 22.0922L104.645 16.7083L101.692 22.0922L96.293 25.0351Z" fill="#D8EBF8"/>
<path d="M1116.04 36.9561V13.4024L929.621 13.4024V36.9561L1116.04 36.9561Z" fill="#D8EBF8"/>
<path d="M745.686 36.9561V13.4024L559.264 13.4024V36.9561L745.686 36.9561Z" fill="#D8EBF8"/>
<path d="M372.843 36.9561V13.4024L186.421 13.4024V36.9561L372.843 36.9561Z" fill="#D8EBF8"/>
<path d="M952.981 36.9462L959.846 29.9815L976.142 13.4621L976.197 13.4024H929.621L952.981 36.9462Z" fill="#002649"/>
<path d="M582.624 36.9462L589.489 29.9815L605.784 13.4621L605.839 13.4024H559.264L582.624 36.9462Z" fill="#002649"/>
<path d="M209.781 36.9462L216.646 29.9815L232.942 13.4621L232.996 13.4024H186.421L209.781 36.9462Z" fill="#002649"/>
<path d="M999.323 36.9561L1022.41 13.4024H976.082L976.137 13.4621L992.452 29.9964L999.323 36.9561Z" fill="#002649"/>
<path d="M628.966 36.9561L652.057 13.4024H605.726L605.78 13.4621L622.096 29.9964L628.966 36.9561Z" fill="#002649"/>
<path d="M256.123 36.9561L279.215 13.4024H232.883L232.938 13.4621L249.253 29.9964L256.123 36.9561Z" fill="#002649"/>
<path d="M1046.13 36.9611L1022.41 13.4024H1069.43L1046.13 36.9611Z" fill="white"/>
<path d="M675.774 36.9611L652.057 13.4024H699.07L675.774 36.9611Z" fill="white"/>
<path d="M302.933 36.9611L279.215 13.4024H326.228L302.933 36.9611Z" fill="white"/>
<path d="M1092.75 37.0754L1069.31 13.4024H1116.04L1092.75 37.0754Z" fill="white"/>
<path d="M722.391 37.0754L698.951 13.4024H745.686L722.391 37.0754Z" fill="white"/>
<path d="M349.548 37.0754L326.108 13.4024H372.843L349.548 37.0754Z" fill="white"/>
<path d="M1069.44 23.5438C1065.85 23.5438 1062.58 25.0053 1060.2 27.3816C1057.76 29.8125 1056.24 33.2079 1056.24 36.9562H1082.65C1082.65 33.2079 1081.13 29.8125 1078.69 27.3865C1076.31 25.0053 1073.05 23.5438 1069.44 23.5438Z" fill="white"/>
<path d="M699.085 23.5438C695.491 23.5438 692.22 25.0053 689.844 27.3816C687.403 29.8125 685.882 33.2079 685.882 36.9562H712.294C712.294 33.2079 710.778 29.8125 708.337 27.3865C705.956 25.0053 702.69 23.5438 699.085 23.5438Z" fill="white"/>
<path d="M326.243 23.5438C322.648 23.5438 319.377 25.0053 317.001 27.3816C314.56 29.8125 313.039 33.2079 313.039 36.9562H339.451C339.451 33.2079 337.935 29.8125 335.494 27.3865C333.113 25.0053 329.847 23.5438 326.243 23.5438Z" fill="white"/>
<path d="M976.192 36.7622C982.57 36.7622 988.372 34.212 992.592 30.0809C996.927 25.8454 999.622 19.9346 999.622 13.4024H952.763C952.763 19.9346 955.452 25.8404 959.782 30.071C964.003 34.212 969.804 36.7622 976.192 36.7622Z" fill="#D8EBF8"/>
<path d="M605.835 36.7622C612.213 36.7622 618.014 34.212 622.235 30.0809C626.57 25.8454 629.264 19.9346 629.264 13.4024H582.405C582.405 19.9346 585.095 25.8404 589.425 30.071C593.645 34.212 599.447 36.7622 605.835 36.7622Z" fill="#D8EBF8"/>
<path d="M232.992 36.7622C239.37 36.7622 245.171 34.212 249.392 30.0809C253.727 25.8454 256.421 19.9346 256.421 13.4024H209.562C209.562 19.9346 212.252 25.8404 216.582 30.071C220.802 34.212 226.604 36.7622 232.992 36.7622Z" fill="#D8EBF8"/>
<path d="M976.177 13.4024L999.522 36.9561H952.981L976.177 13.4024Z" fill="white"/>
<path d="M605.82 13.4024L629.165 36.9561H582.624L605.82 13.4024Z" fill="white"/>
<path d="M232.977 13.4024L256.322 36.9561H209.781L232.977 13.4024Z" fill="white"/>
<path d="M1046.13 36.9561V13.4024L1022.41 13.4024V36.9561H1046.13Z" fill="#002649"/>
<path d="M675.774 36.9561V13.4024L652.057 13.4024V36.9561H675.774Z" fill="#002649"/>
<path d="M302.933 36.9561V13.4024L279.215 13.4024V36.9561H302.933Z" fill="#002649"/>
<path d="M1022.41 13.4024V36.9611H1046.13L1022.41 13.4024Z" fill="white"/>
<path d="M652.057 13.4024V36.9611H675.774L652.057 13.4024Z" fill="white"/>
<path d="M279.215 13.4024V36.9611H302.933L279.215 13.4024Z" fill="white"/>
<path d="M1025.91 25.0351L1031.31 27.9831L1034.27 33.3669L1037.22 27.9831L1042.62 25.0351L1037.22 22.0922L1034.27 16.7083L1031.31 22.0922L1025.91 25.0351Z" fill="#D8EBF8"/>
<path d="M655.557 25.0351L660.955 27.9831L663.908 33.3669L666.861 27.9831L672.265 25.0351L666.861 22.0922L663.908 16.7083L660.955 22.0922L655.557 25.0351Z" fill="#D8EBF8"/>
<path d="M282.715 25.0351L288.114 27.9831L291.067 33.3669L294.019 27.9831L299.423 25.0351L294.019 22.0922L291.067 16.7083L288.114 22.0922L282.715 25.0351Z" fill="#D8EBF8"/>
<path d="M1853.2 15.3363L2226.04 15.3363V-4.76837e-06L1853.2 -4.76837e-06V15.3363Z" fill="white"/>
<path d="M1482.84 15.3363L1855.69 15.3363V-4.76837e-06L1482.84 -4.76837e-06V15.3363Z" fill="white"/>
<path d="M1110 15.3363L1482.84 15.3363V-4.76837e-06L1110 -4.76837e-06V15.3363Z" fill="white"/>
<path d="M2212.97 2.58501L2220.27 7.66561L2212.97 12.7512L2205.67 7.66561L2212.97 2.58501Z" fill="#D8EBF8"/>
<path d="M2196.46 2.58501L2203.77 7.66561L2196.46 12.7512L2189.16 7.66561L2196.46 2.58501Z" fill="#D8EBF8"/>
<path d="M2179.95 2.58501L2187.26 7.66561L2179.95 12.7512L2172.65 7.66561L2179.95 2.58501Z" fill="#D8EBF8"/>
<path d="M2163.44 2.58501L2170.75 7.66561L2163.44 12.7512L2156.14 7.66561L2163.44 2.58501Z" fill="#D8EBF8"/>
<path d="M2146.93 2.58501L2154.24 7.66561L2146.93 12.7512L2139.63 7.66561L2146.93 2.58501Z" fill="#D8EBF8"/>
<path d="M2130.42 2.58501L2137.73 7.66561L2130.42 12.7512L2123.12 7.66561L2130.42 2.58501Z" fill="#D8EBF8"/>
<path d="M2113.92 2.58501L2121.22 7.66561L2113.92 12.7512L2106.61 7.66561L2113.92 2.58501Z" fill="#D8EBF8"/>
<path d="M2097.41 2.58501L2104.71 7.66561L2097.41 12.7512L2090.1 7.66561L2097.41 2.58501Z" fill="#D8EBF8"/>
<path d="M2080.9 2.58501L2088.2 7.66561L2080.9 12.7512L2073.59 7.66561L2080.9 2.58501Z" fill="#D8EBF8"/>
<path d="M2064.39 2.58501L2071.69 7.66561L2064.39 12.7512L2057.08 7.66561L2064.39 2.58501Z" fill="#D8EBF8"/>
<path d="M2047.88 2.58501L2055.18 7.66561L2047.88 12.7512L2040.57 7.66561L2047.88 2.58501Z" fill="#D8EBF8"/>
<path d="M2031.36 2.58501L2038.67 7.66561L2031.36 12.7512L2024.06 7.66561L2031.36 2.58501Z" fill="#D8EBF8"/>
<path d="M2014.85 2.58501L2022.16 7.66561L2014.85 12.7512L2007.55 7.66561L2014.85 2.58501Z" fill="#D8EBF8"/>
<path d="M1998.34 2.58501L2005.65 7.66561L1998.34 12.7512L1991.04 7.66561L1998.34 2.58501Z" fill="#D8EBF8"/>
<path d="M1981.83 2.58501L1989.14 7.66561L1981.83 12.7512L1974.53 7.66561L1981.83 2.58501Z" fill="#D8EBF8"/>
<path d="M1965.33 2.58501L1972.63 7.66561L1965.33 12.7512L1958.02 7.66561L1965.33 2.58501Z" fill="#D8EBF8"/>
<path d="M1948.82 2.58501L1956.12 7.66561L1948.82 12.7512L1941.51 7.66561L1948.82 2.58501Z" fill="#D8EBF8"/>
<path d="M1932.31 2.58501L1939.61 7.66561L1932.31 12.7512L1925 7.66561L1932.31 2.58501Z" fill="#D8EBF8"/>
<path d="M1915.8 2.58501L1923.1 7.66561L1915.8 12.7512L1908.49 7.66561L1915.8 2.58501Z" fill="#D8EBF8"/>
<path d="M1899.29 2.58501L1906.59 7.66561L1899.29 12.7512L1891.98 7.66561L1899.29 2.58501Z" fill="#D8EBF8"/>
<path d="M1882.78 2.58501L1890.08 7.66561L1882.78 12.7512L1875.47 7.66561L1882.78 2.58501Z" fill="#D8EBF8"/>
<path d="M1866.27 2.58498L1873.57 7.66558L1866.27 12.7512L1858.97 7.66558L1866.27 2.58498Z" fill="#D8EBF8"/>
<path d="M1842.62 2.58501L1849.92 7.66561L1842.62 12.7512L1835.31 7.66561L1842.62 2.58501Z" fill="#D8EBF8"/>
<path d="M1826.11 2.58501L1833.41 7.66561L1826.11 12.7512L1818.8 7.66561L1826.11 2.58501Z" fill="#D8EBF8"/>
<path d="M1809.6 2.58501L1816.9 7.66561L1809.6 12.7512L1802.29 7.66561L1809.6 2.58501Z" fill="#D8EBF8"/>
<path d="M1793.09 2.58501L1800.39 7.66561L1793.09 12.7512L1785.79 7.66561L1793.09 2.58501Z" fill="#D8EBF8"/>
<path d="M1776.58 2.58501L1783.88 7.66561L1776.58 12.7512L1769.28 7.66561L1776.58 2.58501Z" fill="#D8EBF8"/>
<path d="M1760.07 2.58501L1767.37 7.66561L1760.07 12.7512L1752.77 7.66561L1760.07 2.58501Z" fill="#D8EBF8"/>
<path d="M1743.56 2.58501L1750.86 7.66561L1743.56 12.7512L1736.26 7.66561L1743.56 2.58501Z" fill="#D8EBF8"/>
<path d="M1727.05 2.58501L1734.35 7.66561L1727.05 12.7512L1719.75 7.66561L1727.05 2.58501Z" fill="#D8EBF8"/>
<path d="M1710.54 2.58501L1717.84 7.66561L1710.54 12.7512L1703.23 7.66561L1710.54 2.58501Z" fill="#D8EBF8"/>
<path d="M1694.03 2.58501L1701.33 7.66561L1694.03 12.7512L1686.72 7.66561L1694.03 2.58501Z" fill="#D8EBF8"/>
<path d="M1677.52 2.58501L1684.82 7.66561L1677.52 12.7512L1670.21 7.66561L1677.52 2.58501Z" fill="#D8EBF8"/>
<path d="M1661.01 2.58501L1668.31 7.66561L1661.01 12.7512L1653.7 7.66561L1661.01 2.58501Z" fill="#D8EBF8"/>
<path d="M1644.5 2.58501L1651.8 7.66561L1644.5 12.7512L1637.19 7.66561L1644.5 2.58501Z" fill="#D8EBF8"/>
<path d="M1627.99 2.58501L1635.3 7.66561L1627.99 12.7512L1620.68 7.66561L1627.99 2.58501Z" fill="#D8EBF8"/>
<path d="M1611.48 2.58501L1618.78 7.66561L1611.48 12.7512L1604.18 7.66561L1611.48 2.58501Z" fill="#D8EBF8"/>
<path d="M1594.97 2.58501L1602.27 7.66561L1594.97 12.7512L1587.67 7.66561L1594.97 2.58501Z" fill="#D8EBF8"/>
<path d="M1578.46 2.58501L1585.76 7.66561L1578.46 12.7512L1571.16 7.66561L1578.46 2.58501Z" fill="#D8EBF8"/>
<path d="M1561.95 2.58501L1569.25 7.66561L1561.95 12.7512L1554.65 7.66561L1561.95 2.58501Z" fill="#D8EBF8"/>
<path d="M1545.44 2.58501L1552.74 7.66561L1545.44 12.7512L1538.14 7.66561L1545.44 2.58501Z" fill="#D8EBF8"/>
<path d="M1528.93 2.58501L1536.23 7.66561L1528.93 12.7512L1521.63 7.66561L1528.93 2.58501Z" fill="#D8EBF8"/>
<path d="M1512.42 2.58501L1519.72 7.66561L1512.42 12.7512L1505.12 7.66561L1512.42 2.58501Z" fill="#D8EBF8"/>
<path d="M1495.91 2.58498L1503.21 7.66558L1495.91 12.7512L1488.61 7.66558L1495.91 2.58498Z" fill="#D8EBF8"/>
<path d="M1469.77 2.58501L1477.08 7.66561L1469.77 12.7512L1462.47 7.66561L1469.77 2.58501Z" fill="#D8EBF8"/>
<path d="M1453.26 2.58501L1460.57 7.66561L1453.26 12.7512L1445.96 7.66561L1453.26 2.58501Z" fill="#D8EBF8"/>
<path d="M1436.75 2.58501L1444.06 7.66561L1436.75 12.7512L1429.45 7.66561L1436.75 2.58501Z" fill="#D8EBF8"/>
<path d="M1420.25 2.58501L1427.55 7.66561L1420.25 12.7512L1412.94 7.66561L1420.25 2.58501Z" fill="#D8EBF8"/>
<path d="M1403.74 2.58501L1411.04 7.66561L1403.74 12.7512L1396.43 7.66561L1403.74 2.58501Z" fill="#D8EBF8"/>
<path d="M1387.23 2.58501L1394.53 7.66561L1387.23 12.7512L1379.92 7.66561L1387.23 2.58501Z" fill="#D8EBF8"/>
<path d="M1370.72 2.58501L1378.02 7.66561L1370.72 12.7512L1363.41 7.66561L1370.72 2.58501Z" fill="#D8EBF8"/>
<path d="M1354.21 2.58501L1361.51 7.66561L1354.21 12.7512L1346.9 7.66561L1354.21 2.58501Z" fill="#D8EBF8"/>
<path d="M1337.7 2.58501L1345 7.66561L1337.7 12.7512L1330.39 7.66561L1337.7 2.58501Z" fill="#D8EBF8"/>
<path d="M1321.19 2.58501L1328.49 7.66561L1321.19 12.7512L1313.88 7.66561L1321.19 2.58501Z" fill="#D8EBF8"/>
<path d="M1304.68 2.58501L1311.98 7.66561L1304.68 12.7512L1297.37 7.66561L1304.68 2.58501Z" fill="#D8EBF8"/>
<path d="M1288.16 2.58501L1295.47 7.66561L1288.16 12.7512L1280.86 7.66561L1288.16 2.58501Z" fill="#D8EBF8"/>
<path d="M1271.65 2.58501L1278.96 7.66561L1271.65 12.7512L1264.35 7.66561L1271.65 2.58501Z" fill="#D8EBF8"/>
<path d="M1255.15 2.58501L1262.45 7.66561L1255.15 12.7512L1247.84 7.66561L1255.15 2.58501Z" fill="#D8EBF8"/>
<path d="M1238.64 2.58501L1245.94 7.66561L1238.64 12.7512L1231.33 7.66561L1238.64 2.58501Z" fill="#D8EBF8"/>
<path d="M1222.13 2.58501L1229.43 7.66561L1222.13 12.7512L1214.82 7.66561L1222.13 2.58501Z" fill="#D8EBF8"/>
<path d="M1205.62 2.58501L1212.92 7.66561L1205.62 12.7512L1198.31 7.66561L1205.62 2.58501Z" fill="#D8EBF8"/>
<path d="M1189.11 2.58501L1196.41 7.66561L1189.11 12.7512L1181.8 7.66561L1189.11 2.58501Z" fill="#D8EBF8"/>
<path d="M1172.6 2.58501L1179.9 7.66561L1172.6 12.7512L1165.29 7.66561L1172.6 2.58501Z" fill="#D8EBF8"/>
<path d="M1156.09 2.58501L1163.39 7.66561L1156.09 12.7512L1148.79 7.66561L1156.09 2.58501Z" fill="#D8EBF8"/>
<path d="M1139.58 2.58501L1146.88 7.66561L1139.58 12.7512L1132.28 7.66561L1139.58 2.58501Z" fill="#D8EBF8"/>
<path d="M1123.07 2.58498L1130.37 7.66558L1123.07 12.7512L1115.77 7.66558L1123.07 2.58498Z" fill="#D8EBF8"/>
<path d="M2039.62 83.5367V59.983L1853.2 59.983V83.5367L2039.62 83.5367Z" fill="#D8EBF8"/>
<path d="M1669.26 83.5367V59.983L1482.84 59.983V83.5367L1669.26 83.5367Z" fill="#D8EBF8"/>
<path d="M1296.42 83.5367V59.983L1110 59.983V83.5367L1296.42 83.5367Z" fill="#D8EBF8"/>
<path d="M1876.56 83.5267L1883.42 76.562L1899.72 60.0426L1899.77 59.983H1853.2L1876.56 83.5267Z" fill="#002649"/>
<path d="M1506.2 83.5267L1513.07 76.562L1529.36 60.0426L1529.42 59.983H1482.84L1506.2 83.5267Z" fill="#002649"/>
<path d="M1133.36 83.5267L1140.23 76.562L1156.52 60.0426L1156.58 59.983H1110L1133.36 83.5267Z" fill="#002649"/>
<path d="M1922.9 83.5367L1945.99 59.983H1899.66L1899.72 60.0426L1916.03 76.577L1922.9 83.5367Z" fill="#002649"/>
<path d="M1552.54 83.5367L1575.64 59.983H1529.3L1529.36 60.0426L1545.67 76.577L1552.54 83.5367Z" fill="#002649"/>
<path d="M1179.7 83.5367L1202.79 59.983H1156.46L1156.52 60.0426L1172.83 76.577L1179.7 83.5367Z" fill="#002649"/>
<path d="M1969.71 83.5417L1945.99 59.983H1993.01L1969.71 83.5417Z" fill="white"/>
<path d="M1599.35 83.5417L1575.64 59.983H1622.65L1599.35 83.5417Z" fill="white"/>
<path d="M1226.51 83.5417L1202.79 59.983H1249.81L1226.51 83.5417Z" fill="white"/>
<path d="M2016.33 83.656L1992.89 59.983H2039.62L2016.33 83.656Z" fill="white"/>
<path d="M1645.97 83.656L1622.53 59.983H1669.26L1645.97 83.656Z" fill="white"/>
<path d="M1273.13 83.656L1249.69 59.983H1296.42L1273.13 83.656Z" fill="white"/>
<path d="M1899.77 83.3428C1906.15 83.3428 1911.95 80.7926 1916.17 76.6615C1920.51 72.426 1923.2 66.5152 1923.2 59.983H1876.34C1876.34 66.5152 1879.03 72.421 1883.36 76.6515C1887.58 80.7926 1893.38 83.3428 1899.77 83.3428Z" fill="#D8EBF8"/>
<path d="M1529.41 83.3428C1535.79 83.3428 1541.59 80.7926 1545.81 76.6615C1550.15 72.426 1552.84 66.5152 1552.84 59.983H1505.98C1505.98 66.5152 1508.67 72.421 1513 76.6515C1517.22 80.7926 1523.02 83.3428 1529.41 83.3428Z" fill="#D8EBF8"/>
<path d="M1156.57 83.3428C1162.95 83.3428 1168.75 80.7926 1172.97 76.6615C1177.31 72.426 1180 66.5152 1180 59.983H1133.14C1133.14 66.5152 1135.83 72.421 1140.16 76.6515C1144.38 80.7926 1150.18 83.3428 1156.57 83.3428Z" fill="#D8EBF8"/>
<path d="M1899.76 59.983L1923.1 83.5367H1876.56L1899.76 59.983Z" fill="white"/>
<path d="M1529.4 59.983L1552.74 83.5367H1506.2L1529.4 59.983Z" fill="white"/>
<path d="M1156.56 59.983L1179.9 83.5367H1133.36L1156.56 59.983Z" fill="white"/>
<path d="M1969.71 83.5367V59.983H1945.99V83.5367H1969.71Z" fill="#002649"/>
<path d="M1599.35 83.5367V59.983H1575.64V83.5367H1599.35Z" fill="#002649"/>
<path d="M1226.51 83.5367V59.983H1202.79V83.5367H1226.51Z" fill="#002649"/>
<path d="M1945.99 59.983V83.5417H1969.71L1945.99 59.983Z" fill="white"/>
<path d="M1575.64 59.983V83.5417H1599.35L1575.64 59.983Z" fill="white"/>
<path d="M1202.79 59.983V83.5417H1226.51L1202.79 59.983Z" fill="white"/>
<path d="M1949.49 71.6156L1954.89 74.5636L1957.84 79.9474L1960.8 74.5636L1966.2 71.6156L1960.8 68.6727L1957.84 63.2888L1954.89 68.6727L1949.49 71.6156Z" fill="#D8EBF8"/>
<path d="M1579.14 71.6156L1584.53 74.5636L1587.49 79.9474L1590.44 74.5636L1595.84 71.6156L1590.44 68.6727L1587.49 63.2888L1584.53 68.6727L1579.14 71.6156Z" fill="#D8EBF8"/>
<path d="M1206.29 71.6156L1211.69 74.5636L1214.64 79.9474L1217.6 74.5636L1223 71.6156L1217.6 68.6727L1214.64 63.2888L1211.69 68.6727L1206.29 71.6156Z" fill="#D8EBF8"/>
<path d="M1853.2 36.4293V59.983L2039.62 59.983V36.4293L1853.2 36.4293Z" fill="#D8EBF8"/>
<path d="M1482.84 36.4293V59.983L1669.26 59.983V36.4293L1482.84 36.4293Z" fill="#D8EBF8"/>
<path d="M1110 36.4293V59.983L1296.42 59.983V36.4293L1110 36.4293Z" fill="#D8EBF8"/>
<path d="M1876.56 36.4392L1883.42 43.4039L1899.72 59.9283L1899.77 59.9829H1853.2L1876.56 36.4392Z" fill="#002649"/>
<path d="M1506.2 36.4392L1513.07 43.4039L1529.36 59.9283L1529.42 59.9829H1482.84L1506.2 36.4392Z" fill="#002649"/>
<path d="M1133.36 36.4392L1140.23 43.4039L1156.52 59.9283L1156.58 59.9829H1110L1133.36 36.4392Z" fill="#002649"/>
<path d="M1922.9 36.4342L1945.99 59.9829H1899.66L1899.72 59.9283L1916.03 43.3889L1922.9 36.4342Z" fill="#002649"/>
<path d="M1552.54 36.4342L1575.64 59.9829H1529.3L1529.36 59.9283L1545.67 43.3889L1552.54 36.4342Z" fill="#002649"/>
<path d="M1179.7 36.4342L1202.79 59.9829H1156.46L1156.52 59.9283L1172.83 43.3889L1179.7 36.4342Z" fill="#002649"/>
<path d="M1969.71 36.4292L1945.99 59.9829H1993.01L1969.71 36.4292Z" fill="white"/>
<path d="M1599.35 36.4292L1575.64 59.9829H1622.65L1599.35 36.4292Z" fill="white"/>
<path d="M1226.51 36.4292L1202.79 59.9829H1249.81L1226.51 36.4292Z" fill="white"/>
<path d="M2016.33 36.3149L1992.89 59.9829H2039.62L2016.33 36.3149Z" fill="white"/>
<path d="M1645.97 36.3149L1622.53 59.9829H1669.26L1645.97 36.3149Z" fill="white"/>
<path d="M1273.13 36.3149L1249.69 59.9829H1296.42L1273.13 36.3149Z" fill="white"/>
<path d="M1993.02 49.9063C1989.43 49.9063 1986.16 48.4447 1983.78 46.0685C1981.34 43.6376 1979.82 40.2422 1979.82 36.4939H2006.23C2006.23 40.2422 2004.71 43.6376 2002.27 46.0635C1999.89 48.4447 1996.63 49.9063 1993.02 49.9063Z" fill="white"/>
<path d="M1622.66 49.9063C1619.07 49.9063 1615.8 48.4447 1613.42 46.0685C1610.98 43.6376 1609.46 40.2422 1609.46 36.4939H1635.87C1635.87 40.2422 1634.36 43.6376 1631.92 46.0635C1629.53 48.4447 1626.27 49.9063 1622.66 49.9063Z" fill="white"/>
<path d="M1249.82 49.9063C1246.23 49.9063 1242.96 48.4447 1240.58 46.0685C1238.14 43.6376 1236.62 40.2422 1236.62 36.4939H1263.03C1263.03 40.2422 1261.51 43.6376 1259.07 46.0635C1256.69 48.4447 1253.42 49.9063 1249.82 49.9063Z" fill="white"/>
<path d="M1899.77 36.6281C1906.15 36.6281 1911.95 39.1783 1916.17 43.3094C1920.51 47.5449 1923.2 53.4557 1923.2 59.9879H1876.34C1876.34 53.4557 1879.03 47.5499 1883.36 43.3194C1887.58 39.1783 1893.38 36.6281 1899.77 36.6281Z" fill="#D8EBF8"/>
<path d="M1529.41 36.6281C1535.79 36.6281 1541.59 39.1783 1545.81 43.3094C1550.15 47.5449 1552.84 53.4557 1552.84 59.9879H1505.98C1505.98 53.4557 1508.67 47.5499 1513 43.3194C1517.22 39.1783 1523.02 36.6281 1529.41 36.6281Z" fill="#D8EBF8"/>
<path d="M1156.57 36.6281C1162.95 36.6281 1168.75 39.1783 1172.97 43.3094C1177.31 47.5449 1180 53.4557 1180 59.9879H1133.14C1133.14 53.4557 1135.83 47.5499 1140.16 43.3194C1144.38 39.1783 1150.18 36.6281 1156.57 36.6281Z" fill="#D8EBF8"/>
<path d="M1899.76 59.9829L1923.1 36.4342H1876.56L1899.76 59.9829Z" fill="white"/>
<path d="M1529.4 59.9829L1552.74 36.4342H1506.2L1529.4 59.9829Z" fill="white"/>
<path d="M1156.56 59.9829L1179.9 36.4342H1133.36L1156.56 59.9829Z" fill="white"/>
<path d="M1945.99 36.4342V59.9879H1969.71V36.4342H1945.99Z" fill="#002649"/>
<path d="M1575.64 36.4342V59.9879H1599.35V36.4342H1575.64Z" fill="#002649"/>
<path d="M1202.79 36.4342V59.9879H1226.51V36.4342H1202.79Z" fill="#002649"/>
<path d="M1945.99 59.9829V36.4292H1969.71L1945.99 59.9829Z" fill="white"/>
<path d="M1575.64 59.9829V36.4292H1599.35L1575.64 59.9829Z" fill="white"/>
<path d="M1202.79 59.9829V36.4292H1226.51L1202.79 59.9829Z" fill="white"/>
<path d="M1949.49 48.3502L1954.89 45.4072L1957.84 40.0234L1960.8 45.4072L1966.2 48.3502L1960.8 51.2981L1957.84 56.682L1954.89 51.2981L1949.49 48.3502Z" fill="#D8EBF8"/>
<path d="M1579.14 48.3502L1584.53 45.4072L1587.49 40.0234L1590.44 45.4072L1595.84 48.3502L1590.44 51.2981L1587.49 56.682L1584.53 51.2981L1579.14 48.3502Z" fill="#D8EBF8"/>
<path d="M1206.29 48.3502L1211.69 45.4072L1214.64 40.0234L1217.6 45.4072L1223 48.3502L1217.6 51.2981L1214.64 56.682L1211.69 51.2981L1206.29 48.3502Z" fill="#D8EBF8"/>
<path d="M2226.04 83.5367V59.983L2039.62 59.983V83.5367L2226.04 83.5367Z" fill="#D8EBF8"/>
<path d="M1855.69 83.5367V59.983L1669.26 59.983V83.5367L1855.69 83.5367Z" fill="#D8EBF8"/>
<path d="M1482.84 83.5367V59.983L1296.42 59.983V83.5367L1482.84 83.5367Z" fill="#D8EBF8"/>
<path d="M2062.98 83.5267L2069.85 76.562L2086.14 60.0426L2086.2 59.983H2039.62L2062.98 83.5267Z" fill="#002649"/>
<path d="M1692.62 83.5267L1699.49 76.562L1715.78 60.0426L1715.84 59.983H1669.26L1692.62 83.5267Z" fill="#002649"/>
<path d="M1319.78 83.5267L1326.65 76.562L1342.94 60.0426L1343 59.983H1296.42L1319.78 83.5267Z" fill="#002649"/>
<path d="M2109.32 83.5367L2132.41 59.983H2086.08L2086.14 60.0426L2102.45 76.577L2109.32 83.5367Z" fill="#002649"/>
<path d="M1738.97 83.5367L1762.06 59.983H1715.73L1715.78 60.0426L1732.1 76.577L1738.97 83.5367Z" fill="#002649"/>
<path d="M1366.12 83.5367L1389.21 59.983H1342.88L1342.94 60.0426L1359.25 76.577L1366.12 83.5367Z" fill="#002649"/>
<path d="M2156.13 83.5417L2132.41 59.983H2179.43L2156.13 83.5417Z" fill="white"/>
<path d="M1785.77 83.5417L1762.06 59.983H1809.07L1785.77 83.5417Z" fill="white"/>
<path d="M1412.93 83.5417L1389.21 59.983H1436.23L1412.93 83.5417Z" fill="white"/>
<path d="M2202.75 83.656L2179.31 59.983H2226.04L2202.75 83.656Z" fill="white"/>
<path d="M1832.39 83.656L1808.95 59.983H1855.69L1832.39 83.656Z" fill="white"/>
<path d="M1459.55 83.656L1436.11 59.983H1482.84L1459.55 83.656Z" fill="white"/>
<path d="M2086.19 83.3428C2092.57 83.3428 2098.37 80.7926 2102.59 76.6615C2106.93 72.426 2109.62 66.5152 2109.62 59.983H2062.76C2062.76 66.5152 2065.45 72.421 2069.78 76.6515C2074 80.7926 2079.8 83.3428 2086.19 83.3428Z" fill="#D8EBF8"/>
<path d="M1715.83 83.3428C1722.21 83.3428 1728.01 80.7926 1732.23 76.6615C1736.57 72.426 1739.26 66.5152 1739.26 59.983H1692.41C1692.41 66.5152 1695.09 72.421 1699.42 76.6515C1703.65 80.7926 1709.45 83.3428 1715.83 83.3428Z" fill="#D8EBF8"/>
<path d="M1342.99 83.3428C1349.37 83.3428 1355.17 80.7926 1359.39 76.6615C1363.73 72.426 1366.42 66.5152 1366.42 59.983H1319.56C1319.56 66.5152 1322.25 72.421 1326.58 76.6515C1330.8 80.7926 1336.6 83.3428 1342.99 83.3428Z" fill="#D8EBF8"/>
<path d="M2086.18 59.983L2109.52 83.5367H2062.98L2086.18 59.983Z" fill="white"/>
<path d="M1715.82 59.983L1739.16 83.5367H1692.62L1715.82 59.983Z" fill="white"/>
<path d="M1342.98 59.983L1366.32 83.5367H1319.78L1342.98 59.983Z" fill="white"/>
<path d="M2156.13 83.5367V59.983H2132.41V83.5367H2156.13Z" fill="#002649"/>
<path d="M1785.77 83.5367V59.983H1762.06V83.5367H1785.77Z" fill="#002649"/>
<path d="M1412.93 83.5367V59.983H1389.21V83.5367H1412.93Z" fill="#002649"/>
<path d="M2132.41 59.983V83.5417H2156.13L2132.41 59.983Z" fill="white"/>
<path d="M1762.06 59.983V83.5417H1785.77L1762.06 59.983Z" fill="white"/>
<path d="M1389.21 59.983V83.5417H1412.93L1389.21 59.983Z" fill="white"/>
<path d="M2135.91 71.6156L2141.31 74.5636L2144.27 79.9474L2147.22 74.5636L2152.62 71.6156L2147.22 68.6727L2144.27 63.2888L2141.31 68.6727L2135.91 71.6156Z" fill="#D8EBF8"/>
<path d="M1765.56 71.6156L1770.96 74.5636L1773.91 79.9474L1776.86 74.5636L1782.26 71.6156L1776.86 68.6727L1773.91 63.2888L1770.96 68.6727L1765.56 71.6156Z" fill="#D8EBF8"/>
<path d="M1392.71 71.6156L1398.11 74.5636L1401.07 79.9474L1404.02 74.5636L1409.42 71.6156L1404.02 68.6727L1401.07 63.2888L1398.11 68.6727L1392.71 71.6156Z" fill="#D8EBF8"/>
<path d="M2039.62 36.4293V59.983L2226.04 59.983V36.4293L2039.62 36.4293Z" fill="#D8EBF8"/>
<path d="M1669.26 36.4293V59.983L1855.69 59.983V36.4293L1669.26 36.4293Z" fill="#D8EBF8"/>
<path d="M1296.42 36.4293V59.983L1482.84 59.983V36.4293L1296.42 36.4293Z" fill="#D8EBF8"/>
<path d="M2062.98 36.4392L2069.85 43.4039L2086.14 59.9283L2086.2 59.9829H2039.62L2062.98 36.4392Z" fill="#002649"/>
<path d="M1692.62 36.4392L1699.49 43.4039L1715.78 59.9283L1715.84 59.9829H1669.26L1692.62 36.4392Z" fill="#002649"/>
<path d="M1319.78 36.4392L1326.65 43.4039L1342.94 59.9283L1343 59.9829H1296.42L1319.78 36.4392Z" fill="#002649"/>
<path d="M2109.32 36.4342L2132.41 59.9829H2086.08L2086.14 59.9283L2102.45 43.3889L2109.32 36.4342Z" fill="#002649"/>
<path d="M1738.97 36.4342L1762.06 59.9829H1715.73L1715.78 59.9283L1732.1 43.3889L1738.97 36.4342Z" fill="#002649"/>
<path d="M1366.12 36.4342L1389.21 59.9829H1342.88L1342.94 59.9283L1359.25 43.3889L1366.12 36.4342Z" fill="#002649"/>
<path d="M2156.13 36.4292L2132.41 59.9829H2179.43L2156.13 36.4292Z" fill="white"/>
<path d="M1785.77 36.4292L1762.06 59.9829H1809.07L1785.77 36.4292Z" fill="white"/>
<path d="M1412.93 36.4292L1389.21 59.9829H1436.23L1412.93 36.4292Z" fill="white"/>
<path d="M2202.75 36.3149L2179.31 59.9829H2226.04L2202.75 36.3149Z" fill="white"/>
<path d="M1832.39 36.3149L1808.95 59.9829H1855.69L1832.39 36.3149Z" fill="white"/>
<path d="M1459.55 36.3149L1436.11 59.9829H1482.84L1459.55 36.3149Z" fill="white"/>
<path d="M2179.44 49.9063C2175.85 49.9063 2172.58 48.4447 2170.2 46.0685C2167.76 43.6376 2166.24 40.2422 2166.24 36.4939H2192.65C2192.65 40.2422 2191.13 43.6376 2188.69 46.0635C2186.31 48.4447 2183.05 49.9063 2179.44 49.9063Z" fill="white"/>
<path d="M1809.09 49.9063C1805.49 49.9063 1802.22 48.4447 1799.84 46.0685C1797.4 43.6376 1795.88 40.2422 1795.88 36.4939H1822.29C1822.29 40.2422 1820.78 43.6376 1818.34 46.0635C1815.96 48.4447 1812.69 49.9063 1809.09 49.9063Z" fill="white"/>
<path d="M1436.24 49.9063C1432.65 49.9063 1429.38 48.4447 1427 46.0685C1424.56 43.6376 1423.04 40.2422 1423.04 36.4939H1449.45C1449.45 40.2422 1447.94 43.6376 1445.49 46.0635C1443.11 48.4447 1439.85 49.9063 1436.24 49.9063Z" fill="white"/>
<path d="M2086.19 36.6281C2092.57 36.6281 2098.37 39.1783 2102.59 43.3094C2106.93 47.5449 2109.62 53.4557 2109.62 59.9879H2062.76C2062.76 53.4557 2065.45 47.5499 2069.78 43.3194C2074 39.1783 2079.8 36.6281 2086.19 36.6281Z" fill="#D8EBF8"/>
<path d="M1715.83 36.6281C1722.21 36.6281 1728.01 39.1783 1732.23 43.3094C1736.57 47.5449 1739.26 53.4557 1739.26 59.9879H1692.41C1692.41 53.4557 1695.09 47.5499 1699.42 43.3194C1703.65 39.1783 1709.45 36.6281 1715.83 36.6281Z" fill="#D8EBF8"/>
<path d="M1342.99 36.6281C1349.37 36.6281 1355.17 39.1783 1359.39 43.3094C1363.73 47.5449 1366.42 53.4557 1366.42 59.9879H1319.56C1319.56 53.4557 1322.25 47.5499 1326.58 43.3194C1330.8 39.1783 1336.6 36.6281 1342.99 36.6281Z" fill="#D8EBF8"/>
<path d="M2086.18 59.9829L2109.52 36.4342H2062.98L2086.18 59.9829Z" fill="white"/>
<path d="M1715.82 59.9829L1739.16 36.4342H1692.62L1715.82 59.9829Z" fill="white"/>
<path d="M1342.98 59.9829L1366.32 36.4342H1319.78L1342.98 59.9829Z" fill="white"/>
<path d="M2132.41 36.4342V59.9879H2156.13V36.4342H2132.41Z" fill="#002649"/>
<path d="M1762.06 36.4342V59.9879H1785.77V36.4342H1762.06Z" fill="#002649"/>
<path d="M1389.21 36.4342V59.9879H1412.93V36.4342H1389.21Z" fill="#002649"/>
<path d="M2132.41 59.9829V36.4292H2156.13L2132.41 59.9829Z" fill="white"/>
<path d="M1762.06 59.9829V36.4292H1785.77L1762.06 59.9829Z" fill="white"/>
<path d="M1389.21 59.9829V36.4292H1412.93L1389.21 59.9829Z" fill="white"/>
<path d="M2135.91 48.3502L2141.31 45.4072L2144.27 40.0234L2147.22 45.4072L2152.62 48.3502L2147.22 51.2981L2144.27 56.682L2141.31 51.2981L2135.91 48.3502Z" fill="#D8EBF8"/>
<path d="M1765.56 48.3502L1770.96 45.4072L1773.91 40.0234L1776.86 45.4072L1782.26 48.3502L1776.86 51.2981L1773.91 56.682L1770.96 51.2981L1765.56 48.3502Z" fill="#D8EBF8"/>
<path d="M1392.71 48.3502L1398.11 45.4072L1401.07 40.0234L1404.02 45.4072L1409.42 48.3502L1404.02 51.2981L1401.07 56.682L1398.11 51.2981L1392.71 48.3502Z" fill="#D8EBF8"/>
<path d="M2039.62 36.9561V13.4024L1853.2 13.4024V36.9561L2039.62 36.9561Z" fill="#D8EBF8"/>
<path d="M1669.26 36.9561V13.4024L1482.84 13.4024V36.9561L1669.26 36.9561Z" fill="#D8EBF8"/>
<path d="M1296.42 36.9561V13.4024L1110 13.4024V36.9561L1296.42 36.9561Z" fill="#D8EBF8"/>
<path d="M1876.56 36.9462L1883.42 29.9815L1899.72 13.4621L1899.77 13.4024H1853.2L1876.56 36.9462Z" fill="#002649"/>
<path d="M1506.2 36.9462L1513.07 29.9815L1529.36 13.4621L1529.42 13.4024H1482.84L1506.2 36.9462Z" fill="#002649"/>
<path d="M1133.36 36.9462L1140.23 29.9815L1156.52 13.4621L1156.58 13.4024H1110L1133.36 36.9462Z" fill="#002649"/>
<path d="M1922.9 36.9561L1945.99 13.4024H1899.66L1899.72 13.4621L1916.03 29.9964L1922.9 36.9561Z" fill="#002649"/>
<path d="M1552.54 36.9561L1575.64 13.4024H1529.3L1529.36 13.4621L1545.67 29.9964L1552.54 36.9561Z" fill="#002649"/>
<path d="M1179.7 36.9561L1202.79 13.4024H1156.46L1156.52 13.4621L1172.83 29.9964L1179.7 36.9561Z" fill="#002649"/>
<path d="M1969.71 36.9611L1945.99 13.4024H1993.01L1969.71 36.9611Z" fill="white"/>
<path d="M1599.35 36.9611L1575.64 13.4024H1622.65L1599.35 36.9611Z" fill="white"/>
<path d="M1226.51 36.9611L1202.79 13.4024H1249.81L1226.51 36.9611Z" fill="white"/>
<path d="M2016.33 37.0754L1992.89 13.4024H2039.62L2016.33 37.0754Z" fill="white"/>
<path d="M1645.97 37.0754L1622.53 13.4024H1669.26L1645.97 37.0754Z" fill="white"/>
<path d="M1273.13 37.0754L1249.69 13.4024H1296.42L1273.13 37.0754Z" fill="white"/>
<path d="M1993.02 23.5438C1989.43 23.5438 1986.16 25.0053 1983.78 27.3816C1981.34 29.8125 1979.82 33.2079 1979.82 36.9562H2006.23C2006.23 33.2079 2004.71 29.8125 2002.27 27.3865C1999.89 25.0053 1996.63 23.5438 1993.02 23.5438Z" fill="white"/>
<path d="M1622.66 23.5438C1619.07 23.5438 1615.8 25.0053 1613.42 27.3816C1610.98 29.8125 1609.46 33.2079 1609.46 36.9562H1635.87C1635.87 33.2079 1634.36 29.8125 1631.92 27.3865C1629.53 25.0053 1626.27 23.5438 1622.66 23.5438Z" fill="white"/>
<path d="M1249.82 23.5438C1246.23 23.5438 1242.96 25.0053 1240.58 27.3816C1238.14 29.8125 1236.62 33.2079 1236.62 36.9562H1263.03C1263.03 33.2079 1261.51 29.8125 1259.07 27.3865C1256.69 25.0053 1253.42 23.5438 1249.82 23.5438Z" fill="white"/>
<path d="M1899.77 36.7622C1906.15 36.7622 1911.95 34.212 1916.17 30.0809C1920.51 25.8454 1923.2 19.9346 1923.2 13.4024H1876.34C1876.34 19.9346 1879.03 25.8404 1883.36 30.071C1887.58 34.212 1893.38 36.7622 1899.77 36.7622Z" fill="#D8EBF8"/>
<path d="M1529.41 36.7622C1535.79 36.7622 1541.59 34.212 1545.81 30.0809C1550.15 25.8454 1552.84 19.9346 1552.84 13.4024H1505.98C1505.98 19.9346 1508.67 25.8404 1513 30.071C1517.22 34.212 1523.02 36.7622 1529.41 36.7622Z" fill="#D8EBF8"/>
<path d="M1156.57 36.7622C1162.95 36.7622 1168.75 34.212 1172.97 30.0809C1177.31 25.8454 1180 19.9346 1180 13.4024H1133.14C1133.14 19.9346 1135.83 25.8404 1140.16 30.071C1144.38 34.212 1150.18 36.7622 1156.57 36.7622Z" fill="#D8EBF8"/>
<path d="M1899.76 13.4024L1923.1 36.9561H1876.56L1899.76 13.4024Z" fill="white"/>
<path d="M1529.4 13.4024L1552.74 36.9561H1506.2L1529.4 13.4024Z" fill="white"/>
<path d="M1156.56 13.4024L1179.9 36.9561H1133.36L1156.56 13.4024Z" fill="white"/>
<path d="M1969.71 36.9561V13.4024L1945.99 13.4024V36.9561H1969.71Z" fill="#002649"/>
<path d="M1599.35 36.9561V13.4024L1575.64 13.4024V36.9561H1599.35Z" fill="#002649"/>
<path d="M1226.51 36.9561V13.4024L1202.79 13.4024V36.9561H1226.51Z" fill="#002649"/>
<path d="M1945.99 13.4024V36.9611H1969.71L1945.99 13.4024Z" fill="white"/>
<path d="M1575.64 13.4024V36.9611H1599.35L1575.64 13.4024Z" fill="white"/>
<path d="M1202.79 13.4024V36.9611H1226.51L1202.79 13.4024Z" fill="white"/>
<path d="M1949.49 25.0351L1954.89 27.9831L1957.84 33.3669L1960.8 27.9831L1966.2 25.0351L1960.8 22.0922L1957.84 16.7083L1954.89 22.0922L1949.49 25.0351Z" fill="#D8EBF8"/>
<path d="M1579.14 25.0351L1584.53 27.9831L1587.49 33.3669L1590.44 27.9831L1595.84 25.0351L1590.44 22.0922L1587.49 16.7083L1584.53 22.0922L1579.14 25.0351Z" fill="#D8EBF8"/>
<path d="M1206.29 25.0351L1211.69 27.9831L1214.64 33.3669L1217.6 27.9831L1223 25.0351L1217.6 22.0922L1214.64 16.7083L1211.69 22.0922L1206.29 25.0351Z" fill="#D8EBF8"/>
<path d="M2226.04 36.9561V13.4024L2039.62 13.4024V36.9561L2226.04 36.9561Z" fill="#D8EBF8"/>
<path d="M1855.69 36.9561V13.4024L1669.26 13.4024V36.9561L1855.69 36.9561Z" fill="#D8EBF8"/>
<path d="M1482.84 36.9561V13.4024L1296.42 13.4024V36.9561L1482.84 36.9561Z" fill="#D8EBF8"/>
<path d="M2062.98 36.9462L2069.85 29.9815L2086.14 13.4621L2086.2 13.4024H2039.62L2062.98 36.9462Z" fill="#002649"/>
<path d="M1692.62 36.9462L1699.49 29.9815L1715.78 13.4621L1715.84 13.4024H1669.26L1692.62 36.9462Z" fill="#002649"/>
<path d="M1319.78 36.9462L1326.65 29.9815L1342.94 13.4621L1343 13.4024H1296.42L1319.78 36.9462Z" fill="#002649"/>
<path d="M2109.32 36.9561L2132.41 13.4024H2086.08L2086.14 13.4621L2102.45 29.9964L2109.32 36.9561Z" fill="#002649"/>
<path d="M1738.97 36.9561L1762.06 13.4024H1715.73L1715.78 13.4621L1732.1 29.9964L1738.97 36.9561Z" fill="#002649"/>
<path d="M1366.12 36.9561L1389.21 13.4024H1342.88L1342.94 13.4621L1359.25 29.9964L1366.12 36.9561Z" fill="#002649"/>
<path d="M2156.13 36.9611L2132.41 13.4024H2179.43L2156.13 36.9611Z" fill="white"/>
<path d="M1785.77 36.9611L1762.06 13.4024H1809.07L1785.77 36.9611Z" fill="white"/>
<path d="M1412.93 36.9611L1389.21 13.4024H1436.23L1412.93 36.9611Z" fill="white"/>
<path d="M2202.75 37.0754L2179.31 13.4024H2226.04L2202.75 37.0754Z" fill="white"/>
<path d="M1832.39 37.0754L1808.95 13.4024H1855.69L1832.39 37.0754Z" fill="white"/>
<path d="M1459.55 37.0754L1436.11 13.4024H1482.84L1459.55 37.0754Z" fill="white"/>
<path d="M2179.44 23.5438C2175.85 23.5438 2172.58 25.0053 2170.2 27.3816C2167.76 29.8125 2166.24 33.2079 2166.24 36.9562H2192.65C2192.65 33.2079 2191.13 29.8125 2188.69 27.3865C2186.31 25.0053 2183.05 23.5438 2179.44 23.5438Z" fill="white"/>
<path d="M1809.09 23.5438C1805.49 23.5438 1802.22 25.0053 1799.84 27.3816C1797.4 29.8125 1795.88 33.2079 1795.88 36.9562H1822.29C1822.29 33.2079 1820.78 29.8125 1818.34 27.3865C1815.96 25.0053 1812.69 23.5438 1809.09 23.5438Z" fill="white"/>
<path d="M1436.24 23.5438C1432.65 23.5438 1429.38 25.0053 1427 27.3816C1424.56 29.8125 1423.04 33.2079 1423.04 36.9562H1449.45C1449.45 33.2079 1447.94 29.8125 1445.49 27.3865C1443.11 25.0053 1439.85 23.5438 1436.24 23.5438Z" fill="white"/>
<path d="M2086.19 36.7622C2092.57 36.7622 2098.37 34.212 2102.59 30.0809C2106.93 25.8454 2109.62 19.9346 2109.62 13.4024H2062.76C2062.76 19.9346 2065.45 25.8404 2069.78 30.071C2074 34.212 2079.8 36.7622 2086.19 36.7622Z" fill="#D8EBF8"/>
<path d="M1715.83 36.7622C1722.21 36.7622 1728.01 34.212 1732.23 30.0809C1736.57 25.8454 1739.26 19.9346 1739.26 13.4024H1692.41C1692.41 19.9346 1695.09 25.8404 1699.42 30.071C1703.65 34.212 1709.45 36.7622 1715.83 36.7622Z" fill="#D8EBF8"/>
<path d="M1342.99 36.7622C1349.37 36.7622 1355.17 34.212 1359.39 30.0809C1363.73 25.8454 1366.42 19.9346 1366.42 13.4024H1319.56C1319.56 19.9346 1322.25 25.8404 1326.58 30.071C1330.8 34.212 1336.6 36.7622 1342.99 36.7622Z" fill="#D8EBF8"/>
<path d="M2086.18 13.4024L2109.52 36.9561H2062.98L2086.18 13.4024Z" fill="white"/>
<path d="M1715.82 13.4024L1739.16 36.9561H1692.62L1715.82 13.4024Z" fill="white"/>
<path d="M1342.98 13.4024L1366.32 36.9561H1319.78L1342.98 13.4024Z" fill="white"/>
<path d="M2156.13 36.9561V13.4024L2132.41 13.4024V36.9561H2156.13Z" fill="#002649"/>
<path d="M1785.77 36.9561V13.4024L1762.06 13.4024V36.9561H1785.77Z" fill="#002649"/>
<path d="M1412.93 36.9561V13.4024L1389.21 13.4024V36.9561H1412.93Z" fill="#002649"/>
<path d="M2132.41 13.4024V36.9611H2156.13L2132.41 13.4024Z" fill="white"/>
<path d="M1762.06 13.4024V36.9611H1785.77L1762.06 13.4024Z" fill="white"/>
<path d="M1389.21 13.4024V36.9611H1412.93L1389.21 13.4024Z" fill="white"/>
<path d="M2135.91 25.0351L2141.31 27.9831L2144.27 33.3669L2147.22 27.9831L2152.62 25.0351L2147.22 22.0922L2144.27 16.7083L2141.31 22.0922L2135.91 25.0351Z" fill="#D8EBF8"/>
<path d="M1765.56 25.0351L1770.96 27.9831L1773.91 33.3669L1776.86 27.9831L1782.26 25.0351L1776.86 22.0922L1773.91 16.7083L1770.96 22.0922L1765.56 25.0351Z" fill="#D8EBF8"/>
<path d="M1392.71 25.0351L1398.11 27.9831L1401.07 33.3669L1404.02 27.9831L1409.42 25.0351L1404.02 22.0922L1401.07 16.7083L1398.11 22.0922L1392.71 25.0351Z" fill="#D8EBF8"/>
</svg>
