<svg width="25" height="25" viewBox="0 0 25 25" fill="none" xmlns="http://www.w3.org/2000/svg">
<path d="M11.75 20.6824C11.75 20.8813 11.671 21.0721 11.5303 21.2128C11.3897 21.3534 11.1989 21.4324 11 21.4324H5C4.80109 21.4324 4.61032 21.3534 4.46967 21.2128C4.32902 21.0721 4.25 20.8813 4.25 20.6824V4.18243C4.25 3.98352 4.32902 3.79276 4.46967 3.6521C4.61032 3.51145 4.80109 3.43243 5 3.43243H11C11.1989 3.43243 11.3897 3.51145 11.5303 3.6521C11.671 3.79276 11.75 3.98352 11.75 4.18243C11.75 4.38135 11.671 4.57211 11.5303 4.71276C11.3897 4.85342 11.1989 4.93243 11 4.93243H5.75V19.9324H11C11.1989 19.9324 11.3897 20.0115 11.5303 20.1521C11.671 20.2928 11.75 20.4835 11.75 20.6824ZM22.0306 11.9018L18.2806 8.15181C18.1399 8.01108 17.949 7.93202 17.75 7.93202C17.551 7.93202 17.3601 8.01108 17.2194 8.15181C17.0786 8.29254 16.9996 8.48341 16.9996 8.68243C16.9996 8.88146 17.0786 9.07233 17.2194 9.21306L19.6897 11.6824H11C10.8011 11.6824 10.6103 11.7615 10.4697 11.9021C10.329 12.0428 10.25 12.2335 10.25 12.4324C10.25 12.6313 10.329 12.8221 10.4697 12.9628C10.6103 13.1034 10.8011 13.1824 11 13.1824H19.6897L17.2194 15.6518C17.0786 15.7925 16.9996 15.9834 16.9996 16.1824C16.9996 16.3815 17.0786 16.5723 17.2194 16.7131C17.3601 16.8538 17.551 16.9329 17.75 16.9329C17.949 16.9329 18.1399 16.8538 18.2806 16.7131L22.0306 12.9631C22.1004 12.8934 22.1557 12.8107 22.1934 12.7196C22.2312 12.6286 22.2506 12.531 22.2506 12.4324C22.2506 12.3339 22.2312 12.2363 22.1934 12.1452C22.1557 12.0542 22.1004 11.9715 22.0306 11.9018Z" fill="#D0D0D0"/>
</svg>
