<svg width="200" height="155" viewBox="0 0 200 155" fill="none" xmlns="http://www.w3.org/2000/svg">
<path d="M7.67412 155L-1.52588e-05 125.584H3.44132L9.33465 149.552H9.60235L15.6082 125.584H19.4647L25.4356 149.552H25.7382L31.5966 125.584H35.0729L27.3638 155H23.8488L17.6489 131.587H17.4239L11.2241 155H7.67412Z" fill="white"/>
<path d="M42.3228 154.992C40.982 154.992 39.7581 154.727 38.6589 154.201C37.5598 153.672 36.6828 152.91 36.0396 151.907C35.3965 150.904 35.073 149.693 35.073 148.273C35.073 147.021 35.3147 146.01 35.7941 145.236C36.2735 144.462 36.9166 143.848 37.7196 143.399C38.5225 142.95 39.4073 142.617 40.3778 142.392C41.3484 142.172 42.3228 141.995 43.3089 141.867C44.5991 141.698 45.6476 141.566 46.4505 141.474C47.2534 141.381 47.842 141.229 48.2162 141.004C48.5903 140.784 48.7774 140.407 48.7774 139.869V139.753C48.7774 138.357 48.4072 137.274 47.6666 136.5C46.926 135.726 45.8035 135.336 44.2989 135.336C42.7944 135.336 41.5393 135.685 40.6546 136.383C39.7698 137.081 39.15 137.827 38.7953 138.622L35.6811 137.49C36.2384 136.163 36.9829 135.128 37.9105 134.386C38.8421 133.644 39.8516 133.122 40.9469 132.821C42.0422 132.52 43.1218 132.372 44.182 132.372C44.8641 132.372 45.6515 132.452 46.5362 132.617C47.421 132.781 48.2863 133.118 49.1282 133.632C49.9702 134.145 50.6678 134.919 51.2174 135.958C51.767 136.993 52.0437 138.377 52.0437 140.11V154.49H48.7774V151.522H48.6254C48.4111 151.991 48.0447 152.497 47.5224 153.034C47.004 153.576 46.318 154.037 45.4644 154.422C44.6108 154.807 43.5623 155 42.3228 155M42.8178 151.983C44.108 151.983 45.1993 151.723 46.0841 151.201C46.9689 150.68 47.6393 150.006 48.0953 149.179C48.5514 148.353 48.7774 147.491 48.7774 146.592V143.507C48.6371 143.676 48.337 143.828 47.8771 143.965C47.4132 144.101 46.8831 144.221 46.2829 144.326C45.6826 144.43 45.098 144.518 44.525 144.59C43.9559 144.663 43.4999 144.719 43.1569 144.755C42.3072 144.871 41.516 145.06 40.7832 145.312C40.0504 145.565 39.458 145.942 39.0097 146.436C38.5615 146.933 38.3354 147.607 38.3354 148.469C38.3354 149.629 38.7564 150.503 39.5983 151.097C40.4402 151.69 41.5121 151.987 42.8178 151.987" fill="white"/>
<path d="M72.0111 137.581L68.9719 138.405C68.6842 137.661 68.1858 136.954 67.4807 136.283C66.7756 135.611 65.6815 135.274 64.1943 135.274C62.853 135.274 61.7346 135.583 60.8391 136.202C59.9435 136.821 59.4978 137.597 59.4978 138.521C59.4978 139.357 59.8058 140.02 60.4136 140.519C61.0255 141.013 61.9818 141.419 63.2866 141.733L66.5649 142.516C68.5262 142.987 69.989 143.71 70.9575 144.687C71.926 145.667 72.4082 146.913 72.4082 148.424C72.4082 149.678 72.0476 150.8 71.3222 151.792C70.5969 152.785 69.5919 153.569 68.3033 154.14C67.0147 154.714 65.5154 155 63.8053 155C61.5563 155 59.6964 154.509 58.2295 153.533C56.7625 152.552 55.8305 151.137 55.4375 149.285L58.6347 148.501C58.9386 149.674 59.5181 150.555 60.3812 151.145C61.2443 151.732 62.3708 152.026 63.7648 152.026C65.329 152.026 66.5811 151.692 67.5253 151.017C68.4654 150.346 68.9355 149.546 68.9355 148.617C68.9355 147.078 67.8413 146.045 65.6572 145.523L61.9859 144.663C59.9598 144.18 58.4726 143.445 57.5244 142.452C56.5761 141.459 56.102 140.213 56.102 138.714C56.102 137.476 56.4546 136.379 57.1597 135.427C57.8648 134.474 58.8292 133.727 60.053 133.184C61.2767 132.641 62.6585 132.372 64.1984 132.372C66.3947 132.372 68.1169 132.85 69.3609 133.811C70.605 134.771 71.4884 136.025 72.0151 137.581" fill="white"/>
<path d="M81.273 154.992C79.8428 154.992 78.5415 154.727 77.3649 154.201C76.1883 153.672 75.257 152.91 74.571 151.907C73.885 150.904 73.5399 149.693 73.5399 148.273C73.5399 147.021 73.7976 146.01 74.309 145.236C74.8204 144.462 75.5064 143.848 76.3629 143.399C77.2193 142.95 78.1673 142.617 79.1984 142.392C80.2294 142.172 81.273 141.995 82.329 141.867C83.7052 141.698 84.8236 141.566 85.68 141.474C86.5365 141.381 87.1643 141.229 87.5634 141.004C87.9626 140.784 88.1621 140.407 88.1621 139.869V139.753C88.1621 138.357 87.7671 137.274 86.9772 136.5C86.1873 135.726 84.9899 135.336 83.3809 135.336C81.7719 135.336 80.4373 135.685 79.4935 136.383C78.5498 137.081 77.8887 137.827 77.5104 138.622L74.1885 137.49C74.783 136.163 75.5771 135.128 76.5666 134.386C77.5561 133.644 78.6371 133.122 79.8054 132.821C80.9736 132.52 82.1253 132.372 83.2562 132.372C83.9837 132.372 84.8236 132.452 85.7673 132.617C86.7111 132.781 87.6341 133.118 88.5321 133.632C89.4302 134.145 90.1702 134.919 90.7606 135.958C91.3468 136.993 91.642 138.377 91.642 140.11V154.49H88.158V151.522H87.9958C87.7671 151.991 87.3763 152.497 86.8192 153.034C86.2663 153.576 85.5345 154.037 84.6199 154.422C83.7093 154.807 82.591 155 81.2688 155M81.801 151.983C83.1772 151.983 84.3413 151.723 85.2851 151.201C86.2288 150.68 86.9439 150.006 87.4304 149.179C87.9168 148.353 88.158 147.491 88.158 146.592V143.507C88.0083 143.676 87.6881 143.828 87.1976 143.965C86.7028 144.101 86.1374 144.221 85.4971 144.326C84.8568 144.43 84.229 144.518 83.622 144.59C83.015 144.663 82.5286 144.719 82.1627 144.755C81.2564 144.871 80.4124 145.06 79.6308 145.312C78.8491 145.565 78.2172 145.942 77.739 146.436C77.2609 146.933 77.0198 147.607 77.0198 148.469C77.0198 149.629 77.4688 150.503 78.3668 151.097C79.2649 151.69 80.4082 151.987 81.801 151.987" fill="white"/>
<path d="M102.284 154.992C100.944 154.992 99.7242 154.727 98.6214 154.201C97.5225 153.672 96.6457 152.91 96.0027 151.907C95.3559 150.904 95.0363 149.693 95.0363 148.273C95.0363 147.021 95.274 146.01 95.7572 145.236C96.2404 144.462 96.8795 143.848 97.6823 143.399C98.485 142.95 99.3696 142.617 100.34 142.392C101.31 142.172 102.284 141.995 103.274 141.867C104.564 141.698 105.612 141.566 106.415 141.474C107.218 141.381 107.806 141.229 108.18 141.004C108.554 140.784 108.742 140.407 108.742 139.869V139.753C108.742 138.357 108.371 137.274 107.631 136.5C106.891 135.726 105.768 135.336 104.264 135.336C102.76 135.336 101.505 135.685 100.62 136.383C99.7359 137.081 99.1163 137.827 98.7617 138.622L95.6481 137.49C96.2054 136.163 96.9497 135.128 97.8771 134.386C98.8085 133.644 99.8177 133.122 100.913 132.821C102.008 132.52 103.087 132.372 104.147 132.372C104.833 132.372 105.616 132.452 106.501 132.617C107.385 132.781 108.251 133.118 109.092 133.632C109.934 134.145 110.628 134.919 111.181 135.958C111.73 136.993 112.007 138.377 112.007 140.11V154.49H108.742V151.522H108.59C108.375 151.991 108.009 152.497 107.487 153.034C106.968 153.576 106.283 154.037 105.429 154.422C104.576 154.807 103.528 155 102.288 155M102.779 151.983C104.069 151.983 105.156 151.723 106.045 151.201C106.929 150.68 107.6 150.006 108.056 149.179C108.512 148.353 108.738 147.491 108.738 146.592V143.507C108.597 143.676 108.297 143.828 107.837 143.965C107.378 144.101 106.844 144.221 106.244 144.326C105.644 144.43 105.059 144.518 104.49 144.59C103.921 144.663 103.465 144.719 103.122 144.755C102.273 144.871 101.482 145.06 100.749 145.312C100.016 145.565 99.4242 145.942 98.976 146.436C98.5279 146.933 98.3019 147.607 98.3019 148.469C98.3019 149.629 98.7227 150.503 99.5645 151.097C100.406 151.69 101.478 151.987 102.783 151.987" fill="white"/>
<path d="M128.341 154.996C125.863 154.996 123.647 154.412 121.692 153.247C119.736 152.083 118.202 150.402 117.08 148.211C115.962 146.021 115.401 143.384 115.401 140.309C115.401 137.235 115.966 134.579 117.099 132.38C118.233 130.182 119.775 128.5 121.727 127.332C123.682 126.168 125.887 125.584 128.337 125.584C129.891 125.584 131.352 125.809 132.711 126.259C134.071 126.709 135.282 127.364 136.345 128.228C137.409 129.093 138.278 130.15 138.955 131.401C139.629 132.653 140.077 134.069 140.291 135.66H135.13C134.99 134.788 134.721 134.018 134.324 133.351C133.927 132.684 133.432 132.12 132.844 131.65C132.255 131.184 131.586 130.829 130.842 130.592C130.098 130.355 129.291 130.237 128.434 130.237C126.892 130.237 125.525 130.624 124.337 131.401C123.148 132.179 122.218 133.32 121.548 134.823C120.878 136.331 120.543 138.158 120.543 140.309C120.543 142.461 120.878 144.323 121.555 145.815C122.233 147.307 123.16 148.436 124.344 149.198C125.525 149.96 126.884 150.342 128.411 150.342C129.26 150.342 130.051 150.232 130.783 150.007C131.515 149.782 132.181 149.443 132.785 148.989C133.385 148.535 133.888 147.982 134.285 147.335C134.686 146.688 134.967 145.942 135.13 145.097H140.291C140.1 146.467 139.688 147.753 139.049 148.953C138.41 150.153 137.576 151.203 136.544 152.107C135.512 153.01 134.308 153.717 132.929 154.23C131.55 154.743 130.02 155 128.341 155" fill="white"/>
<path d="M148.806 142.089V155H143.686V125.584H148.69V136.698H148.962C149.47 135.45 150.253 134.461 151.316 133.735C152.383 133.014 153.75 132.649 155.425 132.649C156.932 132.649 158.243 132.973 159.366 133.618C160.489 134.262 161.361 135.203 161.984 136.439C162.608 137.675 162.919 139.183 162.919 140.959V154.996H157.779V141.769C157.779 140.269 157.404 139.106 156.648 138.283C155.897 137.46 154.846 137.051 153.495 137.051C152.587 137.051 151.78 137.25 151.068 137.643C150.361 138.036 149.805 138.608 149.406 139.349C149.002 140.091 148.802 141.003 148.802 142.081" fill="white"/>
<path d="M172.668 154.996C171.246 154.996 169.968 154.742 168.837 154.243C167.706 153.741 166.817 153 166.161 152.019C165.51 151.037 165.182 149.831 165.182 148.394C165.182 147.168 165.415 146.146 165.878 145.337C166.345 144.529 166.981 143.881 167.784 143.398C168.591 142.916 169.496 142.545 170.508 142.292C171.521 142.039 172.565 141.858 173.643 141.753C174.958 141.608 176.024 141.487 176.835 141.379C177.646 141.274 178.236 141.105 178.601 140.872C178.97 140.639 179.15 140.273 179.15 139.774V139.677C179.15 138.619 178.83 137.799 178.191 137.207C177.552 136.62 176.622 136.326 175.397 136.326C174.106 136.326 173.086 136.6 172.336 137.151C171.582 137.698 171.074 138.346 170.808 139.09L165.919 138.406C166.304 137.075 166.944 135.96 167.833 135.067C168.726 134.174 169.812 133.498 171.094 133.048C172.377 132.597 173.799 132.372 175.356 132.372C176.421 132.372 177.486 132.493 178.548 132.734C179.613 132.975 180.592 133.382 181.481 133.957C182.371 134.532 183.084 135.301 183.616 136.27C184.149 137.236 184.415 138.446 184.415 139.895V154.549H179.367V151.532H179.207C178.888 152.132 178.441 152.699 177.859 153.226C177.282 153.753 176.565 154.183 175.704 154.509C174.848 154.835 173.832 155 172.66 155M174.008 151.194C175.073 151.194 175.991 150.989 176.761 150.575C177.536 150.164 178.134 149.613 178.556 148.929C178.982 148.242 179.195 147.497 179.195 146.685V144.118C179.023 144.251 178.74 144.372 178.355 144.48C177.97 144.589 177.532 144.694 177.04 144.782C176.548 144.875 176.065 144.951 175.593 145.019C175.118 145.084 174.712 145.136 174.368 145.176C173.582 145.281 172.881 145.454 172.262 145.695C171.643 145.937 171.156 146.266 170.795 146.685C170.435 147.103 170.254 147.646 170.254 148.31C170.254 149.263 170.607 149.983 171.312 150.466C172.016 150.949 172.914 151.19 174.008 151.19" fill="white"/>
<path d="M198.73 136.968H186.678V133.007H198.73V136.968ZM189.631 127.846H194.576V148.185C194.576 149.038 194.758 149.668 195.12 150.078C195.483 150.485 196.062 150.692 196.85 150.692C197.062 150.692 197.301 150.672 197.564 150.632C197.826 150.592 198.066 150.548 198.278 150.497L199.123 154.494C198.595 154.661 198.062 154.788 197.525 154.872C196.985 154.956 196.448 155 195.908 155C193.951 155 192.418 154.466 191.303 153.398C190.187 152.33 189.631 150.871 189.631 149.022V127.846Z" fill="white"/>
<path d="M151.678 52.0434C151.678 80.789 128.336 104.087 99.5363 104.087C70.7368 104.087 47.3951 80.789 47.3951 52.0434C47.3951 23.2977 70.7368 -0.000244141 99.5363 -0.000244141C128.336 -0.000244141 151.678 23.2977 151.678 52.0434Z" fill="#2A8FEA"/>
<path d="M87.3601 57.6605H78.8156C75.835 57.6605 73.4173 55.2474 73.4173 52.2723V36.5045H80.8888V50.4013H94.8315V63.9015C104.012 57.4092 114.464 52.5963 125.744 49.9121C114.391 55.9812 104.138 63.9345 95.4475 73.415C92.5662 76.5488 89.8638 79.8544 87.3468 83.312V57.6605H87.3601Z" fill="white"/>
<path d="M125.744 26.8841V42.8172C123.008 43.4122 120.306 44.113 117.65 44.9196V29.5815H73.4174V26.8841C73.4174 23.9091 75.835 21.496 78.8156 21.496H120.346C123.326 21.496 125.744 23.9091 125.744 26.8841Z" fill="white"/>
</svg>
