<svg width="20" height="20" viewBox="0 0 20 20" fill="none" xmlns="http://www.w3.org/2000/svg">
<path fill-rule="evenodd" clip-rule="evenodd" d="M17.8408 1.90339C17.364 1.47003 16.636 1.47003 16.1592 1.90339C16.1405 1.9204 16.1161 1.9445 16.0303 2.03027L15.7233 2.33728C15.6991 3.41346 16.5865 4.30088 17.6627 4.27662L17.9697 3.96961C18.0554 3.88384 18.0795 3.85943 18.0965 3.84073C18.5299 3.36397 18.5299 2.63592 18.0965 2.15916C18.0795 2.14045 18.0554 2.11604 17.9697 2.03027C17.8839 1.94451 17.8595 1.9204 17.8408 1.90339ZM18.5357 5.52489L19.0303 5.03027L19.0429 5.01768C19.1103 4.95034 19.1621 4.89849 19.2065 4.84967C20.1599 3.8008 20.1599 2.19908 19.2065 1.15021C19.1622 1.10141 19.1103 1.04958 19.043 0.98228L19.0429 0.982209L19.0303 0.969612L19.0177 0.957015L19.0177 0.956985L19.0177 0.956967C18.9504 0.889641 18.8985 0.837787 18.8497 0.793425C17.8009 -0.159983 16.1991 -0.159983 15.1503 0.793425C15.1014 0.837802 15.0496 0.889674 14.9823 0.95703L14.9697 0.96961L14.475 1.4643C14.4711 1.46807 14.4673 1.47189 14.4635 1.47574L11.0365 4.90276L10.963 4.97628C10.2546 5.68435 9.79716 6.14165 9.47841 6.70462C9.15966 7.2676 9.0029 7.89515 8.76017 8.86686L8.73497 8.96775L8.27239 10.818C8.2085 11.0736 8.28338 11.344 8.46967 11.5303C8.65596 11.7166 8.92632 11.7914 9.1819 11.7275L11.0322 11.265L11.1331 11.2398L11.1331 11.2398L11.1331 11.2398C12.1048 10.997 12.7324 10.8403 13.2953 10.5215C13.8583 10.2028 14.3156 9.74531 15.0237 9.03696L15.0972 8.96341L18.5241 5.53648C18.528 5.53265 18.5319 5.52879 18.5357 5.52489ZM16.3917 5.54755C15.5064 5.2019 14.798 4.49357 14.4524 3.60821L12.0972 5.96342C11.2904 6.77017 10.9898 7.07958 10.7837 7.44367C10.5776 7.80776 10.4669 8.22469 10.1902 9.33156L10.0308 9.96917L10.6684 9.80976C11.7753 9.53305 12.1922 9.42238 12.5563 9.21624C12.9204 9.01009 13.2298 8.70951 14.0365 7.90275L16.3917 5.54755ZM8.94358 0.249942L9 0.249942H10C10.4142 0.249942 10.75 0.585729 10.75 0.999942C10.75 1.41416 10.4142 1.74994 10 1.74994H9C7.09318 1.74994 5.73851 1.75154 4.71085 1.8897C3.70476 2.02497 3.12511 2.27864 2.7019 2.70185C2.27869 3.12506 2.02503 3.7047 1.88976 4.71079C1.75159 5.73845 1.75 7.09312 1.75 8.99994V10.9999C1.75 12.9068 1.75159 14.2614 1.88976 15.2891C2.02503 16.2952 2.2787 16.8748 2.7019 17.298C3.12511 17.7212 3.70476 17.9749 4.71085 18.1102C5.73851 18.2484 7.09318 18.2499 9 18.2499H11C12.9068 18.2499 14.2615 18.2484 15.2892 18.1102C16.2952 17.9749 16.8749 17.7212 17.2981 17.298C17.7213 16.8748 17.975 16.2952 18.1102 15.2891C18.2484 14.2614 18.25 12.9068 18.25 10.9999V9.99994C18.25 9.58573 18.5858 9.24994 19 9.24994C19.4142 9.24994 19.75 9.58573 19.75 9.99994V10.9999V11.0564V11.0564C19.75 12.8941 19.75 14.3498 19.5969 15.489C19.4392 16.6614 19.1071 17.6103 18.3588 18.3587C17.6104 19.1071 16.6614 19.4392 15.489 19.5968C14.3498 19.75 12.8942 19.75 11.0565 19.7499H11.0564H11H9H8.94359H8.94355C7.1058 19.75 5.65018 19.75 4.51098 19.5968C3.33856 19.4392 2.38961 19.1071 1.64124 18.3587C0.892881 17.6103 0.560764 16.6614 0.403136 15.489C0.249974 14.3498 0.249986 12.8941 0.25 11.0564V11.0564V10.9999V8.99994V8.94352V8.94349C0.249986 7.10575 0.249974 5.65013 0.403136 4.51092C0.560764 3.3385 0.892881 2.38955 1.64124 1.64119C2.38961 0.892822 3.33856 0.560705 4.51098 0.403077C5.65019 0.249913 7.10583 0.249926 8.94358 0.249942Z" fill="#22282F"/>
</svg>
