<svg width="24" height="24" viewBox="0 0 24 24" fill="none" xmlns="http://www.w3.org/2000/svg">
<path fill-rule="evenodd" clip-rule="evenodd" d="M20.7074 2.2929C20.9752 2.56073 21.0687 2.9569 20.9489 3.31624L14.9487 21.3162C14.8208 21.6999 14.4743 21.9688 14.0709 21.9975C13.6675 22.0261 13.2865 21.809 13.1056 21.4472L9.25466 13.7454L1.5528 9.89442C1.19104 9.71354 0.973856 9.33255 1.00253 8.92911C1.0312 8.52566 1.30008 8.17921 1.68379 8.05131L19.684 2.05131C20.0434 1.93153 20.4396 2.02506 20.7074 2.2929ZM11.2168 13.1975L13.8148 18.3935L18.4191 4.58114L4.60658 9.18525L9.80258 11.7832L12.7931 8.7929C13.1836 8.40239 13.8168 8.40241 14.2073 8.79295C14.5978 9.18348 14.5978 9.81665 14.2073 10.2072L11.2168 13.1975Z" fill="#22282F"/>
</svg>
