<svg width="24" height="24" viewBox="0 0 24 24" fill="none" xmlns="http://www.w3.org/2000/svg">
<path fill-rule="evenodd" clip-rule="evenodd" d="M12 1C10.3432 1 9.00002 2.34315 9.00002 4V4.5818C8.95847 4.59861 8.91709 4.61577 8.8759 4.63326L8.46447 4.22183C7.29289 3.05025 5.3934 3.05025 4.22182 4.22183C3.05025 5.3934 3.05025 7.29289 4.22183 8.46447L4.63326 8.8759C4.61577 8.91709 4.59862 8.95846 4.5818 9H4C2.34315 9 1 10.3431 1 12C1 13.6569 2.34315 15 4 15H4.58181C4.59862 15.0415 4.61577 15.0829 4.63326 15.1241L4.22182 15.5355C3.05025 16.7071 3.05025 18.6066 4.22182 19.7782L4.92893 19.0711L4.22182 19.7782C5.3934 20.9497 7.29289 20.9497 8.46447 19.7782L8.8759 19.3667C8.91709 19.3842 8.95847 19.4014 9.00002 19.4182V20C9.00002 21.6569 10.3432 23 12 23C13.6569 23 15 21.6569 15 20V19.4182C15.0416 19.4014 15.0829 19.3842 15.1241 19.3667L15.5355 19.7782C16.7071 20.9497 18.6066 20.9498 19.7782 19.7782C20.9497 18.6066 20.9497 16.7071 19.7782 15.5355L19.3667 15.1241C19.3842 15.0829 19.4014 15.0415 19.4182 15H20C21.6569 15 23 13.6569 23 12C23 10.3431 21.6569 9 20 9H19.4182C19.4014 8.95846 19.3842 8.91709 19.3667 8.8759L19.7782 8.46447C20.9497 7.29289 20.9497 5.3934 19.7782 4.22183L19.0711 4.92893L19.7782 4.22183C18.6066 3.05025 16.7071 3.05025 15.5355 4.22183L15.1241 4.63326C15.0829 4.61577 15.0416 4.59862 15 4.58181V4C15 2.34315 13.6569 1 12 1ZM11 4C11 3.44772 11.4477 3 12 3C12.5523 3 13 3.44772 13 4V5.28988C13 5.7323 13.2907 6.12213 13.7148 6.24833C14.1132 6.36692 14.4944 6.52588 14.8538 6.72059C15.2429 6.93145 15.7243 6.86144 16.0373 6.54848L16.9497 5.63604C17.3403 5.24552 17.9734 5.24551 18.364 5.63604C18.7545 6.02656 18.7545 6.65973 18.364 7.05025L17.4515 7.9627C17.1386 8.27565 17.0685 8.7571 17.2794 9.14623C17.4741 9.50557 17.6331 9.8868 17.7517 10.2853C17.8779 10.7093 18.2677 11 18.7101 11H20C20.5523 11 21 11.4477 21 12C21 12.5523 20.5523 13 20 13H18.7101C18.2677 13 17.8779 13.2907 17.7517 13.7148C17.6331 14.1132 17.4741 14.4944 17.2794 14.8538C17.0685 15.2429 17.1386 15.7243 17.4515 16.0373L18.364 16.9497C18.7545 17.3403 18.7545 17.9734 18.364 18.364C17.9734 18.7545 17.3403 18.7545 16.9497 18.364L16.0373 17.4515C15.7243 17.1386 15.2429 17.0685 14.8538 17.2794C14.4944 17.4741 14.1132 17.6331 13.7148 17.7517C13.2907 17.8779 13 18.2677 13 18.7101V20C13 20.5523 12.5523 21 12 21C11.4477 21 11 20.5523 11 20V18.7101C11 18.2677 10.7093 17.8779 10.2853 17.7517C9.88681 17.6331 9.50557 17.4741 9.14623 17.2794C8.7571 17.0685 8.27566 17.1386 7.9627 17.4515L7.05025 18.364C6.65973 18.7545 6.02656 18.7545 5.63604 18.364C5.24551 17.9734 5.24551 17.3403 5.63604 16.9497L6.54849 16.0373C6.86144 15.7243 6.93145 15.2429 6.72059 14.8538C6.52588 14.4944 6.36692 14.1132 6.24833 13.7148C6.12213 13.2907 5.7323 13 5.28988 13H4C3.44772 13 3 12.5523 3 12C3 11.4477 3.44772 11 4 11H5.28988C5.7323 11 6.12213 10.7093 6.24833 10.2853C6.36692 9.8868 6.52588 9.50557 6.72059 9.14623C6.93145 8.75711 6.86144 8.27566 6.54849 7.9627L5.63604 7.05025C5.24551 6.65973 5.24551 6.02656 5.63604 5.63604C6.02656 5.24551 6.65973 5.24551 7.05025 5.63604L7.9627 6.54849C8.27566 6.86144 8.7571 6.93145 9.14623 6.72059C9.50557 6.52588 9.88681 6.36691 10.2853 6.24833C10.7093 6.12213 11 5.73229 11 5.28988V4ZM10 12C10 10.8954 10.8954 10 12 10C13.1046 10 14 10.8954 14 12C14 13.1046 13.1046 14 12 14C10.8954 14 10 13.1046 10 12ZM12 8C9.79086 8 8 9.79086 8 12C8 14.2091 9.79086 16 12 16C14.2091 16 16 14.2091 16 12C16 9.79086 14.2091 8 12 8Z" fill="white"/>
</svg>
