<svg width="25" height="25" viewBox="0 0 25 25" fill="none" xmlns="http://www.w3.org/2000/svg">
<path d="M12.2027 7.89775C11.3127 7.89775 10.4426 8.16167 9.70261 8.65614C8.96259 9.1506 8.38582 9.85341 8.04522 10.6757C7.70463 11.4979 7.61551 12.4027 7.78915 13.2757C7.96278 14.1486 8.39136 14.9504 9.0207 15.5797C9.65004 16.2091 10.4519 16.6376 11.3248 16.8113C12.1977 16.9849 13.1025 16.8958 13.9248 16.5552C14.747 16.2146 15.4498 15.6378 15.9443 14.8978C16.4388 14.1578 16.7027 13.2878 16.7027 12.3977C16.7014 11.2047 16.2269 10.0608 15.3833 9.21714C14.5396 8.37349 13.3958 7.89899 12.2027 7.89775ZM12.2027 15.3977C11.6093 15.3977 11.0293 15.2218 10.536 14.8922C10.0426 14.5625 9.6581 14.094 9.43104 13.5458C9.20398 12.9976 9.14457 12.3944 9.26032 11.8125C9.37608 11.2305 9.6618 10.696 10.0814 10.2764C10.5009 9.85687 11.0355 9.57115 11.6174 9.45539C12.1994 9.33964 12.8026 9.39905 13.3507 9.62611C13.8989 9.85317 14.3674 10.2377 14.6971 10.731C15.0267 11.2244 15.2027 11.8044 15.2027 12.3977C15.2027 13.1934 14.8866 13.9565 14.324 14.5191C13.7614 15.0817 12.9983 15.3977 12.2027 15.3977ZM20.4527 12.6002C20.4564 12.4652 20.4564 12.3302 20.4527 12.1952L21.8514 10.4477C21.9248 10.356 21.9755 10.2483 21.9996 10.1333C22.0237 10.0184 22.0205 9.89936 21.9902 9.78587C21.7609 8.92394 21.4179 8.09636 20.9702 7.32494C20.9116 7.22398 20.8302 7.13811 20.7325 7.07415C20.6349 7.01018 20.5236 6.9699 20.4077 6.9565L18.1839 6.709C18.0914 6.6115 17.9977 6.51775 17.9027 6.42775L17.6402 4.19837C17.6267 4.08232 17.5863 3.97103 17.5221 3.87337C17.458 3.77571 17.3719 3.69438 17.2708 3.63587C16.4991 3.18901 15.6716 2.84634 14.8099 2.61681C14.6963 2.58662 14.5773 2.58353 14.4623 2.6078C14.3473 2.63206 14.2397 2.683 14.148 2.7565L12.4052 4.14775C12.2702 4.14775 12.1352 4.14775 12.0002 4.14775L10.2527 2.75181C10.1609 2.67847 10.0532 2.6277 9.93827 2.6036C9.8233 2.5795 9.70429 2.58274 9.59081 2.61306C8.72901 2.84277 7.90148 3.18576 7.12987 3.63306C7.02892 3.69168 6.94304 3.77305 6.87908 3.87071C6.81511 3.96836 6.77483 4.0796 6.76143 4.19556L6.51393 6.42306C6.41643 6.51619 6.32268 6.60994 6.23268 6.70431L4.0033 6.96025C3.88725 6.97375 3.77596 7.01418 3.6783 7.07831C3.58064 7.14244 3.49932 7.2285 3.4408 7.32962C2.99394 8.10134 2.65127 8.92885 2.42174 9.79056C2.39155 9.90412 2.38846 10.0232 2.41273 10.1381C2.43699 10.2531 2.48793 10.3608 2.56143 10.4524L3.95268 12.1952C3.95268 12.3302 3.95268 12.4652 3.95268 12.6002L2.55674 14.3477C2.4834 14.4395 2.43263 14.5472 2.40853 14.6622C2.38443 14.7771 2.38767 14.8961 2.41799 15.0096C2.64729 15.8716 2.99031 16.6991 3.43799 17.4706C3.49661 17.5715 3.57798 17.6574 3.67564 17.7214C3.77329 17.7853 3.88453 17.8256 4.00049 17.839L6.22424 18.0865C6.31737 18.184 6.41112 18.2777 6.50549 18.3677L6.76518 20.5971C6.77868 20.7132 6.81911 20.8245 6.88324 20.9221C6.94737 21.0198 7.03343 21.1011 7.13456 21.1596C7.90627 21.6065 8.73378 21.9492 9.59549 22.1787C9.70905 22.2089 9.82811 22.212 9.94307 22.1877C10.058 22.1634 10.1657 22.1125 10.2574 22.039L12.0002 20.6477C12.1352 20.6515 12.2702 20.6515 12.4052 20.6477L14.1527 22.0465C14.2444 22.1198 14.3521 22.1706 14.4671 22.1947C14.5821 22.2188 14.7011 22.2156 14.8146 22.1852C15.6765 21.9559 16.5041 21.6129 17.2755 21.1653C17.3764 21.1066 17.4623 21.0253 17.5263 20.9276C17.5902 20.83 17.6305 20.7187 17.6439 20.6028L17.8914 18.379C17.9889 18.2865 18.0827 18.1927 18.1727 18.0977L20.4021 17.8352C20.5181 17.8217 20.6294 17.7813 20.7271 17.7172C20.8247 17.6531 20.906 17.567 20.9646 17.4659C21.4114 16.6942 21.7541 15.8666 21.9836 15.0049C22.0138 14.8914 22.0169 14.7723 21.9926 14.6574C21.9684 14.5424 21.9174 14.4347 21.8439 14.3431L20.4527 12.6002ZM18.9433 11.9909C18.9592 12.2619 18.9592 12.5336 18.9433 12.8046C18.9321 12.9902 18.9903 13.1733 19.1064 13.3184L20.4367 14.9806C20.2841 15.4657 20.0886 15.9363 19.8527 16.3868L17.7339 16.6268C17.5494 16.6473 17.3791 16.7355 17.2558 16.8743C17.0753 17.0773 16.8831 17.2695 16.6802 17.4499C16.5413 17.5732 16.4532 17.7435 16.4327 17.9281L16.1974 20.0449C15.7469 20.281 15.2763 20.4765 14.7911 20.629L13.128 19.2987C12.9949 19.1924 12.8296 19.1345 12.6592 19.1346H12.6142C12.3432 19.1506 12.0715 19.1506 11.8005 19.1346C11.6149 19.1235 11.4319 19.1816 11.2867 19.2978L9.61987 20.629C9.13474 20.4764 8.66414 20.2809 8.21362 20.0449L7.97362 17.929C7.95314 17.7445 7.86495 17.5741 7.72612 17.4509C7.52316 17.2704 7.33095 17.0782 7.15049 16.8752C7.02724 16.7364 6.85688 16.6482 6.67237 16.6277L4.55549 16.3915C4.31942 15.941 4.12396 15.4704 3.97143 14.9852L5.30174 13.3221C5.4179 13.177 5.47604 12.9939 5.46487 12.8084C5.44893 12.5374 5.44893 12.2656 5.46487 11.9946C5.47604 11.8091 5.4179 11.626 5.30174 11.4809L3.97143 9.81494C4.12408 9.32981 4.31953 8.85921 4.55549 8.40869L6.67143 8.16869C6.85594 8.1482 7.0263 8.06002 7.14955 7.92119C7.33001 7.71823 7.52222 7.52602 7.72518 7.34556C7.86456 7.22223 7.95311 7.05148 7.97362 6.8665L8.20893 4.75056C8.6594 4.51449 9.13001 4.31903 9.61518 4.1665L11.2783 5.49681C11.4234 5.61297 11.6065 5.6711 11.7921 5.65994C12.0631 5.644 12.3348 5.644 12.6058 5.65994C12.7914 5.6711 12.9744 5.61297 13.1196 5.49681L14.7855 4.1665C15.2706 4.31915 15.7412 4.5146 16.1917 4.75056L16.4317 6.8665C16.4522 7.05101 16.5404 7.22137 16.6792 7.34462C16.8822 7.52508 17.0744 7.71729 17.2549 7.92025C17.3781 8.05908 17.5485 8.14727 17.733 8.16775L19.8499 8.40306C20.0859 8.85353 20.2814 9.32414 20.4339 9.80931L19.1036 11.4724C18.9863 11.6188 18.9281 11.8037 18.9405 11.9909H18.9433Z" fill="#3A3A3A"/>
</svg>
