<svg width="25" height="25" viewBox="0 0 25 25" fill="none" xmlns="http://www.w3.org/2000/svg">
<path d="M20.75 12.6352C20.7538 12.5002 20.7538 12.3652 20.75 12.2302L22.1488 10.4827C22.2221 10.3909 22.2729 10.2832 22.297 10.1682C22.3211 10.0533 22.3178 9.93427 22.2875 9.82079C22.0578 8.95899 21.7148 8.13146 21.2675 7.35985C21.2089 7.2589 21.1275 7.17302 21.0299 7.10906C20.9322 7.04509 20.821 7.00481 20.705 6.99141L18.4813 6.74391C18.3888 6.64641 18.295 6.55266 18.2 6.46266L17.9375 4.23329C17.924 4.11723 17.8836 4.00594 17.8194 3.90828C17.7553 3.81062 17.6693 3.7293 17.5681 3.67079C16.7966 3.22383 15.969 2.88146 15.1072 2.65266C14.9937 2.62234 14.8747 2.6191 14.7597 2.6432C14.6448 2.6673 14.5371 2.71807 14.4453 2.79141L12.7025 4.18266C12.5675 4.18266 12.4325 4.18266 12.2975 4.18266L10.55 2.78672C10.4582 2.71338 10.3506 2.66261 10.2356 2.63851C10.1206 2.61441 10.0016 2.61765 9.88813 2.64797C9.02633 2.87769 8.1988 3.22068 7.42719 3.66797C7.32624 3.72659 7.24036 3.80797 7.1764 3.90562C7.11244 4.00327 7.07215 4.11451 7.05875 4.23047L6.81125 6.45797C6.71375 6.5511 6.62 6.64485 6.53 6.73922L4.30063 6.99516C4.18457 7.00866 4.07328 7.04909 3.97562 7.11322C3.87796 7.17735 3.79664 7.26341 3.73813 7.36454C3.29126 8.13625 2.9486 8.96376 2.71906 9.82547C2.68887 9.93903 2.68579 10.0581 2.71005 10.1731C2.73431 10.288 2.78525 10.3957 2.85875 10.4873L4.25 12.2302C4.25 12.3652 4.25 12.5002 4.25 12.6352L2.85406 14.3827C2.78072 14.4744 2.72996 14.5821 2.70586 14.6971C2.68176 14.812 2.68499 14.9311 2.71531 15.0445C2.94503 15.9063 3.28802 16.7339 3.73531 17.5055C3.79393 17.6064 3.87531 17.6923 3.97296 17.7563C4.07061 17.8202 4.18185 17.8605 4.29781 17.8739L6.52156 18.1214C6.61469 18.2189 6.70844 18.3127 6.80281 18.4027L7.0625 20.632C7.076 20.7481 7.11643 20.8594 7.18056 20.957C7.24469 21.0547 7.33075 21.136 7.43188 21.1945C8.20359 21.6414 9.0311 21.9841 9.89281 22.2136C10.0064 22.2438 10.1254 22.2469 10.2404 22.2226C10.3554 22.1984 10.463 22.1474 10.5547 22.0739L12.2975 20.6827C12.4325 20.6864 12.5675 20.6864 12.7025 20.6827L14.45 22.0814C14.5418 22.1548 14.6494 22.2055 14.7644 22.2296C14.8794 22.2537 14.9984 22.2505 15.1119 22.2202C15.9738 21.9909 16.8014 21.6478 17.5728 21.2002C17.6738 21.1415 17.7596 21.0602 17.8236 20.9625C17.8876 20.8649 17.9279 20.7536 17.9413 20.6377L18.1888 18.4139C18.2863 18.3214 18.38 18.2277 18.47 18.1327L20.6994 17.8702C20.8154 17.8567 20.9267 17.8162 21.0244 17.7521C21.122 17.688 21.2034 17.6019 21.2619 17.5008C21.7087 16.7291 22.0514 15.9016 22.2809 15.0398C22.3111 14.9263 22.3142 14.8072 22.29 14.6923C22.2657 14.5773 22.2148 14.4696 22.1413 14.378L20.75 12.6352ZM12.5 16.1827C11.7583 16.1827 11.0333 15.9627 10.4166 15.5507C9.79993 15.1386 9.31928 14.5529 9.03545 13.8677C8.75162 13.1825 8.67736 12.4285 8.82206 11.7011C8.96675 10.9736 9.3239 10.3055 9.84835 9.78101C10.3728 9.25656 11.041 8.89941 11.7684 8.75472C12.4958 8.61002 13.2498 8.68428 13.9351 8.96811C14.6203 9.25194 15.206 9.73259 15.618 10.3493C16.0301 10.966 16.25 11.691 16.25 12.4327C16.25 13.4272 15.8549 14.3811 15.1517 15.0843C14.4484 15.7876 13.4946 16.1827 12.5 16.1827Z" fill="white"/>
</svg>
