<svg width="24" height="24" viewBox="0 0 24 24" fill="none" xmlns="http://www.w3.org/2000/svg">
<path d="M20.25 9.75H9.57094L19.6875 7.07906C19.7833 7.05383 19.8731 7.00988 19.9518 6.94976C20.0304 6.88963 20.0964 6.81452 20.146 6.72876C20.1955 6.64299 20.2275 6.54827 20.2402 6.45006C20.2529 6.35186 20.246 6.2521 20.22 6.15656L19.455 3.34406C19.3497 2.96567 19.0996 2.644 18.7588 2.4487C18.4181 2.2534 18.0141 2.2002 17.6344 2.30062L3.35719 6.06937C3.16709 6.11872 2.98874 6.20549 2.8326 6.32462C2.67645 6.44374 2.54563 6.59282 2.44781 6.76312C2.34944 6.93134 2.28589 7.11761 2.26093 7.31087C2.23596 7.50413 2.2501 7.70043 2.3025 7.88812L3 10.4587C3 10.4719 3 10.4859 3 10.5V18.75C3 19.1478 3.15804 19.5294 3.43934 19.8107C3.72064 20.092 4.10218 20.25 4.5 20.25H19.5C19.8978 20.25 20.2794 20.092 20.5607 19.8107C20.842 19.5294 21 19.1478 21 18.75V10.5C21 10.3011 20.921 10.1103 20.7803 9.96967C20.6397 9.82902 20.4489 9.75 20.25 9.75ZM18.015 3.75L18.5775 5.81906L16.4569 6.38156L13.8206 4.85906L18.015 3.75ZM11.7628 5.4L14.3991 6.9225L10.9359 7.83656L8.29969 6.31594L11.7628 5.4ZM4.31906 9.58312L3.75656 7.51312L6.24094 6.85687L8.87719 8.38125L4.31906 9.58312ZM19.5 18.75H4.5V11.25H19.5V18.75Z" fill="#3A3A3A"/>
</svg>
