<svg width="25" height="25" viewBox="0 0 25 25" fill="none" xmlns="http://www.w3.org/2000/svg">
<g clip-path="url(#clip0_5_1176)">
<path d="M18.5 7.18237V17.6824C18.5 18.0802 18.342 18.4617 18.0607 18.743C17.7794 19.0243 17.3978 19.1824 17 19.1824H3.5C3.10218 19.1824 2.72064 19.0243 2.43934 18.743C2.15804 18.4617 2 18.0802 2 17.6824V7.18237C2 6.78455 2.15804 6.40302 2.43934 6.12171C2.72064 5.84041 3.10218 5.68237 3.5 5.68237H17C17.3978 5.68237 17.7794 5.84041 18.0607 6.12171C18.342 6.40302 18.5 6.78455 18.5 7.18237ZM23.9375 7.20581C23.8317 7.17992 23.7216 7.17672 23.6145 7.19644C23.5073 7.21615 23.4056 7.25833 23.3159 7.32019L20.1669 9.41925C20.1155 9.45352 20.0734 9.49995 20.0443 9.55441C20.0152 9.60887 20 9.66968 20 9.73144V15.1333C20 15.1951 20.0152 15.2559 20.0443 15.3103C20.0734 15.3648 20.1155 15.4112 20.1669 15.4455L23.3337 17.5567C23.4523 17.6358 23.5909 17.6795 23.7333 17.6826C23.8758 17.6858 24.0162 17.6483 24.1381 17.5746C24.2509 17.5029 24.3434 17.4034 24.4068 17.2857C24.4702 17.168 24.5022 17.036 24.5 16.9024V7.93237C24.5001 7.76604 24.4449 7.60439 24.343 7.47286C24.2412 7.34134 24.0986 7.24739 23.9375 7.20581Z" fill="#7E7E7E"/>
</g>
<defs>
<clipPath id="clip0_5_1176">
<rect width="24" height="24" fill="white" transform="translate(0.5 0.432373)"/>
</clipPath>
</defs>
</svg>
