<svg width="20" height="17" viewBox="0 0 20 17" fill="none" xmlns="http://www.w3.org/2000/svg">
<path d="M17.75 3.43237H2.75C2.55109 3.43237 2.36032 3.35336 2.21967 3.2127C2.07902 3.07205 2 2.88129 2 2.68237C2 2.48346 2.07902 2.2927 2.21967 2.15204C2.36032 2.01139 2.55109 1.93237 2.75 1.93237H15.5C15.6989 1.93237 15.8897 1.85336 16.0303 1.7127C16.171 1.57205 16.25 1.38129 16.25 1.18237C16.25 0.983461 16.171 0.792695 16.0303 0.652043C15.8897 0.511391 15.6989 0.432373 15.5 0.432373H2.75C2.15326 0.432373 1.58097 0.669426 1.15901 1.09138C0.737053 1.51334 0.5 2.08564 0.5 2.68237V14.6824C0.5 15.2791 0.737053 15.8514 1.15901 16.2734C1.58097 16.6953 2.15326 16.9324 2.75 16.9324H17.75C18.1478 16.9324 18.5294 16.7743 18.8107 16.493C19.092 16.2117 19.25 15.8302 19.25 15.4324V4.93237C19.25 4.53455 19.092 4.15302 18.8107 3.87171C18.5294 3.59041 18.1478 3.43237 17.75 3.43237ZM14.375 10.9324C14.1525 10.9324 13.935 10.8664 13.75 10.7428C13.565 10.6192 13.4208 10.4435 13.3356 10.2379C13.2505 10.0323 13.2282 9.80613 13.2716 9.5879C13.315 9.36967 13.4222 9.16921 13.5795 9.01188C13.7368 8.85454 13.9373 8.7474 14.1555 8.70399C14.3738 8.66058 14.6 8.68286 14.8055 8.76801C15.0111 8.85316 15.1868 8.99735 15.3104 9.18236C15.434 9.36736 15.5 9.58487 15.5 9.80737C15.5 10.1057 15.3815 10.3919 15.1705 10.6029C14.9595 10.8138 14.6734 10.9324 14.375 10.9324Z" fill="#7E7E7E"/>
</svg>
