<svg width="25" height="25" viewBox="0 0 25 25" fill="none" xmlns="http://www.w3.org/2000/svg">
<path d="M20.75 6.43237H5.75C5.55109 6.43237 5.36032 6.35336 5.21967 6.2127C5.07902 6.07205 5 5.88129 5 5.68237C5 5.48346 5.07902 5.2927 5.21967 5.15204C5.36032 5.01139 5.55109 4.93237 5.75 4.93237H18.5C18.6989 4.93237 18.8897 4.85336 19.0303 4.7127C19.171 4.57205 19.25 4.38129 19.25 4.18237C19.25 3.98346 19.171 3.7927 19.0303 3.65204C18.8897 3.51139 18.6989 3.43237 18.5 3.43237H5.75C5.15326 3.43237 4.58097 3.66943 4.15901 4.09138C3.73705 4.51334 3.5 5.08564 3.5 5.68237V17.6824C3.5 18.2791 3.73705 18.8514 4.15901 19.2734C4.58097 19.6953 5.15326 19.9324 5.75 19.9324H20.75C21.1478 19.9324 21.5294 19.7743 21.8107 19.493C22.092 19.2117 22.25 18.8302 22.25 18.4324V7.93237C22.25 7.53455 22.092 7.15302 21.8107 6.87171C21.5294 6.59041 21.1478 6.43237 20.75 6.43237ZM17.375 13.9324C17.1525 13.9324 16.935 13.8664 16.75 13.7428C16.565 13.6192 16.4208 13.4435 16.3356 13.2379C16.2505 13.0323 16.2282 12.8061 16.2716 12.5879C16.315 12.3697 16.4222 12.1692 16.5795 12.0119C16.7368 11.8545 16.9373 11.7474 17.1555 11.704C17.3738 11.6606 17.6 11.6829 17.8055 11.768C18.0111 11.8532 18.1868 11.9974 18.3104 12.1824C18.434 12.3674 18.5 12.5849 18.5 12.8074C18.5 13.1057 18.3815 13.3919 18.1705 13.6029C17.9595 13.8138 17.6734 13.9324 17.375 13.9324Z" fill="white"/>
</svg>
