<svg width="153" height="37" viewBox="0 0 153 37" fill="none" xmlns="http://www.w3.org/2000/svg">
<path d="M47.9316 26.0433L43.7336 9.95196H45.6161L48.8399 23.0632H48.9864L52.2717 9.95196H54.3813L57.6476 23.0632H57.8131L61.0178 9.95196H62.9194L58.7024 26.0433H56.7796L53.3881 13.2359H53.265L49.8735 26.0433H47.9316Z" fill="black"/>
<path d="M66.8853 26.0389C66.1518 26.0389 65.4823 25.8941 64.881 25.6066C64.2798 25.317 63.8 24.9001 63.4482 24.3515C63.0964 23.8029 62.9194 23.1403 62.9194 22.3635C62.9194 21.6789 63.0516 21.1259 63.3139 20.7024C63.5761 20.2789 63.928 19.9432 64.3672 19.6974C64.8064 19.4517 65.2904 19.2696 65.8213 19.1467C66.3522 19.026 66.8853 18.9294 67.4247 18.8592C68.1305 18.7671 68.704 18.6946 69.1432 18.6442C69.5825 18.5937 69.9044 18.5103 70.1091 18.3874C70.3138 18.2668 70.4161 18.0605 70.4161 17.7665V17.7028C70.4161 16.9392 70.2136 16.3468 69.8085 15.9233C69.4034 15.4998 68.7893 15.2869 67.9663 15.2869C67.1433 15.2869 66.4567 15.4778 65.9727 15.8596C65.4887 16.2414 65.1497 16.6496 64.9557 17.084L63.2521 16.4653C63.557 15.739 63.9642 15.1728 64.4717 14.7669C64.9812 14.3609 65.5335 14.0757 66.1326 13.9111C66.7318 13.7465 67.3224 13.6654 67.9023 13.6654C68.2754 13.6654 68.7061 13.7092 69.1901 13.7992C69.6741 13.8892 70.1475 14.0735 70.608 14.3544C71.0686 14.6352 71.4502 15.0587 71.7509 15.627C72.0515 16.1932 72.2029 16.9502 72.2029 17.8981V25.7646H70.4161V24.1409H70.333C70.2157 24.3976 70.0153 24.6741 69.7296 24.9681C69.446 25.2643 69.0707 25.5167 68.6038 25.7273C68.1368 25.938 67.5633 26.0433 66.8853 26.0433M67.1561 24.3932C67.8618 24.3932 68.4588 24.2506 68.9428 23.9653C69.4268 23.6801 69.7935 23.3114 70.043 22.8594C70.2925 22.4074 70.4161 21.9356 70.4161 21.4441V19.7567C70.3394 19.8488 70.1752 19.9322 69.9236 20.0068C69.6699 20.0814 69.3799 20.1473 69.0515 20.2043C68.7232 20.2614 68.4034 20.3096 68.0899 20.3491C67.7786 20.3886 67.5292 20.4194 67.3416 20.4391C66.8767 20.5027 66.4439 20.6059 66.0431 20.7441C65.6422 20.8823 65.3181 21.0886 65.0729 21.3585C64.8277 21.6306 64.7041 21.9992 64.7041 22.471C64.7041 23.1052 64.9343 23.5835 65.3949 23.9083C65.8554 24.233 66.4418 24.3954 67.1561 24.3954" fill="black"/>
<path d="M83.1258 16.5147L81.4633 16.9654C81.3059 16.5587 81.0333 16.1717 80.6476 15.8046C80.2619 15.4374 79.6634 15.2527 78.8498 15.2527C78.1161 15.2527 77.5043 15.422 77.0144 15.7606C76.5245 16.0992 76.2807 16.5235 76.2807 17.0292C76.2807 17.4865 76.4492 17.8492 76.7817 18.1219C77.1164 18.3923 77.6395 18.6143 78.3533 18.7858L80.1466 19.2145C81.2195 19.4718 82.0197 19.8675 82.5495 20.4018C83.0793 20.9382 83.3431 21.6198 83.3431 22.4464C83.3431 23.1324 83.1458 23.7458 82.749 24.2888C82.3522 24.8319 81.8025 25.2606 81.0976 25.5728C80.3927 25.8872 79.5725 26.0433 78.637 26.0433C77.4068 26.0433 76.3893 25.7751 75.5869 25.2408C74.7845 24.7044 74.2746 23.9305 74.0596 22.9169L75.8086 22.4882C75.9748 23.1302 76.2918 23.6117 76.7639 23.9349C77.2361 24.2559 77.8523 24.4164 78.6149 24.4164C79.4705 24.4164 80.1555 24.2339 80.672 23.8645C81.1862 23.4974 81.4434 23.0598 81.4434 22.552C81.4434 21.7099 80.8449 21.1449 79.6501 20.8591L77.6418 20.3886C76.5334 20.1248 75.7199 19.7224 75.2012 19.1794C74.6825 18.6363 74.4231 17.9548 74.4231 17.1347C74.4231 16.4575 74.616 15.8573 75.0017 15.3363C75.3874 14.8152 75.915 14.4063 76.5844 14.1095C77.2538 13.8127 78.0097 13.6654 78.8521 13.6654C80.0535 13.6654 80.9956 13.927 81.6761 14.4524C82.3566 14.9779 82.8399 15.6639 83.128 16.5147" fill="black"/>
<path d="M88.1921 26.0389C87.4098 26.0389 86.6979 25.8941 86.0543 25.6066C85.4106 25.317 84.9012 24.9001 84.5259 24.3515C84.1507 23.8029 83.9619 23.1403 83.9619 22.3635C83.9619 21.6789 84.1029 21.1259 84.3827 20.7024C84.6624 20.2789 85.0377 19.9432 85.5062 19.6974C85.9747 19.4517 86.4932 19.2696 87.0573 19.1467C87.6213 19.026 88.1921 18.9294 88.7698 18.8592C89.5226 18.7671 90.1344 18.6946 90.6029 18.6442C91.0714 18.5937 91.4148 18.5103 91.6332 18.3874C91.8515 18.2668 91.9607 18.0605 91.9607 17.7665V17.7028C91.9607 16.9392 91.7446 16.3468 91.3125 15.9233C90.8804 15.4998 90.2254 15.2869 89.3452 15.2869C88.4651 15.2869 87.735 15.4778 87.2187 15.8596C86.7025 16.2414 86.3408 16.6496 86.1339 17.084L84.3167 16.4653C84.6419 15.739 85.0763 15.1728 85.6176 14.7669C86.1589 14.3609 86.7502 14.0757 87.3893 13.9111C88.0284 13.7465 88.6584 13.6654 89.277 13.6654C89.675 13.6654 90.1344 13.7092 90.6507 13.7992C91.1669 13.8892 91.6718 14.0735 92.1631 14.3544C92.6543 14.6352 93.0592 15.0587 93.3821 15.627C93.7028 16.1932 93.8643 16.9502 93.8643 17.8981V25.7646H91.9584V24.1409H91.8697C91.7446 24.3976 91.5308 24.6741 91.2261 24.9681C90.9236 25.2643 90.5233 25.5167 90.023 25.7273C89.5249 25.938 88.9131 26.0433 88.1899 26.0433M88.481 24.3932C89.2338 24.3932 89.8706 24.2506 90.3868 23.9653C90.9031 23.6801 91.2943 23.3114 91.5604 22.8594C91.8265 22.4074 91.9584 21.9356 91.9584 21.4441V19.7567C91.8765 19.8488 91.7014 19.9322 91.433 20.0068C91.1624 20.0814 90.8531 20.1473 90.5028 20.2043C90.1526 20.2614 89.8092 20.3096 89.4771 20.3491C89.1451 20.3886 88.879 20.4194 88.6788 20.4391C88.183 20.5027 87.7214 20.6059 87.2938 20.7441C86.8662 20.8823 86.5205 21.0886 86.259 21.3585C85.9974 21.6306 85.8655 21.9992 85.8655 22.471C85.8655 23.1052 86.1111 23.5835 86.6024 23.9083C87.0936 24.233 87.7191 24.3954 88.481 24.3954" fill="black"/>
<path d="M99.6859 26.0389C98.9526 26.0389 98.2854 25.8941 97.6821 25.6066C97.081 25.317 96.6014 24.9001 96.2496 24.3515C95.8958 23.8029 95.721 23.1403 95.721 22.3635C95.721 21.6789 95.851 21.1259 96.1153 20.7024C96.3797 20.2789 96.7293 19.9432 97.1684 19.6974C97.6075 19.4517 98.0914 19.2696 98.6222 19.1467C99.153 19.026 99.6859 18.9294 100.227 18.8592C100.933 18.7671 101.506 18.6946 101.945 18.6442C102.385 18.5937 102.706 18.5103 102.911 18.3874C103.116 18.2668 103.218 18.0605 103.218 17.7665V17.7028C103.218 16.9392 103.016 16.3468 102.611 15.9233C102.206 15.4998 101.592 15.2869 100.769 15.2869C99.946 15.2869 99.2596 15.4778 98.7757 15.8596C98.2918 16.2414 97.9528 16.6496 97.7589 17.084L96.0557 16.4653C96.3605 15.739 96.7676 15.1728 97.275 14.7669C97.7844 14.3609 98.3365 14.0757 98.9356 13.9111C99.5346 13.7465 100.125 13.6654 100.705 13.6654C101.08 13.6654 101.508 13.7092 101.992 13.7992C102.476 13.8892 102.949 14.0735 103.41 14.3544C103.87 14.6352 104.25 15.0587 104.553 15.627C104.853 16.1932 105.004 16.9502 105.004 17.8981V25.7646H103.218V24.1409H103.135C103.018 24.3976 102.817 24.6741 102.532 24.9681C102.248 25.2643 101.873 25.5167 101.406 25.7273C100.939 25.938 100.366 26.0433 99.688 26.0433M99.9566 24.3932C100.662 24.3932 101.257 24.2506 101.743 23.9653C102.227 23.6801 102.594 23.3114 102.843 22.8594C103.092 22.4074 103.216 21.9356 103.216 21.4441V19.7567C103.139 19.8488 102.975 19.9322 102.724 20.0068C102.472 20.0814 102.18 20.1473 101.852 20.2043C101.523 20.2614 101.204 20.3096 100.892 20.3491C100.581 20.3886 100.332 20.4194 100.144 20.4391C99.6795 20.5027 99.2468 20.6059 98.846 20.7441C98.4453 20.8823 98.1212 21.0886 97.8761 21.3585C97.631 21.6306 97.5073 21.9992 97.5073 22.471C97.5073 23.1052 97.7375 23.5835 98.198 23.9083C98.6584 24.233 99.2446 24.3954 99.9588 24.3954" fill="black"/>
<path d="M113.94 26.0411C112.584 26.0411 111.372 25.7216 110.302 25.0847C109.233 24.4478 108.393 23.528 107.779 22.3297C107.168 21.1315 106.861 19.6892 106.861 18.0074C106.861 16.3255 107.17 14.8724 107.79 13.6698C108.41 12.4673 109.254 11.5475 110.322 10.9084C111.391 10.2715 112.597 9.95197 113.937 9.95197C114.788 9.95197 115.587 10.075 116.33 10.3212C117.074 10.5673 117.737 10.9257 118.318 11.3985C118.9 11.8714 119.375 12.45 119.746 13.1344C120.115 13.8188 120.36 14.5939 120.477 15.464H117.654C117.577 14.9869 117.43 14.5658 117.212 14.201C116.995 13.8361 116.725 13.5273 116.403 13.2704C116.081 13.0157 115.715 12.8213 115.308 12.6918C114.901 12.5623 114.46 12.4975 113.991 12.4975C113.147 12.4975 112.399 12.7091 111.749 13.1344C111.099 13.5597 110.59 14.1837 110.223 15.0063C109.857 15.831 109.674 16.8307 109.674 18.0074C109.674 19.184 109.857 20.2031 110.228 21.0192C110.599 21.8353 111.106 22.4528 111.753 22.8695C112.399 23.2862 113.143 23.4956 113.978 23.4956C114.442 23.4956 114.875 23.4352 115.276 23.3121C115.676 23.189 116.041 23.0034 116.371 22.7551C116.699 22.5068 116.974 22.2045 117.191 21.8504C117.411 21.4964 117.564 21.0883 117.654 20.6263H120.477C120.372 21.3755 120.147 22.0793 119.797 22.7357C119.448 23.392 118.992 23.9663 118.427 24.4607C117.862 24.9551 117.204 25.3416 116.45 25.6223C115.695 25.903 114.858 26.0433 113.94 26.0433" fill="black"/>
<path d="M125.134 18.981V26.0433H122.334V9.95197H125.071V16.032H125.22C125.497 15.349 125.926 14.808 126.508 14.4111C127.091 14.0164 127.839 13.8168 128.755 13.8168C129.579 13.8168 130.297 13.9942 130.911 14.3468C131.525 14.6993 132.002 15.2137 132.343 15.89C132.684 16.5663 132.855 17.3912 132.855 18.3624V26.0411H130.043V18.8059C130.043 17.9854 129.837 17.3491 129.424 16.8989C129.013 16.4488 128.438 16.2249 127.699 16.2249C127.203 16.2249 126.761 16.3335 126.372 16.5486C125.985 16.7637 125.681 17.0763 125.462 17.4821C125.242 17.8879 125.132 18.3868 125.132 18.9766" fill="black"/>
<path d="M138.188 26.0411C137.41 26.0411 136.711 25.9025 136.092 25.6296C135.473 25.3545 134.987 24.9496 134.628 24.4127C134.272 23.8758 134.093 23.2156 134.093 22.43C134.093 21.7589 134.22 21.1999 134.474 20.7576C134.729 20.3153 135.077 19.9611 135.516 19.697C135.957 19.4329 136.453 19.2305 137.006 19.0918C137.56 18.9532 138.132 18.8542 138.721 18.797C139.441 18.7178 140.023 18.6517 140.467 18.5923C140.911 18.5351 141.234 18.4427 141.433 18.3151C141.635 18.1874 141.734 17.9872 141.734 17.7143V17.6615C141.734 17.0828 141.559 16.6339 141.209 16.3104C140.859 15.9891 140.351 15.8285 139.68 15.8285C138.974 15.8285 138.416 15.9781 138.006 16.2796C137.594 16.5788 137.316 16.9331 137.17 17.3402L134.496 16.9661C134.707 16.2378 135.056 15.6282 135.543 15.1397C136.031 14.6512 136.625 14.2815 137.327 14.035C138.029 13.7886 138.806 13.6654 139.658 13.6654C140.241 13.6654 140.824 13.7314 141.404 13.8634C141.987 13.9954 142.523 14.2177 143.009 14.5324C143.495 14.847 143.885 15.2673 144.177 15.7977C144.468 16.3258 144.614 16.9881 144.614 17.7803V25.7968H141.852V24.1464H141.765C141.59 24.4743 141.346 24.7846 141.028 25.0729C140.712 25.3611 140.319 25.5966 139.849 25.7748C139.38 25.9531 138.824 26.0433 138.183 26.0433M138.921 23.9616C139.503 23.9616 140.005 23.8494 140.427 23.6227C140.85 23.3983 141.178 23.0968 141.409 22.7227C141.642 22.3464 141.758 21.9393 141.758 21.4948V20.0909C141.664 20.1635 141.509 20.2295 141.299 20.2889C141.088 20.3483 140.848 20.4056 140.579 20.454C140.31 20.5046 140.046 20.5464 139.788 20.5838C139.528 20.619 139.306 20.6476 139.118 20.6696C138.688 20.7268 138.304 20.8215 137.966 20.9535C137.627 21.0855 137.361 21.266 137.163 21.4948C136.966 21.7237 136.867 22.0207 136.867 22.3838C136.867 22.9054 137.06 23.2992 137.446 23.5633C137.831 23.8274 138.322 23.9594 138.921 23.9594" fill="black"/>
<path d="M152.444 16.1795H145.852V14.0127H152.444V16.1795ZM147.467 11.1898H150.172V22.3157C150.172 22.7822 150.271 23.1266 150.47 23.3512C150.668 23.5735 150.985 23.6869 151.416 23.6869C151.532 23.6869 151.663 23.676 151.806 23.6542C151.95 23.6324 152.081 23.6084 152.197 23.5801L152.659 25.7665C152.37 25.858 152.079 25.9278 151.785 25.9735C151.49 26.0193 151.196 26.0433 150.901 26.0433C149.83 26.0433 148.992 25.7512 148.381 25.167C147.771 24.5828 147.467 23.785 147.467 22.7735V11.1898Z" fill="black"/>
<path d="M36.2663 18.0992C36.2663 28.0961 28.1488 36.1985 18.1332 36.1985C8.11754 36.1985 0 28.0961 0 18.0992C0 8.10235 8.11754 0 18.1332 0C28.1488 0 36.2663 8.10235 36.2663 18.0992Z" fill="#2A8FEA"/>
<path d="M13.8985 20.0523H10.927C9.89039 20.0523 9.04961 19.2131 9.04961 18.1785V12.6949H11.648V17.5278H16.4968V22.2227C19.6895 19.9649 23.3244 18.2911 27.2473 17.3577C23.2991 19.4683 19.7333 22.2342 16.7111 25.5313C15.709 26.6211 14.7692 27.7707 13.8939 28.9732V20.0523H13.8985Z" fill="white"/>
<path d="M27.2473 9.34961V14.8907C26.2959 15.0976 25.3561 15.3413 24.4324 15.6218V10.2877H9.04961V9.34961C9.04961 8.31497 9.89039 7.47577 10.927 7.47577H25.3699C26.4065 7.47577 27.2473 8.31497 27.2473 9.34961Z" fill="white"/>
</svg>
